<?xml version="1.0" encoding="UTF-8" standalone="no"?>
<svg width="154px" height="199px" viewBox="0 0 154 199" version="1.1" xmlns="http://www.w3.org/2000/svg" xmlns:xlink="http://www.w3.org/1999/xlink">
    <!-- Generator: Sketch 46.2 (44496) - http://www.bohemiancoding.com/sketch -->
    <title>Abgeben</title>
    <desc>Created with Sketch.</desc>
    <defs>
        <polygon id="path-1" points="0 236 167.770909 236 167.770909 0.304123711 0 0.304123711"></polygon>
        <polygon id="path-3" points="71.9182373 42.4038141 71.9182373 0 0.453355932 0 0.453355932 42.4038141 71.9182373 42.4038141"></polygon>
    </defs>
    <g id="home" stroke="none" stroke-width="1" fill="none" fill-rule="evenodd">
        <g id="Mobile-Portrait-Copy-2" transform="translate(-90.000000, -9534.000000)">
            <g id="abgeben" transform="translate(29.000000, 9490.000000)">
                <g id="Group-21" transform="translate(20.000000, 21.000000)">
                    <g id="Group-23">
                        <g id="Page-1-Copy">
                            <g id="Stroke-2-+-Page-1-Mask">
                                <g id="Page-1">
                                    <g id="Abgeben" transform="translate(27.000000, 23.000000)">
                                        <polygon id="Fill-1" fill="#0E0607" points="105 236 115 236 115 101 105 101"></polygon>
                                        <g id="Group-14">
                                            <path d="M167.770909,105.835052 L39.8929745,105.835052 L39.8929745,58.3917526 C39.8929745,41.5956082 53.5687855,27.9793814 70.4384291,27.9793814 L137.225455,27.9793814 C154.095098,27.9793814 167.770909,41.5956082 167.770909,58.3917526 L167.770909,105.835052 Z" id="Fill-2" fill="#70C6C7"></path>
                                            <path d="M101.329414,105.84454 L39.8927302,105.84454 L39.8927302,58.3915093 C39.8927302,41.5953649 53.5685411,27.9791381 70.4381847,27.9791381 L70.7839593,27.9791381 C87.6536029,27.9791381 101.329414,41.5953649 101.329414,58.3915093 L101.329414,105.84454 Z" id="Fill-4" fill="#70C6C7"></path>
                                            <path d="M101.329414,105.84454 L39.8927302,105.84454 L39.8927302,58.3915093 C39.8927302,41.5953649 53.5685411,27.9791381 70.4381847,27.9791381 L70.7839593,27.9791381 C87.6536029,27.9791381 101.329414,41.5953649 101.329414,58.3915093 L101.329414,105.84454 Z" id="Fill-6" fill="#70C6C7"></path>
                                            <path d="M81.1571956,105.835052 L60.0594502,105.835052 L39.8994502,105.835052 L19.0430138,126.515464 C19.0430138,126.515464 1.15620655,141.113402 34.8215738,141.113402 C68.4869411,141.113402 80.3343011,126.515464 80.3343011,126.515464 L101.317196,105.835052 L81.1571956,105.835052 Z" id="Fill-8" fill="#70C6C7"></path>
                                            <mask id="mask-2" fill="white">
                                                <use xlink:href="#path-1"></use>
                                            </mask>
                                            <g id="Clip-11"></g>
                                            <polygon id="Fill-10" fill="#454545" mask="url(#mask-2)" points="115.558342 54.1340206 118.411898 54.1340206 118.411898 4.56185567 115.558342 4.56185567"></polygon>
                                            <path d="M121.265455,53.6778351 C121.265455,56.9532474 119.448,59.6082474 117.205964,59.6082474 C114.963316,59.6082474 113.145862,56.9532474 113.145862,53.6778351 C113.145862,50.4024227 114.963316,47.7474227 117.205964,47.7474227 C119.448,47.7474227 121.265455,50.4024227 121.265455,53.6778351" id="Fill-12" fill="#0E0607" mask="url(#mask-2)"></path>
                                            <polygon id="Fill-13" fill="#0E0607" mask="url(#mask-2)" points="115.557731 10.9484536 133.559389 10.9484536 133.559389 0.304123711 115.557731 0.304123711"></polygon>
                                        </g>
                                        <g id="Group-19" transform="translate(29.000000, 64.000000)">
                                            <mask id="mask-4" fill="white">
                                                <use xlink:href="#path-3"></use>
                                            </mask>
                                            <g id="Clip-16"></g>
                                            <polygon id="Fill-15" fill="#DEDDD5" mask="url(#mask-4)" points="0.453355932 42.3949718 83.1111864 42.3949718 83.1111864 0 0.453355932 0"></polygon>
                                            <polygon id="Fill-17" fill="#FFFFFF" mask="url(#mask-4)" points="0.453477966 0 83.1113085 0 41.7826983 24.7655775"></polygon>
                                            <polygon id="Fill-18" fill="#FFFFFF" mask="url(#mask-4)" points="83.1115525 42.4038141 0.453722034 42.4038141 41.7823322 17.6382366"></polygon>
                                        </g>
                                    </g>
                                </g>
                            </g>
                        </g>
                    </g>
                </g>
            </g>
        </g>
    </g>
</svg>