<?xml version="1.0" encoding="UTF-8" standalone="no"?>
<svg width="222px" height="223px" viewBox="0 0 222 223" version="1.1" xmlns="http://www.w3.org/2000/svg" xmlns:xlink="http://www.w3.org/1999/xlink">
    <!-- Generator: Sketch 46.2 (44496) - http://www.bohemiancoding.com/sketch -->
    <title>Alleinerziehender</title>
    <desc>Created with Sketch.</desc>
    <defs>
        <polygon id="path-1" points="0.412 222.772 222.412 222.772 222.412 0.772 0.412 0.772"></polygon>
        <polygon id="path-3" points="0 354 0 0 354 0 354 354"></polygon>
    </defs>
    <g id="home" stroke="none" stroke-width="1" fill="none" fill-rule="evenodd">
        <g id="Mobile-Portrait-Copy-2" transform="translate(-50.000000, -2372.000000)">
            <g id="alleinerziehender" transform="translate(29.000000, 2351.000000)">
                <g id="Page-1" transform="translate(20.000000, 20.000000)">
                    <g id="Group-75" transform="translate(0.000000, 0.724000)">
                        <g id="Alleinerziehender">
                            <mask id="mask-2" fill="white">
                                <use xlink:href="#path-1"></use>
                            </mask>
                            <g id="Mask"></g>
                            <g id="Group-14" mask="url(#mask-2)">
                                <g transform="translate(1.000000, -65.000000)">
                                    <mask id="mask-4" fill="white">
                                        <use xlink:href="#path-3"></use>
                                    </mask>
                                    <g id="Clip-13" stroke="none" fill="none"></g>
                                    <path d="M320.753962,332.984236 C334.782112,325.842845 348.215795,317.360752 361.815227,309.41685 C364.060815,312.70173 366.298434,315.991388 368.526491,319.28423 C368.354366,319.333591 368.179054,319.405243 368.003742,319.527849 C354.056873,329.17231 339.297194,336.920361 324.559827,345.133359 C323.638641,341.044375 322.346114,336.980868 320.753962,332.984236 M-31.1435077,316.500918 C-30.9634144,316.169724 -30.7673837,315.849675 -30.5856967,315.520072 C-25.3374919,321.706093 -17.0707327,325.471843 -10.1825635,329.278993 C-1.60502383,334.020813 7.17173405,338.030182 16.6051152,340.547582 C15.0735255,343.420062 13.5499046,346.29891 12.0645335,349.196866 C-4.90089005,344.684335 -22.3412499,338.259471 -36.3614313,327.393729 C-34.796373,323.678932 -33.0544088,320.045341 -31.1435077,316.500918 M-18.3632605,296.108545 C-16.5288591,293.433509 -14.6530203,290.787134 -12.7676191,288.147128 C-3.87770528,302.909187 14.6591516,310.410434 30.5185156,314.770106 C28.4243337,317.964227 26.6489009,321.567564 24.9802491,324.912952 C15.6775552,322.521342 7.60842039,317.340052 -0.602557749,312.448557 C-7.14488408,308.550647 -13.8800536,302.820019 -21.0837845,300.121099 C-20.1833181,298.778804 -19.2780705,297.439694 -18.3632605,296.108545 M31.1751389,237.311888 C57.1484135,266.624233 102.1797,263.770861 136.948857,271.630372 C137.353669,271.721132 137.69473,271.635149 137.983198,271.471144 C140.00088,273.670087 142.056812,275.830816 144.203588,277.905561 C146.090583,279.728726 148.536983,282.091674 151.251132,284.341571 C128.092412,283.701473 105.330535,279.251041 83.0101259,273.00292 C71.2897196,269.722817 59.690438,266.019165 48.1357812,262.191316 C37.7700588,258.756761 27.5398048,255.688431 18.1000487,250.121808 C22.3314437,245.665007 26.6903383,241.39928 31.1751389,237.311888 M77.8256709,203.752923 C78.5906689,203.36759 79.3413232,202.931305 80.0808212,202.46795 C80.131821,202.582595 80.1780397,202.700424 80.232227,202.813476 L80.232227,202.813476 C80.3421955,203.045949 80.4489765,203.283199 80.5732886,203.507711 C85.5617128,214.018374 92.2761637,223.29024 99.865581,231.856725 C91.9016335,223.03866 84.5369343,213.730171 77.7141087,203.872344 C77.7348274,203.861198 77.7858273,203.795915 77.8256709,203.752923 M85.1074953,200.568356 C85.7194937,199.299306 86.5928663,198.065287 87.5841762,196.874259 C89.3117966,195.402989 90.9485735,193.809113 92.368601,192.038494 C93.1304114,191.355404 93.8906282,190.672315 94.6667824,190.003556 C94.6779386,189.994002 94.6795323,189.984448 94.6890948,189.974895 C101.358921,200.768984 111.09352,209.610934 122.852176,215.527859 C146.280239,227.315533 175.339005,228.602098 200.583938,222.849178 C219.700918,218.494283 238.247338,208.278192 249.935869,192.25186 C251.166241,195.936404 252.73608,199.536557 254.497169,203.006142 C254.436607,203.073018 254.372857,203.138302 254.317076,203.219508 C242.472358,220.46553 228.201958,235.745081 213.164967,250.155246 C199.318504,263.425336 185.138948,278.577505 168.283493,287.941723 C167.631651,287.220419 166.390123,286.940177 165.730312,287.787272 C165.151782,288.529276 162.107728,286.882855 158.971236,284.865432 C158.45805,284.392524 157.962395,283.937131 157.495428,283.562944 C154.357342,281.047136 151.225632,278.526552 148.103484,275.988452 C146.653175,274.80857 145.215617,273.612765 143.770089,272.426514 C142.560436,271.174979 141.366721,269.909114 140.193724,268.619364 C133.45696,261.215246 126.914634,253.838197 119.497341,247.106023 C114.088168,242.197013 109.157119,237.138329 104.56235,231.877425 C102.504824,227.939708 98.9428022,224.688265 96.2621219,221.247341 C92.1311329,215.949814 88.9516101,209.954867 85.2302137,204.324553 C84.7345588,202.944043 84.5879342,201.643147 85.1074953,200.568356 M88.338018,167.190912 C86.820772,158.196103 86.7570222,148.753862 87.4933327,139.421489 C87.7308008,139.117363 87.7387695,138.679485 87.5809887,138.29256 C88.0957686,132.275321 88.9308914,126.313812 89.9206075,120.554523 C90.8290426,115.263365 91.9621958,109.984946 93.296161,104.752702 C93.5415978,104.561628 93.7679097,104.32597 93.9511905,104.017067 C102.152606,90.204009 108.19609,74.916496 112.736672,59.4968235 C114.934447,52.0337912 116.741755,44.4529299 118.155407,36.7972313 C123.637893,42.9004536 132.648931,46.8302091 139.733131,49.8651012 C154.873716,56.3504715 170.976923,60.1480674 187.39091,61.0970684 C189.924966,61.2419661 190.965682,58.3838174 190.05406,56.3966478 C190.001466,56.2820033 189.937716,56.1800972 189.881935,56.0702297 C202.607995,56.824972 215.592242,54.8393946 227.707897,50.4399155 C242.472358,64.9201408 248.058436,86.844291 252.332863,106.672996 C252.626112,108.032806 253.682765,108.758887 254.839825,108.892639 C259.874467,129.355073 265.814358,150.158256 257.314912,169.413739 C248.307061,189.817259 235.842375,206.649287 208.952697,217.338285 C167.287402,233.901217 97.3809314,220.799909 88.338018,167.190912 M74.233368,123.810742 C70.8928769,116.847687 68.3731649,109.328925 68.1086031,101.528329 C67.8599787,94.2022326 72.2411858,77.8685894 82.6483456,86.6341096 C85.4007445,88.9524742 87.4630515,92.0844957 88.9197352,95.3757455 C88.9930475,97.8183082 89.0727347,100.260871 89.1699532,102.705026 C89.2225468,104.004329 90.1166382,104.899192 91.1589479,105.173065 C90.8911987,106.136397 90.6170744,107.096544 90.3604813,108.064652 C88.4782676,103.111058 84.0396856,93.6799636 78.7962621,96.94096 C76.4391121,98.4058608 76.6558616,102.818078 76.9570795,105.152366 C77.5069218,109.446754 79.3891355,113.929032 82.2913465,117.124744 C82.984626,117.885856 83.9743421,116.917748 83.610968,116.092945 C82.4379712,113.435424 80.8346629,111.013561 79.9246341,108.233434 C79.5453226,107.075844 79.2871358,105.915069 79.1389174,104.704934 C79.0002616,103.932676 78.9492617,103.15405 78.9859179,102.370646 C78.5157629,100.506083 79.1580424,99.631919 80.9127565,99.7449711 C82.8953762,99.2402173 83.348,99.6956103 84.6086529,101.138219 C85.4326194,102.079259 86.1577738,103.249587 86.7888971,104.340301 C87.8710504,106.204865 88.7348606,108.179296 89.8664201,110.012014 C87.6558948,118.831672 86.1067739,127.831258 85.3354009,136.875428 C79.680791,134.1367 77.0734229,129.726075 74.233368,123.810742 M260.687278,104.141266 C261.978212,101.408907 262.142368,100.921669 265.218297,101.985314 C268.405789,103.088766 268.128477,103.427923 267.519666,106.837001 C266.663824,111.620221 263.992707,115.616852 261.873025,119.873026 C261.192495,121.240797 263.04124,122.32355 263.890707,121.06883 C266.974605,116.510123 274.75049,102.252817 267.744384,97.7912394 C265.293203,96.2308016 262.655554,97.9361372 260.92634,99.8596155 C261.353464,97.7753165 261.582963,95.6305108 261.715244,93.4363443 C261.783775,92.2994539 261.837962,91.159379 261.89215,90.0193041 C263.60702,88.1069717 265.763358,86.810853 268.600226,86.9032055 C277.781795,87.2057393 276.900453,99.8898689 275.636613,105.940546 C274.603866,110.898916 272.837995,115.68532 270.378846,120.09913 C267.978665,124.406256 264.722642,127.786674 261.684963,131.522171 C261.015589,125.172145 260.137436,118.694736 258.967626,112.287387 C259.235375,109.51363 259.488781,106.674588 260.687278,104.141266 M256.322008,206.427959 C256.487758,206.724124 256.642351,207.031435 256.811288,207.326007 C242.542482,231.979331 220.759165,250.47211 198.829224,267.996781 C198.671443,268.012704 198.515256,268.028627 198.357475,268.041365 C203.769836,263.153055 209.159884,258.239269 214.447932,253.214022 C229.657048,238.76405 243.944979,223.4431 256.322008,206.427959 M308.963431,240.631799 C312.965326,244.733521 316.787128,249.024725 320.460712,253.468788 C320.371463,253.507003 320.282213,253.54681 320.191369,253.604132 C310.310146,259.903205 299.125238,262.903067 287.964236,265.977766 C276.176893,269.224432 264.319424,272.230663 252.38705,274.880223 C229.111987,280.04559 206.103079,282.19358 182.536361,284.185527 C183.631264,283.389385 184.64648,282.637827 185.532603,282.005691 C190.84137,278.212872 196.075231,274.23694 201.224624,270.133626 C219.077764,270.448898 237.866432,264.500127 254.844606,260.259876 C273.215713,255.669323 291.599571,250.031048 308.407213,241.090377 C308.646275,240.962994 308.827962,240.805358 308.963431,240.631799 M352.759564,296.32828 C339.945848,303.681445 326.462759,310.376997 314.069792,318.368667 C313.939105,318.453058 313.837105,318.556556 313.759012,318.674385 C313.199607,317.704685 312.632233,316.741353 312.048922,315.787576 C311.978798,315.344921 311.726986,314.915004 311.357237,314.684123 C310.14599,312.74313 308.894899,310.838759 307.611934,308.978972 C321.777146,305.345381 335.277767,296.817111 346.85633,287.991084 C348.838949,290.758473 350.804038,293.5386 352.759564,296.32828 M294.31372,313.870466 C296.248527,313.610924 298.168991,313.109355 300.067142,312.696953 C301.853731,312.308436 303.769413,312.153985 305.398221,311.373766 C306.182344,312.763829 306.93778,314.173 307.690028,315.582171 C303.096852,317.324129 298.234334,319.419574 294.246782,322.132825 C294.336032,319.261938 294.347188,316.481811 294.31372,313.870466 M292.041038,341.555498 C294.723312,342.525198 298.664645,339.819909 301.099889,338.866131 C305.995876,336.945837 310.805801,334.829693 315.593413,332.648264 C316.761629,335.757994 317.854938,338.890015 318.97056,342.015668 C308.547463,347.212881 297.765773,351.287534 286.834271,355.228435 C289.239233,351.303457 290.907885,346.595075 292.041038,341.555498 M249.250558,354.674321 C249.586839,353.480108 248.672029,351.860756 247.10697,352.067753 C243.925854,347.760626 241.594204,342.517237 239.836302,336.992014 C239.810802,336.734064 239.72474,336.477706 239.598834,336.242048 C237.995526,331.033689 236.881497,325.605595 236.025656,320.502327 C252.367925,328.761501 273.888274,327.482897 291.01626,322.462428 C290.418605,341.302325 286.319491,364.009878 266.397669,362.845919 C264.453299,362.732867 262.633241,362.430333 260.931121,361.965387 C260.701622,361.810935 260.429091,361.718583 260.119904,361.710621 C255.765791,360.350811 252.194207,357.884364 249.250558,354.674321 M42.5560773,347.193773 C52.2396766,350.591706 61.9997756,353.806526 71.8379681,356.720405 C90.1899505,362.158053 109.032807,366.352127 128.184849,367.240621 C148.235765,368.168923 168.653242,365.756613 188.614907,364.016248 C208.071355,362.318873 227.384366,359.842873 246.557128,356.089861 C248.880809,358.819034 251.57424,361.113515 254.688419,362.814074 C235.357877,366.837774 215.687866,368.625908 196.04495,370.428373 C174.669632,372.388474 153.252876,373.988718 131.777152,373.995088 C91.1812604,374.007826 53.0237995,366.509763 16.3548971,348.911847 C18.2243609,345.184312 20.1193246,341.46633 22.0461632,337.767456 C28.0035848,342.520422 35.45594,344.700258 42.5560773,347.193773 M234.847878,312.760645 C253.481953,314.655462 272.802933,311.747953 290.949322,307.471079 C291.043353,310.770291 291.140572,314.733484 291.092759,318.997619 C282.110408,321.750677 272.879433,323.185324 263.476333,322.975143 C253.810265,322.758592 245.001632,320.136102 235.654313,318.218992 C235.357877,316.330544 235.093315,314.501011 234.847878,312.760645 M236.416124,335.570105 C219.029951,338.877277 201.079593,339.536482 183.462327,340.745026 C165.647437,341.967899 147.800672,342.888239 129.93797,342.732195 C96.5442149,342.440807 58.944565,340.579428 28.7845203,324.604049 C30.6970152,320.86696 32.7131035,317.169678 34.9746288,313.735122 C42.2102345,316.747722 49.9526514,319.857452 57.6759433,321.11854 C65.9809525,322.473574 74.064431,322.487904 82.2738153,324.812638 C98.1953355,329.320392 113.026733,332.05912 129.585752,332.75654 C164.417065,334.22144 199.293004,332.339362 233.821506,327.559327 C234.063755,327.525889 234.255004,327.446275 234.41916,327.344368 C234.970596,330.083096 235.632001,332.845708 236.416124,335.570105 M374.955661,323.206024 C358.62933,298.167367 341.128407,273.421691 322.017802,250.488033 C306.513843,231.882202 286.050148,213.887807 262.948803,205.259223 C259.80753,202.873983 257.781879,200.910697 256.076571,197.215007 C254.683638,194.200815 253.81664,191.03854 252.806205,187.908111 C254.146545,185.733052 255.389667,183.483155 256.470227,181.113838 C262.644398,167.569875 263.552833,152.35083 262.276242,137.679531 C262.194961,136.736899 262.107305,135.789491 262.018056,134.838897 C262.078618,134.808644 262.142368,134.776798 262.206118,134.733807 C273.324088,127.203898 283.214874,105.349809 278.156325,91.9873664 C276.341049,87.1914088 271.953467,83.6597242 266.724387,84.6294248 C264.917079,84.9653966 263.374333,85.7089929 262.040368,86.7248697 C262.223649,82.1040633 262.320867,77.4737032 262.333617,72.8560813 C262.371867,59.651275 261.327964,46.4560225 257.702192,33.7257167 C257.622505,33.4438825 257.510943,33.1970786 257.385037,32.9709743 C264.000675,27.1384402 269.73816,20.3011753 274.214992,12.5387937 C274.610241,11.8541118 274.732959,11.1964988 274.666022,10.5978002 C275.258895,9.39721854 275.113864,7.86544191 273.606181,7.04541596 C245.933973,-7.99847764 214.599338,-17.0904159 182.996953,-14.5873464 C168.331305,-13.4265718 153.911093,-9.94902481 140.453504,-3.89675559 C131.149216,0.287765193 118.759437,6.68555991 114.95676,17.119793 C111.818674,14.6262772 106.471657,16.1055085 103.265041,18.7359607 C96.9809012,23.8869975 93.4332231,31.9837586 91.5733218,39.762063 C89.4137963,48.8014559 89.1157659,58.2373274 88.8352666,67.4884939 C88.6057672,75.0024793 88.6312672,82.506911 88.7906417,90.0113427 C86.6837099,86.9334589 84.0763418,84.3428138 81.7638167,83.0817253 C74.220618,78.967265 67.7531978,86.0003808 66.1929207,93.0860419 C63.9298017,103.365824 66.8670751,114.113737 71.0028454,123.487509 C73.4396826,129.007955 77.894202,139.474034 85.0915578,139.867328 C84.6277778,146.859045 84.6293716,153.865092 85.1521202,160.821778 C85.6669001,167.676558 86.5737414,172.517099 89.0424536,178.594845 L89.0408598,178.596438 C89.8855451,180.182352 90.5644808,181.699798 91.0250733,183.272974 C91.5589781,184.417826 92.1375078,185.537201 92.7351625,186.647022 C92.6283815,186.734598 92.5184131,186.815804 92.4275696,186.943187 C89.8839513,190.50831 87.1299587,193.640331 83.717749,196.379059 C81.2219431,198.382151 78.2432323,199.998319 75.7633639,202.079433 C48.9485916,214.572489 25.9444653,236.14156 6.81792249,258.441489 C2.52277768,263.447628 -1.60502383,268.598665 -5.63082561,273.829316 C-6.19979285,273.835685 -6.59663554,274.396168 -6.50260454,274.945506 C-11.4320602,281.394254 -16.1925787,287.978346 -20.785754,294.673898 C-25.7008659,301.835988 -30.4725407,309.123869 -34.4983425,316.844852 C-37.767115,323.112079 -41.9092603,330.763001 -42.9786637,337.956937 C-43.4934436,337.683065 -44.0130047,337.420338 -44.5277845,337.141688 C-45.6418128,336.538213 -46.6155915,338.211703 -45.5206882,338.861354 C-20.1625994,353.89251 8.25069993,362.809297 36.5954682,370.046225 C65.9745775,377.547472 95.7138733,384.394291 125.926512,387.2811 C181.479707,392.588181 238.094338,385.523219 290.868041,367.235845 C320.283807,357.042046 348.434138,343.338855 374.662412,326.438359 C375.105473,326.318938 375.499128,326.032327 375.711097,325.646994 C376.35497,324.790346 375.843377,323.513335 374.955661,323.206024" id="Fill-12" stroke="none" fill="#3C3C3B" fill-rule="evenodd" mask="url(#mask-4)"></path>
                                    <path d="M196.691,270 C196.719,270.003 196.747,270.003 196.776,270.006 C196.517,270.212 196.258,270.418 196,270.623 C196.231,270.416 196.461,270.208 196.691,270" id="Fill-15" stroke="none" fill="#3C3C3B" fill-rule="evenodd" mask="url(#mask-4)"></path>
                                    <path d="M132.365956,189.290931 C131.27221,190.304631 129.42021,191.911627 130.176524,193.514984 C130.341362,193.86441 130.942534,194.101001 131.320691,193.957227 C132.689814,193.440367 132.912829,191.658657 133.762228,190.619478 C134.520481,189.691315 133.304561,188.421005 132.365956,189.290931" id="Fill-17" stroke="none" fill="#3C3C3B" fill-rule="evenodd" mask="url(#mask-4)"></path>
                                    <path d="M148.476698,193.832699 C148.265087,195.432287 148.013667,197.098783 148.000049,198.735716 C147.995858,199.264762 148.262992,199.837377 148.616027,199.954079 C148.68831,199.977419 148.764783,199.994535 148.839162,199.999203 C149.195339,200.020988 149.56304,199.593082 149.647895,199.071816 C149.904552,197.476896 149.94017,195.776167 149.998834,194.142347 C150.045976,192.84307 148.648502,192.534979 148.476698,193.832699" id="Fill-19" stroke="none" fill="#3C3C3B" fill-rule="evenodd" mask="url(#mask-4)"></path>
                                    <path d="M176.218048,197.06088 C176.154458,198.480377 175.744117,200.059631 176.246844,201.400915 C176.546801,202.199695 177.45267,202.199695 177.752627,201.400915 C178.256554,200.059631 177.845014,198.478713 177.781423,197.06088 C177.717832,195.648038 176.281639,195.64471 176.218048,197.06088" id="Fill-21" stroke="none" fill="#3C3C3B" fill-rule="evenodd" mask="url(#mask-4)"></path>
                                    <path d="M207.558787,182.043856 C207.185395,182.20636 206.899534,182.897866 207.033601,183.508119 C207.190935,184.230742 207.244119,184.856555 207.268494,185.613753 C207.293978,186.386511 207.312814,187.124693 207.665154,187.712473 C207.919992,188.139477 208.307787,188.049582 208.569273,187.712473 C209.40802,186.635453 208.821894,184.154677 208.483958,182.875392 C208.327731,182.282426 207.985363,181.858879 207.558787,182.043856" id="Fill-23" stroke="none" fill="#3C3C3B" fill-rule="evenodd" mask="url(#mask-4)"></path>
                                    <path d="M164.994989,182.120886 C165.093508,180.84274 163.708388,180.546805 163.555919,181.815874 C163.476166,182.474918 163.26271,182.966932 163.112587,183.584219 C162.964809,184.192427 162.978884,184.747985 163.060982,185.383428 C163.114933,185.813713 163.456228,186.098754 163.716598,185.968034 C164.853076,185.392505 164.871841,183.720385 164.994989,182.120886" id="Fill-25" stroke="none" fill="#3C3C3B" fill-rule="evenodd" mask="url(#mask-4)"></path>
                                    <path d="M142.818799,176.335241 C142.459316,177.063741 141.803233,178.276198 142.056863,179.280023 C142.172149,179.740039 142.445691,180.138491 142.77478,179.953801 C143.332346,179.640853 143.4644,178.67978 143.805018,177.966671 C144.039783,177.474164 144.089041,176.817488 143.805018,176.335241 C143.560821,175.923108 143.056707,175.854704 142.818799,176.335241" id="Fill-27" stroke="none" fill="#3C3C3B" fill-rule="evenodd" mask="url(#mask-4)"></path>
                                    <path d="M116.452854,172.178528 C115.19308,173.163313 113.652454,174.661443 114.069673,176.536725 C114.158961,176.938322 114.610272,177.118167 114.928463,176.917369 C116.069727,176.192749 116.636301,174.801129 117.68016,173.914124 C118.581159,173.15109 117.387945,171.446924 116.452854,172.178528" id="Fill-29" stroke="none" fill="#3C3C3B" fill-rule="evenodd" mask="url(#mask-4)"></path>
                                    <path d="M198.044095,202.396692 C198.021982,203.5745 197.948662,204.776628 198.060388,205.944012 C198.196555,207.351127 199.802625,207.352864 199.939955,205.944012 C200.051682,204.776628 199.977197,203.5745 199.956249,202.396692 C199.922498,200.536173 198.077845,200.532699 198.044095,202.396692" id="Fill-31" stroke="none" fill="#3C3C3B" fill-rule="evenodd" mask="url(#mask-4)"></path>
                                    <path d="M192.234245,181.189429 C191.661189,180.658799 190.670871,181.342666 191.108453,182.013868 C191.376692,182.425455 191.57584,182.909227 192.135349,182.989012 C192.593252,183.054866 192.961743,182.821844 192.996966,182.3672 C193.040318,181.81884 192.610864,181.537694 192.234245,181.189429" id="Fill-33" stroke="none" fill="#3C3C3B" fill-rule="evenodd" mask="url(#mask-4)"></path>
                                    <path d="M219.030214,165.334945 C219.252008,166.420698 219.420485,168.313721 220.124254,168.887264 C220.465475,169.165747 220.798166,168.90384 220.932522,168.370081 C221.217228,167.231283 220.526256,165.558726 220.247947,164.526018 C219.952577,163.431977 218.799889,164.212724 219.030214,165.334945" id="Fill-35" stroke="none" fill="#3C3C3B" fill-rule="evenodd" mask="url(#mask-4)"></path>
                                    <path d="M165.34418,209.924965 C165.031949,210.87739 164.452338,211.694974 164.071105,212.618383 C163.689873,213.541792 164.930172,214.321825 165.687462,213.866095 C166.88291,213.147509 167.469421,211.920279 167.919655,210.636724 C168.487191,209.013504 165.880665,208.286383 165.34418,209.924965" id="Fill-39" stroke="none" fill="#3C3C3B" fill-rule="evenodd" mask="url(#mask-4)"></path>
                                    <path d="M133.285246,203.991145 C133.285246,204.791293 132.854631,205.494903 133.051567,206.29505 C133.179429,206.816724 133.570362,207.087772 133.984811,206.974526 C135.100293,206.664492 135.132626,204.830279 134.851919,203.720097 C134.581498,202.645189 133.283776,202.804847 133.285246,203.991145" id="Fill-41" stroke="none" fill="#3C3C3B" fill-rule="evenodd" mask="url(#mask-4)"></path>
                                    <path d="M114.613073,191.588004 C114.45423,192.171414 114.343683,192.734992 114.224551,193.338235 C114.109712,193.921645 113.970188,194.480265 114.005605,195.100035 C114.047463,195.843759 114.614146,196.326353 114.987642,195.736332 C115.272057,195.288445 115.390116,194.772796 115.541446,194.197649 C115.69385,193.62085 115.858059,193.085368 115.971825,192.482126 C116.202577,191.255807 114.950078,190.356727 114.613073,191.588004" id="Fill-43" stroke="none" fill="#3C3C3B" fill-rule="evenodd" mask="url(#mask-4)"></path>
                                    <path d="M134.428045,244.248208 C133.148698,242.820063 130.969701,242.437861 129.681853,244.057893 C128.582437,245.440426 128.817622,247.609381 130.350571,248.444563 C131.472655,249.0564 133.713991,248.391086 133.060859,246.583885 C132.885179,246.104167 132.277383,246.275607 132.362389,246.800938 C131.945858,247.411203 131.510908,247.574779 131.057541,247.290093 C130.670761,247.170557 130.398741,246.871716 130.244313,246.395144 C130.116803,245.909134 130.359071,245.213936 130.642426,244.852181 C131.567579,243.672546 133.189785,244.295393 133.978928,245.294151 C135.312112,246.980243 135.076927,249.413436 134.982004,251.49274 C134.952251,252.176928 135.870321,252.1612 135.919908,251.49274 C136.102671,249.032808 136.106922,246.119895 134.428045,244.248208" id="Fill-47" stroke="none" fill="#3C3C3B" fill-rule="evenodd" mask="url(#mask-4)"></path>
                                    <path d="M147.901701,253.343957 C147.112662,250.706453 144.283374,250.271001 142.46965,252.158475 C139.699653,255.040824 141.440403,259.75021 142.854287,262.866556 C142.983513,263.148592 143.362069,262.93629 143.313419,262.666651 C142.930302,260.534333 141.961868,258.403564 141.978591,256.212359 C141.990754,254.763436 142.42252,253.142503 143.726942,252.325837 C144.95991,251.524668 146.031725,251.794307 146.940868,253.134754 C147.632607,254.236555 147.479056,254.994334 146.493898,255.41274 C146.509101,255.338356 146.506061,255.256225 146.460451,255.175643 C145.587796,253.613596 143.834884,255.515017 145.111941,256.655559 C147.156751,258.481046 148.363874,254.885859 147.901701,253.343957" id="Fill-49" stroke="none" fill="#3C3C3B" fill-rule="evenodd" mask="url(#mask-4)"></path>
                                    <path d="M156.302219,263.721858 C155.376687,261.849441 153.048928,261.506036 151.411449,262.682317 C149.87457,263.787121 149.407161,266.313719 150.95023,267.646942 C152.293645,268.806131 154.458894,267.949947 153.949697,266.041791 C153.804212,265.497935 153.017974,265.622245 152.999401,266.172316 C151.123574,266.002944 150.738194,265.263301 151.846356,263.953386 C152.380316,263.465469 152.996306,263.235496 153.69742,263.261912 C155.03,263.373791 155.368949,264.45684 155.585628,265.555429 C155.969461,267.508647 155.811594,269.530236 155.368949,271.455485 C155.242036,272.011771 156.028274,272.22776 156.206261,271.690119 C156.992499,269.312694 157.464551,266.072868 156.302219,263.721858" id="Fill-51" stroke="none" fill="#3C3C3B" fill-rule="evenodd" mask="url(#mask-4)"></path>
                                    <path d="M166.864665,249.609215 C165.37235,248.370645 163.332515,249.129409 162.548075,250.905171 C161.324463,253.678804 162.431059,258.02735 163.146156,260.797795 C163.222722,261.099069 163.692231,261.05603 163.654671,260.719687 C163.430751,258.63468 163.182273,256.543297 163.123042,254.44235 C163.095594,253.442886 163.023362,252.250543 163.501538,251.354691 C164.837832,249.591681 165.974766,249.872232 166.915228,252.197939 C166.668194,252.767012 166.533842,253.359996 166.451498,253.962544 C166.389378,253.921099 166.330148,253.873277 166.24058,253.874871 C166.041219,253.881248 165.841859,253.887624 165.642498,253.894 C165.47492,253.898782 165.278448,253.996019 165.201882,254.176145 C164.554683,255.722366 166.197241,256.259558 167.065471,255.167639 C168.283304,253.637359 168.406099,250.889231 166.864665,249.609215" id="Fill-53" stroke="none" fill="#3C3C3B" fill-rule="evenodd" mask="url(#mask-4)"></path>
                                    <path d="M177.62641,261.548093 C177.14253,259.874919 175.714138,258.426081 174.038721,259.226837 C172.581267,259.924771 171.475463,262.432974 172.260133,264.062527 C172.883511,265.357134 174.669364,265.910185 175.408988,264.498737 C175.581907,264.166906 175.294194,263.740044 174.948358,263.847538 C174.091032,264.257264 173.528685,263.690192 173.258409,262.146323 C173.736477,260.166244 174.824845,260.077445 176.523512,261.878366 C176.911488,262.556048 176.806865,263.736928 176.814131,264.501852 C176.838833,266.54113 176.526418,268.588198 176.248877,270.597876 C176.193659,271.004485 176.693524,271.171179 176.824302,270.770802 C177.732486,267.968158 178.47647,264.492505 177.62641,261.548093" id="Fill-55" stroke="none" fill="#3C3C3B" fill-rule="evenodd" mask="url(#mask-4)"></path>
                                    <path d="M194.726149,260.20124 C194.108788,258.611006 192.501292,258.77198 191.44338,259.687422 C190.435564,260.557335 189.539727,262.233748 190.261701,263.633739 C190.706672,264.497148 192.412887,265.389826 192.765033,263.996338 C192.826916,263.744308 192.683995,263.532927 192.482137,263.443496 C191.847095,263.158945 191.107441,263.337806 191.344661,262.163829 C191.477268,261.497167 192.605904,259.915063 193.385341,260.445141 C193.936398,260.820748 193.743381,262.045131 193.718333,262.615859 C193.675604,263.583333 193.656449,264.554059 193.681497,265.521532 C193.694758,266.04348 194.447673,266.212585 194.534605,265.649987 C194.779192,264.061379 195.331722,261.76058 194.726149,260.20124" id="Fill-57" stroke="none" fill="#3C3C3B" fill-rule="evenodd" mask="url(#mask-4)"></path>
                                    <path d="M188.220149,249.031936 C186.702114,248.82112 185.549155,249.669326 185.231624,251.123628 C184.717122,253.468957 185.202758,256.295211 185.325015,258.670187 C185.34709,259.108289 186.00083,259.111583 186.019508,258.670187 C186.092523,257.000128 186.12988,255.331716 186.151954,253.66001 C186.160444,252.986386 186.038186,252.049242 186.274212,251.405265 C187.449246,248.188672 191.658651,252.306175 188.485041,253.360255 C187.980728,253.528249 188.072421,254.239754 188.610695,254.267753 C190.050621,254.341868 191.135659,253.123087 190.986233,251.708313 C190.841901,250.324832 189.597248,249.222989 188.220149,249.031936" id="Fill-59" stroke="none" fill="#3C3C3B" fill-rule="evenodd" mask="url(#mask-4)"></path>
                                    <path d="M208.906031,248.932112 C208.489348,247.865592 207.236042,247.882947 206.308271,248.160621 C205.255168,248.477737 204.335535,248.963665 204.12231,250.107491 C203.855372,251.544768 204.075108,253.321248 204.307865,254.753791 C204.374599,255.168724 204.9394,255.004644 204.986603,254.663863 C205.14937,253.453774 204.975209,252.229486 205.108678,251.027285 C205.1982,250.203731 205.44235,249.369132 206.394537,249.249227 C206.93004,248.952622 207.301149,249.194008 207.509491,249.973388 C207.406948,250.088559 207.330447,250.221085 207.279989,250.36781 C207.133499,250.653372 207.37765,251.054106 207.729226,250.94209 C208.569104,250.67546 209.257608,249.829818 208.906031,248.932112" id="Fill-61" stroke="none" fill="#3C3C3B" fill-rule="evenodd" mask="url(#mask-4)"></path>
                                    <path d="M167.091806,275.260067 C165.34822,274.434624 163.724292,275.697162 163.261045,277.318799 C162.522585,279.907245 163.495233,283.225264 164.385829,285.652846 C164.606342,286.255679 165.587536,286.013571 165.392665,285.38474 C164.830273,283.566491 164.493521,281.733618 164.455915,279.834125 C164.445658,279.291412 164.353351,278.163741 164.602923,277.676274 C166.828559,276.915827 167.808044,277.361046 167.539669,279.011932 C167.664455,279.380781 167.645651,279.68626 167.495224,279.936493 C167.430267,279.89587 167.368729,279.848749 167.281549,279.843874 C167.098644,279.83575 166.915738,279.82925 166.734542,279.821126 C166.555055,279.813001 166.344799,279.923493 166.264458,280.081108 L166.129415,280.34109 C166.03198,280.527952 165.994373,280.779809 166.129415,280.965046 C167.020012,282.185337 168.392658,281.691371 168.792657,280.360588 C169.307186,278.646332 168.908896,276.119632 167.091806,275.260067" id="Fill-63" stroke="none" fill="#3C3C3B" fill-rule="evenodd" mask="url(#mask-4)"></path>
                                    <path d="M181.651757,274.917333 C182.479923,274.573885 181.672679,273.727647 180.875896,274.087244 C180.025064,274.470527 179.732155,275.227404 180.274386,275.7991 C180.712006,276.258824 181.834825,275.848625 181.421614,275.379211 C181.236802,275.168189 181.367565,275.035763 181.651757,274.917333" id="Fill-65" stroke="none" fill="#3C3C3B" fill-rule="evenodd" mask="url(#mask-4)"></path>
                                    <path d="M198.826933,243.147177 C197.873318,242.582857 197.10724,243.770659 197.004279,244.526119 C196.928284,245.076785 197.888027,245.182595 198.025308,244.656959 C198.156461,244.156353 198.671266,244.002758 198.951957,243.595447 C199.056144,243.442989 198.980149,243.238196 198.826933,243.147177" id="Fill-67" stroke="none" fill="#3C3C3B" fill-rule="evenodd" mask="url(#mask-4)"></path>
                                    <path d="M135.152576,258.279883 C134.984576,258.813016 134.914576,259.381468 135.157576,259.865829 C135.295576,260.139965 135.527576,259.953284 135.590576,259.670739 C135.652576,259.391559 135.636576,259.119106 135.729576,258.855062 C135.951576,258.224383 135.355576,257.634067 135.152576,258.279883" id="Fill-69" stroke="none" fill="#3C3C3B" fill-rule="evenodd" mask="url(#mask-4)"></path>
                                    <path d="M151.909528,246.076577 C151.806528,245.860477 151.810528,245.64722 151.814528,245.392735 C151.818528,245.061476 151.577528,244.922149 151.392528,245.042994 C150.925528,245.350083 150.912528,246.149084 151.158528,246.709237 C151.458528,247.394501 152.225528,246.739093 151.909528,246.076577" id="Fill-71" stroke="none" fill="#3C3C3B" fill-rule="evenodd" mask="url(#mask-4)"></path>
                                    <path d="M187.844966,138.861773 C186.426423,142.485613 183.224705,145.380227 179.200968,145.658861 C176.034434,145.876992 173.498008,144.477451 171.198273,142.563631 C170.985571,141.20071 169.015284,140.375952 168.268429,141.904461 C164.27028,150.083576 150.321538,158.496744 142.958547,148.583727 C138.296705,142.305695 146.820759,129.529907 149.904132,124.125991 C157.393464,111.001513 167.264094,100.421365 177.008383,89.0355659 C177.408198,88.5690522 176.862851,87.6837908 176.295113,88.1152761 C167.449609,94.8582296 160.180974,104.04839 153.857501,113.13028 C148.196122,121.263222 140.695595,131.555182 139.185894,141.64971 C138.016835,149.468988 142.432391,155.205673 150.441483,155.923754 C158.597707,156.65298 166.008676,152.078599 170.080391,145.322908 C176.253533,151.940078 187.972907,148.117213 190.901151,139.700861 C191.579237,137.756788 188.572629,137.003679 187.844966,138.861773" id="Fill-73" stroke="none" fill="#3C3C3B" fill-rule="evenodd" mask="url(#mask-4)"></path>
                                    <path d="M112.764256,87.4194616 C112.569435,87.6779657 112.610022,88.1172643 113.001288,88.1949741 C121.229239,89.8205372 131.028748,88.796036 139.164159,86.7977828 C145.335122,85.2832337 150.11636,81.6181836 149.997844,74.8812156 C149.924786,70.6325487 147.611283,62.0654346 141.971208,62.000412 C137.482202,61.9496627 136.085983,66.5963944 135.639518,70.7166022 C134.110171,68.175966 131.793421,66.0857297 128.642188,67.371907 C125.685775,68.5756166 125.464978,72.1899175 125.880596,75.4664184 C123.709963,73.658475 120.673999,73.1176779 117.621799,74.424472 C112.498,76.6162069 110.9719,82.3445328 112.655481,87.2339095 C112.679833,87.3084475 112.728539,87.3560249 112.764256,87.4194616" id="Fill-2" stroke="none" fill="#3C3C3B" fill-rule="evenodd" mask="url(#mask-4)"></path>
                                    <path d="M190.455037,74.1504024 C193.045908,88.3717705 215.137678,92.6624138 226.857899,88.4636337 C227.604831,88.1943796 227.825845,87.5212443 227.664521,86.9573945 C227.756476,86.8291029 227.837138,86.6833889 227.888762,86.505998 C229.127734,82.2897955 230.497378,71.5766499 224.952657,69.3133316 C222.081082,68.1428682 219.632177,70.1464355 217.944723,72.7835419 C217.609168,68.5419978 216.158862,64.2497707 212.114458,63.3232198 C208.308814,62.4505197 205.630828,65.244427 204.243438,68.6148548 C203.025438,64.547534 200.545882,60.9490322 195.870699,62.2826319 C190.924492,63.6938402 188.920842,69.2087977 190.563125,73.665745 C190.469557,73.7924528 190.419546,73.9555891 190.455037,74.1504024" id="Fill-4" stroke="none" fill="#3C3C3B" fill-rule="evenodd" mask="url(#mask-4)"></path>
                                    <path d="M143.992858,101.173471 C143.955536,99.6096323 141.573462,99.6080542 141.528028,101.173471 C141.372252,106.807076 140.109818,115.435802 132.684497,115.836624 C125.2608,116.237446 123.053974,106.379427 122.937142,100.943077 C122.930651,100.644827 122.477927,100.569081 122.398416,100.870487 C120.738429,107.271019 124.321276,117.540908 132.106828,117.981181 C141.201872,118.4972 144.166483,108.288856 143.992858,101.173471" id="Fill-6" stroke="none" fill="#3C3C3B" fill-rule="evenodd" mask="url(#mask-4)"></path>
                                    <path d="M222.794981,101.002619 C222.598943,99.4299477 220.118974,99.3842488 220.291106,101.002619 C220.9621,107.290152 219.562735,120.590097 210.251696,118.152299 C202.56475,116.139973 201.60687,105.994826 201.686561,99.5434069 C201.69453,98.9225327 200.747807,98.7807087 200.597989,99.3968554 C198.658322,107.361064 201.273764,119.409805 210.852563,120.867441 C221.521527,122.492115 223.767205,108.795063 222.794981,101.002619" id="Fill-8" stroke="none" fill="#3C3C3B" fill-rule="evenodd" mask="url(#mask-4)"></path>
                                    <path d="M203.884734,151.040025 C201.004378,158.870277 194.940974,164.981768 187.133107,168.290499 C177.743274,172.267721 168.702334,170.943002 159.012995,169.182844 C158.190947,169.034119 157.550514,170.17025 158.404425,170.59189 C176.489491,179.493877 200.046915,170.159517 206.898912,151.851108 C207.587138,150.006621 204.560216,149.201671 203.884734,151.040025" id="Fill-10" stroke="none" fill="#3C3C3B" fill-rule="evenodd" mask="url(#mask-4)"></path>
                                </g>
                            </g>
                        </g>
                    </g>
                </g>
            </g>
        </g>
    </g>
</svg>