<?xml version="1.0" encoding="UTF-8" standalone="no"?>
<svg width="192px" height="238px" viewBox="0 0 192 238" version="1.1" xmlns="http://www.w3.org/2000/svg" xmlns:xlink="http://www.w3.org/1999/xlink">
    <!-- Generator: Sketch 46.2 (44496) - http://www.bohemiancoding.com/sketch -->
    <title>Betreuungsproblem</title>
    <desc>Created with Sketch.</desc>
    <defs>
        <polygon id="path-1" points="0.709097802 63.2142857 61.466892 63.2142857 61.466892 0.275595416 0.709097802 0.275595416"></polygon>
    </defs>
    <g id="home" stroke="none" stroke-width="1" fill="none" fill-rule="evenodd">
        <g id="Mobile-Portrait-Copy-2" transform="translate(-67.000000, -1155.000000)">
            <g id="betreuungsproblem" transform="translate(10.000000, 1122.000000)">
                <g id="Betreuungsproblem" transform="translate(57.500000, 33.571429)">
                    <rect id="Rectangle-7" fill="#4E1029" transform="translate(93.035714, 118.392857) rotate(-90.000000) translate(-93.035714, -118.392857) " x="-25.3571429" y="110.357143" width="236.785714" height="16.0714286"></rect>
                    <path d="M0.45832266,58.9201456 L13.4019718,32.5511819 C13.9541865,31.425132 15.0990677,30.7124064 16.3521341,30.7142894 L43.7483802,30.7397103 C44.9835725,30.7406518 46.1134019,31.4354886 46.6731425,32.5380007 L59.5104879,57.8355222 C60.5208433,59.8258814 59.9253545,62.2549858 58.1097253,63.5514496 C55.8745257,65.1482562 52.744682,64.3912795 51.4850304,61.948994 L42.8142248,45.1458057 L41.0192918,62.2691085 L45.2291058,98.1520643 C45.6326835,101.593295 42.9449877,104.616495 39.4830625,104.614612 L39.4708329,104.614612 C36.551715,104.612729 34.0907378,102.434067 33.7341971,99.5342058 L30.1998349,70.820874 L26.7755393,99.541738 C26.4293468,102.451956 23.9627251,104.642857 21.0341998,104.642857 C17.5835635,104.642857 14.9005715,101.638488 15.2881566,98.2066721 L19.3286372,62.3623183 L17.4132894,45.2634948 L8.44050615,62.9140451 C7.34924713,65.061637 4.75374397,65.9551332 2.5731074,64.9345327 C0.310626395,63.8762717 -0.643284514,61.1637718 0.45832266,58.9201456" id="Fill-1" fill="#4E1029"></path>
                    <path d="M42.857051,14.0594955 C42.8830424,20.8644102 37.3882816,26.4024883 30.5833651,26.4284796 C23.7784485,26.4544709 18.2403689,20.9587491 18.2143775,14.1538344 C18.1883862,7.34891978 23.683147,1.81180434 30.4880635,1.78581301 C37.2929801,1.75885904 42.8310597,7.25458089 42.857051,14.0594955" id="Fill-3" fill="#4E1029"></path>
                    <path d="M168.571334,14.0599564 C168.597759,20.8642504 163.102211,26.4020587 156.29766,26.4284832 C149.492165,26.4539639 143.954148,20.9595672 143.928666,14.1543294 C143.902241,7.35003528 149.397789,1.812227 156.20234,1.78580256 C163.007835,1.76032184 168.544908,7.25471854 168.571334,14.0599564" id="Fill-5" fill="#4E1029"></path>
                    <path d="M124.444779,58.0812916 L144.243103,32.1358248 C144.926328,31.239513 145.98775,30.7142857 147.113789,30.7142857 L167.322619,30.7142857 C168.437254,30.7142857 169.490124,31.2290465 170.1743,32.1101343 L190.175026,57.8491259 C191.623197,59.7131119 191.280159,62.4010957 189.41008,63.8397618 C187.755706,65.1128671 185.423808,64.9958327 183.904369,63.5638272 L169.775197,47.2637028 L176.101919,74.7677245 L167.277007,74.7677245 L168.165485,102.392586 C168.239604,104.757061 166.35242,106.7181 163.989164,106.730469 L163.986314,106.730469 C161.815007,106.741887 159.99339,105.094843 159.784337,102.931135 L157.394474,77.5660822 L155.086332,102.972049 C154.884881,105.125291 153.08607,106.774238 150.926166,106.785656 C148.552458,106.798026 146.639618,104.83889 146.706135,102.462997 L147.495787,74.8552623 L138.701283,74.8590683 L144.803747,47.3702706 L130.762948,63.7493694 C129.256812,65.1880355 126.930616,65.3240998 125.26769,64.069073 L125.263889,64.0662185 C123.380506,62.6446794 123.012762,59.9585985 124.444779,58.0812916" id="Fill-7" fill="#4E1029"></path>
                    <g id="Group-11" transform="translate(125.714286, 134.285714)">
                        <mask id="mask-2" fill="white">
                            <use xlink:href="#path-1"></use>
                        </mask>
                        <g id="Clip-10"></g>
                        <path d="M0.709097802,0.275595416 L21.5432077,10.8220027 L37.9613505,10.7908673 C38.6764714,10.7899238 39.3820319,10.9531487 40.0206692,11.2692201 L60.0211088,21.1476317 C61.7209549,22.4817361 61.9570978,24.9414323 60.5421527,26.5661338 C59.3547462,27.9285432 57.6415154,27.8794813 55.7705374,27.3992415 L39.9795593,21.9090336 L46.2062736,44.7492042 L39.5063176,44.8360059 L39.1793505,59.695137 C39.1372846,61.607605 37.5674604,63.1436178 35.6295593,63.1681487 C33.7748341,63.1926796 32.206922,61.8227223 32.0051967,60.0046039 L30.4506692,45.079428 L28.9582846,60.0338523 C28.7661198,61.8463097 27.2144604,63.220041 25.3683396,63.2143801 C23.4227901,63.2077756 21.8348011,61.6764803 21.7831747,59.7574078 L21.3854604,44.9048811 L14.6855044,44.8831807 L20.6990209,21.9892308 L0.709097802,6.63570736 L0.709097802,0.275595416 Z" id="Fill-9" fill="#4E1029" mask="url(#mask-2)"></path>
                    </g>
                    <path d="M153.070401,139.642788 C158.100035,139.623365 162.161292,135.530662 162.142794,130.50103 C162.123371,125.471399 158.029742,121.409218 153.000109,121.428641 C147.970475,121.448064 143.909218,125.541692 143.928641,130.570398 C143.948064,135.60003 148.040768,139.662211 153.070401,139.642788" id="Fill-12" fill="#4E1029"></path>
                    <path d="M28.4275411,138.571359 C33.4571725,138.551936 37.5193536,134.459233 37.4999306,129.429602 C37.4805076,124.39997 33.3868797,120.337789 28.3572483,120.357212 C23.3276169,120.376635 19.2663607,124.469338 19.2857837,129.49897 C19.3052067,134.528601 23.3979097,138.590782 28.4275411,138.571359" id="Fill-14" fill="#4E1029"></path>
                    <path d="M38.9746741,169.328351 L41.7855402,192.320265 C42.122348,195.072419 39.988914,197.5 37.2333874,197.5 C35.0198065,197.5 33.1220426,195.908821 32.7222622,193.717468 L29.9924971,178.756351 L27.2627321,193.717468 C26.8629517,195.908821 24.9651878,197.5 22.7506527,197.5 C19.9951262,197.5 17.8626463,195.072419 18.1984999,192.320265 L21.0103202,169.328351 L19.1793453,156.138945 L8.1801381,164.090999 C6.81954915,165.073363 4.93228061,164.808326 3.89227924,163.486985 C2.88376414,162.205975 3.01352578,160.360323 4.19378422,159.235838 L18.8854733,145.226355 C19.7957131,144.358265 21.001733,143.874285 22.2554594,143.872365 L29.9924971,143.864683 L41.8924027,143.859881 L52.8916099,135.950079 C54.2521989,134.966755 56.1394674,135.232752 57.1794688,136.553133 C58.1879839,137.835103 58.0572681,139.679795 56.8779638,140.804279 L40.768438,156.165832 L38.9746741,169.328351 Z" id="Fill-16" fill="#4E1029"></path>
                </g>
            </g>
        </g>
    </g>
</svg>