<?xml version="1.0" encoding="UTF-8" standalone="no"?>
<svg width="176px" height="228px" viewBox="0 0 176 228" version="1.1" xmlns="http://www.w3.org/2000/svg" xmlns:xlink="http://www.w3.org/1999/xlink">
    <!-- Generator: Sketch 46.2 (44496) - http://www.bohemiancoding.com/sketch -->
    <title>Abgeben</title>
    <desc>Created with Sketch.</desc>
    <defs>
        <polygon id="path-1" points="0 269.201521 191.373661 269.201521 191.373661 0.346909176 0 0.346909176"></polygon>
        <polygon id="path-3" points="82.0360121 48.3693697 82.0360121 0 0.517136044 0 0.517136044 48.3693697 82.0360121 48.3693697"></polygon>
    </defs>
    <g id="home" stroke="none" stroke-width="1" fill="none" fill-rule="evenodd">
        <g id="Mobile-Portrait-Copy-2" transform="translate(-79.000000, -9695.000000)">
            <g id="abgeben" transform="translate(10.000000, 9645.000000)">
                <g id="Group-21" transform="translate(22.813688, 23.954373)">
                    <g id="Group-23">
                        <g id="Page-1-Copy">
                            <g id="Stroke-2-+-Page-1-Mask">
                                <g id="Page-1">
                                    <g id="Abgeben" transform="translate(30.798479, 26.235741)">
                                        <polygon id="Fill-1" fill="#0E0607" points="119.771863 269.201521 131.178707 269.201521 131.178707 115.209125 119.771863 115.209125"></polygon>
                                        <g id="Group-14">
                                            <path d="M191.373661,120.724393 L45.5052942,120.724393 L45.5052942,66.6065619 C45.5052942,47.4474619 61.1050785,31.9156442 80.348018,31.9156442 L156.530937,31.9156442 C175.773876,31.9156442 191.373661,47.4474619 191.373661,66.6065619 L191.373661,120.724393 Z" id="Fill-2" fill="#70C6C7"></path>
                                            <path d="M115.584883,120.735217 L45.5050154,120.735217 L45.5050154,66.6062843 C45.5050154,47.4471844 61.1047997,31.9153667 80.3477392,31.9153667 L80.7421589,31.9153667 C99.9850984,31.9153667 115.584883,47.4471844 115.584883,66.6062843 L115.584883,120.735217 Z" id="Fill-4" fill="#70C6C7"></path>
                                            <path d="M115.584883,120.735217 L45.5050154,120.735217 L45.5050154,66.6062843 C45.5050154,47.4471844 61.1047997,31.9153667 80.3477392,31.9153667 L80.7421589,31.9153667 C99.9850984,31.9153667 115.584883,47.4471844 115.584883,66.6062843 L115.584883,120.735217 Z" id="Fill-6" fill="#70C6C7"></path>
                                            <path d="M92.5747479,120.724393 L68.5088785,120.724393 L45.5126808,120.724393 L21.722069,144.314217 C21.722069,144.314217 1.31886678,160.965858 39.7204264,160.965858 C78.121986,160.965858 91.6360849,144.314217 91.6360849,144.314217 L115.570946,120.724393 L92.5747479,120.724393 Z" id="Fill-8" fill="#70C6C7"></path>
                                            <mask id="mask-2" fill="white">
                                                <use xlink:href="#path-1"></use>
                                            </mask>
                                            <g id="Clip-11"></g>
                                            <polygon id="Fill-10" fill="#454545" mask="url(#mask-2)" points="131.815599 61.7498334 135.070606 61.7498334 135.070606 5.20363765 131.815599 5.20363765"></polygon>
                                            <path d="M138.325614,61.2294696 C138.325614,64.9656815 136.252471,67.9941986 133.695016,67.9941986 C131.136863,67.9941986 129.063721,64.9656815 129.063721,61.2294696 C129.063721,57.4932578 131.136863,54.4647407 133.695016,54.4647407 C136.252471,54.4647407 138.325614,57.4932578 138.325614,61.2294696" id="Fill-12" fill="#0E0607" mask="url(#mask-2)"></path>
                                            <polygon id="Fill-13" fill="#0E0607" mask="url(#mask-2)" points="131.814902 12.4887304 152.349113 12.4887304 152.349113 0.346909176 131.814902 0.346909176"></polygon>
                                        </g>
                                        <g id="Group-19" transform="translate(33.079848, 73.003802)">
                                            <mask id="mask-4" fill="white">
                                                <use xlink:href="#path-3"></use>
                                            </mask>
                                            <g id="Clip-16"></g>
                                            <polygon id="Fill-15" fill="#DEDDD5" mask="url(#mask-4)" points="0.517136044 48.3592835 94.8036347 48.3592835 94.8036347 0 0.517136044 0"></polygon>
                                            <polygon id="Fill-17" fill="#FFFFFF" mask="url(#mask-4)" points="0.517275247 0 94.8037739 0 47.6608726 28.2497081"></polygon>
                                            <polygon id="Fill-18" fill="#FFFFFF" mask="url(#mask-4)" points="94.8040523 48.3693697 0.517553651 48.3693697 47.660455 20.1196615"></polygon>
                                        </g>
                                    </g>
                                </g>
                            </g>
                        </g>
                    </g>
                </g>
            </g>
        </g>
    </g>
</svg>