<?xml version="1.0" encoding="UTF-8"?>
<svg width="223px" height="223px" viewBox="0 0 223 223" version="1.1" xmlns="http://www.w3.org/2000/svg" xmlns:xlink="http://www.w3.org/1999/xlink">
    <!-- Generator: Sketch 46.2 (44496) - http://www.bohemiancoding.com/sketch -->
    <title>Group 14</title>
    <desc>Created with Sketch.</desc>
    <defs>
        <polygon id="path-1" points="0.412 222.772 222.412 222.772 222.412 0.772 0.412 0.772"></polygon>
    </defs>
    <g id="home" stroke="none" stroke-width="1" fill="none" fill-rule="evenodd">
        <g id="Tablet" transform="translate(-83.000000, -1952.000000)">
            <g id="alleinerziehender" transform="translate(63.000000, 1931.000000)">
                <g id="Page-1" transform="translate(20.000000, 20.000000)">
                    <g id="Group-75" transform="translate(0.000000, 0.724000)">
                        <g id="Group-14">
                            <mask id="mask-2" fill="white">
                                <use xlink:href="#path-1"></use>
                            </mask>
                            <g id="Mask"></g>
                            <g mask="url(#mask-2)">
                                <g transform="translate(-45.000000, -80.000000)">
                                    <path d="M366.753962,347.984236 C380.782112,340.842845 394.215795,332.360752 407.815227,324.41685 C410.060815,327.70173 412.298434,330.991388 414.526491,334.28423 C414.354366,334.333591 414.179054,334.405243 414.003742,334.527849 C400.056873,344.17231 385.297194,351.920361 370.559827,360.133359 C369.638641,356.044375 368.346114,351.980868 366.753962,347.984236 M14.8564923,331.500918 C15.0365856,331.169724 15.2326163,330.849675 15.4143033,330.520072 C20.6625081,336.706093 28.9292673,340.471843 35.8174365,344.278993 C44.3949762,349.020813 53.1717341,353.030182 62.6051152,355.547582 C61.0735255,358.420062 59.5499046,361.29891 58.0645335,364.196866 C41.0991099,359.684335 23.6587501,353.259471 9.63856871,342.393729 C11.203627,338.678932 12.9455912,335.045341 14.8564923,331.500918 M27.6367395,311.108545 C29.4711409,308.433509 31.3469797,305.787134 33.2323809,303.147128 C42.1222947,317.909187 60.6591516,325.410434 76.5185156,329.770106 C74.4243337,332.964227 72.6489009,336.567564 70.9802491,339.912952 C61.6775552,337.521342 53.6084204,332.340052 45.3974423,327.448557 C38.8551159,323.550647 32.1199464,317.820019 24.9162155,315.121099 C25.8166819,313.778804 26.7219295,312.439694 27.6367395,311.108545 M77.1751389,252.311888 C103.148413,281.624233 148.1797,278.770861 182.948857,286.630372 C183.353669,286.721132 183.69473,286.635149 183.983198,286.471144 C186.00088,288.670087 188.056812,290.830816 190.203588,292.905561 C192.090583,294.728726 194.536983,297.091674 197.251132,299.341571 C174.092412,298.701473 151.330535,294.251041 129.010126,288.00292 C117.28972,284.722817 105.690438,281.019165 94.1357812,277.191316 C83.7700588,273.756761 73.5398048,270.688431 64.1000487,265.121808 C68.3314437,260.665007 72.6903383,256.39928 77.1751389,252.311888 M123.825671,218.752923 C124.590669,218.36759 125.341323,217.931305 126.080821,217.46795 C126.131821,217.582595 126.17804,217.700424 126.232227,217.813476 L126.232227,217.813476 C126.342195,218.045949 126.448976,218.283199 126.573289,218.507711 C131.561713,229.018374 138.276164,238.29024 145.865581,246.856725 C137.901633,238.03866 130.536934,228.730171 123.714109,218.872344 C123.734827,218.861198 123.785827,218.795915 123.825671,218.752923 M131.107495,215.568356 C131.719494,214.299306 132.592866,213.065287 133.584176,211.874259 C135.311797,210.402989 136.948574,208.809113 138.368601,207.038494 C139.130411,206.355404 139.890628,205.672315 140.666782,205.003556 C140.677939,204.994002 140.679532,204.984448 140.689095,204.974895 C147.358921,215.768984 157.09352,224.610934 168.852176,230.527859 C192.280239,242.315533 221.339005,243.602098 246.583938,237.849178 C265.700918,233.494283 284.247338,223.278192 295.935869,207.25186 C297.166241,210.936404 298.73608,214.536557 300.497169,218.006142 C300.436607,218.073018 300.372857,218.138302 300.317076,218.219508 C288.472358,235.46553 274.201958,250.745081 259.164967,265.155246 C245.318504,278.425336 231.138948,293.577505 214.283493,302.941723 C213.631651,302.220419 212.390123,301.940177 211.730312,302.787272 C211.151782,303.529276 208.107728,301.882855 204.971236,299.865432 C204.45805,299.392524 203.962395,298.937131 203.495428,298.562944 C200.357342,296.047136 197.225632,293.526552 194.103484,290.988452 C192.653175,289.80857 191.215617,288.612765 189.770089,287.426514 C188.560436,286.174979 187.366721,284.909114 186.193724,283.619364 C179.45696,276.215246 172.914634,268.838197 165.497341,262.106023 C160.088168,257.197013 155.157119,252.138329 150.56235,246.877425 C148.504824,242.939708 144.942802,239.688265 142.262122,236.247341 C138.131133,230.949814 134.95161,224.954867 131.230214,219.324553 C130.734559,217.944043 130.587934,216.643147 131.107495,215.568356 M134.338018,182.190912 C132.820772,173.196103 132.757022,163.753862 133.493333,154.421489 C133.730801,154.117363 133.73877,153.679485 133.580989,153.29256 C134.095769,147.275321 134.930891,141.313812 135.920607,135.554523 C136.829043,130.263365 137.962196,124.984946 139.296161,119.752702 C139.541598,119.561628 139.76791,119.32597 139.951191,119.017067 C148.152606,105.204009 154.19609,89.916496 158.736672,74.4968235 C160.934447,67.0337912 162.741755,59.4529299 164.155407,51.7972313 C169.637893,57.9004536 178.648931,61.8302091 185.733131,64.8651012 C200.873716,71.3504715 216.976923,75.1480674 233.39091,76.0970684 C235.924966,76.2419661 236.965682,73.3838174 236.05406,71.3966478 C236.001466,71.2820033 235.937716,71.1800972 235.881935,71.0702297 C248.607995,71.824972 261.592242,69.8393946 273.707897,65.4399155 C288.472358,79.9201408 294.058436,101.844291 298.332863,121.672996 C298.626112,123.032806 299.682765,123.758887 300.839825,123.892639 C305.874467,144.355073 311.814358,165.158256 303.314912,184.413739 C294.307061,204.817259 281.842375,221.649287 254.952697,232.338285 C213.287402,248.901217 143.380931,235.799909 134.338018,182.190912 M120.233368,138.810742 C116.892877,131.847687 114.373165,124.328925 114.108603,116.528329 C113.859979,109.202233 118.241186,92.8685894 128.648346,101.63411 C131.400745,103.952474 133.463052,107.084496 134.919735,110.375745 C134.993047,112.818308 135.072735,115.260871 135.169953,117.705026 C135.222547,119.004329 136.116638,119.899192 137.158948,120.173065 C136.891199,121.136397 136.617074,122.096544 136.360481,123.064652 C134.478268,118.111058 130.039686,108.679964 124.796262,111.94096 C122.439112,113.405861 122.655862,117.818078 122.95708,120.152366 C123.506922,124.446754 125.389136,128.929032 128.291347,132.124744 C128.984626,132.885856 129.974342,131.917748 129.610968,131.092945 C128.437971,128.435424 126.834663,126.013561 125.924634,123.233434 C125.545323,122.075844 125.287136,120.915069 125.138917,119.704934 C125.000262,118.932676 124.949262,118.15405 124.985918,117.370646 C124.515763,115.506083 125.158042,114.631919 126.912756,114.744971 C128.895376,114.240217 129.348,114.69561 130.608653,116.138219 C131.432619,117.079259 132.157774,118.249587 132.788897,119.340301 C133.87105,121.204865 134.734861,123.179296 135.86642,125.012014 C133.655895,133.831672 132.106774,142.831258 131.335401,151.875428 C125.680791,149.1367 123.073423,144.726075 120.233368,138.810742 M306.687278,119.141266 C307.978212,116.408907 308.142368,115.921669 311.218297,116.985314 C314.405789,118.088766 314.128477,118.427923 313.519666,121.837001 C312.663824,126.620221 309.992707,130.616852 307.873025,134.873026 C307.192495,136.240797 309.04124,137.32355 309.890707,136.06883 C312.974605,131.510123 320.75049,117.252817 313.744384,112.791239 C311.293203,111.230802 308.655554,112.936137 306.92634,114.859616 C307.353464,112.775317 307.582963,110.630511 307.715244,108.436344 C307.783775,107.299454 307.837962,106.159379 307.89215,105.019304 C309.60702,103.106972 311.763358,101.810853 314.600226,101.903205 C323.781795,102.205739 322.900453,114.889869 321.636613,120.940546 C320.603866,125.898916 318.837995,130.68532 316.378846,135.09913 C313.978665,139.406256 310.722642,142.786674 307.684963,146.522171 C307.015589,140.172145 306.137436,133.694736 304.967626,127.287387 C305.235375,124.51363 305.488781,121.674588 306.687278,119.141266 M302.322008,221.427959 C302.487758,221.724124 302.642351,222.031435 302.811288,222.326007 C288.542482,246.979331 266.759165,265.47211 244.829224,282.996781 C244.671443,283.012704 244.515256,283.028627 244.357475,283.041365 C249.769836,278.153055 255.159884,273.239269 260.447932,268.214022 C275.657048,253.76405 289.944979,238.4431 302.322008,221.427959 M354.963431,255.631799 C358.965326,259.733521 362.787128,264.024725 366.460712,268.468788 C366.371463,268.507003 366.282213,268.54681 366.191369,268.604132 C356.310146,274.903205 345.125238,277.903067 333.964236,280.977766 C322.176893,284.224432 310.319424,287.230663 298.38705,289.880223 C275.111987,295.04559 252.103079,297.19358 228.536361,299.185527 C229.631264,298.389385 230.64648,297.637827 231.532603,297.005691 C236.84137,293.212872 242.075231,289.23694 247.224624,285.133626 C265.077764,285.448898 283.866432,279.500127 300.844606,275.259876 C319.215713,270.669323 337.599571,265.031048 354.407213,256.090377 C354.646275,255.962994 354.827962,255.805358 354.963431,255.631799 M398.759564,311.32828 C385.945848,318.681445 372.462759,325.376997 360.069792,333.368667 C359.939105,333.453058 359.837105,333.556556 359.759012,333.674385 C359.199607,332.704685 358.632233,331.741353 358.048922,330.787576 C357.978798,330.344921 357.726986,329.915004 357.357237,329.684123 C356.14599,327.74313 354.894899,325.838759 353.611934,323.978972 C367.777146,320.345381 381.277767,311.817111 392.85633,302.991084 C394.838949,305.758473 396.804038,308.5386 398.759564,311.32828 M340.31372,328.870466 C342.248527,328.610924 344.168991,328.109355 346.067142,327.696953 C347.853731,327.308436 349.769413,327.153985 351.398221,326.373766 C352.182344,327.763829 352.93778,329.173 353.690028,330.582171 C349.096852,332.324129 344.234334,334.419574 340.246782,337.132825 C340.336032,334.261938 340.347188,331.481811 340.31372,328.870466 M338.041038,356.555498 C340.723312,357.525198 344.664645,354.819909 347.099889,353.866131 C351.995876,351.945837 356.805801,349.829693 361.593413,347.648264 C362.761629,350.757994 363.854938,353.890015 364.97056,357.015668 C354.547463,362.212881 343.765773,366.287534 332.834271,370.228435 C335.239233,366.303457 336.907885,361.595075 338.041038,356.555498 M295.250558,369.674321 C295.586839,368.480108 294.672029,366.860756 293.10697,367.067753 C289.925854,362.760626 287.594204,357.517237 285.836302,351.992014 C285.810802,351.734064 285.72474,351.477706 285.598834,351.242048 C283.995526,346.033689 282.881497,340.605595 282.025656,335.502327 C298.367925,343.761501 319.888274,342.482897 337.01626,337.462428 C336.418605,356.302325 332.319491,379.009878 312.397669,377.845919 C310.453299,377.732867 308.633241,377.430333 306.931121,376.965387 C306.701622,376.810935 306.429091,376.718583 306.119904,376.710621 C301.765791,375.350811 298.194207,372.884364 295.250558,369.674321 M88.5560773,362.193773 C98.2396766,365.591706 107.999776,368.806526 117.837968,371.720405 C136.189951,377.158053 155.032807,381.352127 174.184849,382.240621 C194.235765,383.168923 214.653242,380.756613 234.614907,379.016248 C254.071355,377.318873 273.384366,374.842873 292.557128,371.089861 C294.880809,373.819034 297.57424,376.113515 300.688419,377.814074 C281.357877,381.837774 261.687866,383.625908 242.04495,385.428373 C220.669632,387.388474 199.252876,388.988718 177.777152,388.995088 C137.18126,389.007826 99.0237995,381.509763 62.3548971,363.911847 C64.2243609,360.184312 66.1193246,356.46633 68.0461632,352.767456 C74.0035848,357.520422 81.45594,359.700258 88.5560773,362.193773 M280.847878,327.760645 C299.481953,329.655462 318.802933,326.747953 336.949322,322.471079 C337.043353,325.770291 337.140572,329.733484 337.092759,333.997619 C328.110408,336.750677 318.879433,338.185324 309.476333,337.975143 C299.810265,337.758592 291.001632,335.136102 281.654313,333.218992 C281.357877,331.330544 281.093315,329.501011 280.847878,327.760645 M282.416124,350.570105 C265.029951,353.877277 247.079593,354.536482 229.462327,355.745026 C211.647437,356.967899 193.800672,357.888239 175.93797,357.732195 C142.544215,357.440807 104.944565,355.579428 74.7845203,339.604049 C76.6970152,335.86696 78.7131035,332.169678 80.9746288,328.735122 C88.2102345,331.747722 95.9526514,334.857452 103.675943,336.11854 C111.980952,337.473574 120.064431,337.487904 128.273815,339.812638 C144.195335,344.320392 159.026733,347.05912 175.585752,347.75654 C210.417065,349.22144 245.293004,347.339362 279.821506,342.559327 C280.063755,342.525889 280.255004,342.446275 280.41916,342.344368 C280.970596,345.083096 281.632001,347.845708 282.416124,350.570105 M420.955661,338.206024 C404.62933,313.167367 387.128407,288.421691 368.017802,265.488033 C352.513843,246.882202 332.050148,228.887807 308.948803,220.259223 C305.80753,217.873983 303.781879,215.910697 302.076571,212.215007 C300.683638,209.200815 299.81664,206.03854 298.806205,202.908111 C300.146545,200.733052 301.389667,198.483155 302.470227,196.113838 C308.644398,182.569875 309.552833,167.35083 308.276242,152.679531 C308.194961,151.736899 308.107305,150.789491 308.018056,149.838897 C308.078618,149.808644 308.142368,149.776798 308.206118,149.733807 C319.324088,142.203898 329.214874,120.349809 324.156325,106.987366 C322.341049,102.191409 317.953467,98.6597242 312.724387,99.6294248 C310.917079,99.9653966 309.374333,100.708993 308.040368,101.72487 C308.223649,97.1040633 308.320867,92.4737032 308.333617,87.8560813 C308.371867,74.651275 307.327964,61.4560225 303.702192,48.7257167 C303.622505,48.4438825 303.510943,48.1970786 303.385037,47.9709743 C310.000675,42.1384402 315.73816,35.3011753 320.214992,27.5387937 C320.610241,26.8541118 320.732959,26.1964988 320.666022,25.5978002 C321.258895,24.3972185 321.113864,22.8654419 319.606181,22.045416 C291.933973,7.00152236 260.599338,-2.09041587 228.996953,0.412653642 C214.331305,1.57342824 199.911093,5.05097519 186.453504,11.1032444 C177.149216,15.2877652 164.759437,21.6855599 160.95676,32.119793 C157.818674,29.6262772 152.471657,31.1055085 149.265041,33.7359607 C142.980901,38.8869975 139.433223,46.9837586 137.573322,54.762063 C135.413796,63.8014559 135.115766,73.2373274 134.835267,82.4884939 C134.605767,90.0024793 134.631267,97.506911 134.790642,105.011343 C132.68371,101.933459 130.076342,99.3428138 127.763817,98.0817253 C120.220618,93.967265 113.753198,101.000381 112.192921,108.086042 C109.929802,118.365824 112.867075,129.113737 117.002845,138.487509 C119.439683,144.007955 123.894202,154.474034 131.091558,154.867328 C130.627778,161.859045 130.629372,168.865092 131.15212,175.821778 C131.6669,182.676558 132.573741,187.517099 135.042454,193.594845 L135.04086,193.596438 C135.885545,195.182352 136.564481,196.699798 137.025073,198.272974 C137.558978,199.417826 138.137508,200.537201 138.735162,201.647022 C138.628382,201.734598 138.518413,201.815804 138.42757,201.943187 C135.883951,205.50831 133.129959,208.640331 129.717749,211.379059 C127.221943,213.382151 124.243232,214.998319 121.763364,217.079433 C94.9485916,229.572489 71.9444653,251.14156 52.8179225,273.441489 C48.5227777,278.447628 44.3949762,283.598665 40.3691744,288.829316 C39.8002072,288.835685 39.4033645,289.396168 39.4973955,289.945506 C34.5679398,296.394254 29.8074213,302.978346 25.214246,309.673898 C20.2991341,316.835988 15.5274593,324.123869 11.5016575,331.844852 C8.23288495,338.112079 4.09073973,345.763001 3.02133633,352.956937 C2.50655645,352.683065 1.98699533,352.420338 1.47221545,352.141688 C0.358187166,351.538213 -0.615591491,353.211703 0.479311844,353.861354 C25.8374006,368.89251 54.2506999,377.809297 82.5954682,385.046225 C111.974577,392.547472 141.713873,399.394291 171.926512,402.2811 C227.479707,407.588181 284.094338,400.523219 336.868041,382.235845 C366.283807,372.042046 394.434138,358.338855 420.662412,341.438359 C421.105473,341.318938 421.499128,341.032327 421.711097,340.646994 C422.35497,339.790346 421.843377,338.513335 420.955661,338.206024" id="Fill-12" fill="#1F191B"></path>
                                    <g id="Group" stroke-width="1" fill="none" transform="translate(158.000000, 77.000000)">
                                        <path d="M84.691,208 C84.719,208.003 84.747,208.003 84.776,208.006 C84.517,208.212 84.258,208.418 84,208.623 C84.231,208.416 84.461,208.208 84.691,208" id="Fill-15" fill="#3C3C3B"></path>
                                        <path d="M20.365956,127.290931 C19.2722096,128.304631 17.42021,129.911627 18.176524,131.514984 C18.3413616,131.86441 18.9425343,132.101001 19.3206913,131.957227 C20.6898135,131.440367 20.9128292,129.658657 21.762228,128.619478 C22.5204812,127.691315 21.304561,126.421005 20.365956,127.290931" id="Fill-17" fill="#3C3C3B"></path>
                                        <path d="M36.4766983,131.832699 C36.2650868,133.432287 36.0136672,135.098783 36.0000486,136.735716 C35.9958583,137.264762 36.2629916,137.837377 36.6160266,137.954079 C36.6883098,137.977419 36.7647832,137.994535 36.8391615,137.999203 C37.1953393,138.020988 37.5630404,137.593082 37.6478945,137.071816 C37.904552,135.476896 37.9401698,133.776167 37.9988344,132.142347 C38.0459756,130.84307 36.6485017,130.534979 36.4766983,131.832699" id="Fill-19" fill="#3C3C3B"></path>
                                        <path d="M64.2180484,135.06088 C64.1544576,136.480377 63.7441168,138.059631 64.2468443,139.400915 C64.546801,140.199695 65.4526703,140.199695 65.752627,139.400915 C66.2565542,138.059631 65.8450136,136.478713 65.7814228,135.06088 C65.717832,133.648038 64.2816393,133.64471 64.2180484,135.06088" id="Fill-21" fill="#3C3C3B"></path>
                                        <path d="M95.5587874,120.043856 C95.1853954,120.20636 94.8995344,120.897866 95.033601,121.508119 C95.1909353,122.230742 95.2441187,122.856555 95.2684945,123.613753 C95.2939782,124.386511 95.312814,125.124693 95.6651543,125.712473 C95.9199916,126.139477 96.3077875,126.049582 96.5692727,125.712473 C97.4080198,124.635453 96.821894,122.154677 96.4839576,120.875392 C96.3277313,120.282426 95.9853629,119.858879 95.5587874,120.043856" id="Fill-23" fill="#3C3C3B"></path>
                                        <path d="M52.9949893,120.120886 C53.0935076,118.84274 51.7083878,118.546805 51.555919,119.815874 C51.4761662,120.474918 51.2627099,120.966932 51.1125869,121.584219 C50.9648095,122.192427 50.9788835,122.747985 51.0609821,123.383428 C51.1149325,123.813713 51.4562279,124.098754 51.7165976,123.968034 C52.8530761,123.392505 52.8718415,121.720385 52.9949893,120.120886" id="Fill-25" fill="#3C3C3B"></path>
                                        <path d="M30.8187986,114.335241 C30.4593158,115.063741 29.8032334,116.276198 30.0568627,117.280023 C30.1721487,117.740039 30.4456911,118.138491 30.7747803,117.953801 C31.3323455,117.640853 31.4644004,116.67978 31.8050183,115.966671 C32.0397826,115.474164 32.0890412,114.817488 31.8050183,114.335241 C31.5608215,113.923108 31.0567071,113.854704 30.8187986,114.335241" id="Fill-27" fill="#3C3C3B"></path>
                                        <path d="M4.45285448,110.178528 C3.19308017,111.163313 1.65245412,112.661443 2.06967319,114.536725 C2.15896131,114.938322 2.61027221,115.118167 2.92846263,114.917369 C4.06972724,114.192749 4.636301,112.801129 5.68016038,111.914124 C6.58115876,111.15109 5.38794469,109.446924 4.45285448,110.178528" id="Fill-29" fill="#3C3C3B"></path>
                                        <path d="M86.0440947,140.396692 C86.0219821,141.5745 85.9486615,142.776628 86.0603881,143.944012 C86.1965549,145.351127 87.8026246,145.352864 87.9399552,143.944012 C88.0516817,142.776628 87.9771974,141.5745 87.9562486,140.396692 C87.9224979,138.536173 86.0778454,138.532699 86.0440947,140.396692" id="Fill-31" fill="#3C3C3B"></path>
                                        <path d="M80.2342453,119.189429 C79.6611886,118.658799 78.6708708,119.342666 79.1084531,120.013868 C79.3766924,120.425455 79.5758398,120.909227 80.135349,120.989012 C80.5932524,121.054866 80.9617428,120.821844 80.9969661,120.3672 C81.0403179,119.81884 80.6108641,119.537694 80.2342453,119.189429" id="Fill-33" fill="#3C3C3B"></path>
                                        <path d="M107.030214,103.334945 C107.252008,104.420698 107.420485,106.313721 108.124254,106.887264 C108.465475,107.165747 108.798166,106.90384 108.932522,106.370081 C109.217228,105.231283 108.526256,103.558726 108.247947,102.526018 C107.952577,101.431977 106.799889,102.212724 107.030214,103.334945" id="Fill-35" fill="#3C3C3B"></path>
                                        <path d="M53.34418,147.924965 C53.031949,148.87739 52.4523378,149.694974 52.0711055,150.618383 C51.6898731,151.541792 52.930172,152.321825 53.6874617,151.866095 C54.8829098,151.147509 55.4694211,149.920279 55.9196548,148.636724 C56.4871907,147.013504 53.8806654,146.286383 53.34418,147.924965" id="Fill-39" fill="#3C3C3B"></path>
                                        <path d="M21.2852456,141.991145 C21.2852456,142.791293 20.854631,143.494903 21.0515674,144.29505 C21.1794291,144.816724 21.5703624,145.087772 21.9848106,144.974526 C23.1002935,144.664492 23.1326263,142.830279 22.8519185,141.720097 C22.5814984,140.645189 21.2837759,140.804847 21.2852456,141.991145" id="Fill-41" fill="#3C3C3B"></path>
                                        <path d="M2.61307268,129.588004 C2.45422961,130.171414 2.34368341,130.734992 2.22455111,131.338235 C2.10971186,131.921645 1.97018754,132.480265 2.00560525,133.100035 C2.04746254,133.843759 2.61414595,134.326353 2.98764183,133.736332 C3.27205679,133.288445 3.39011583,132.772796 3.54144606,132.197649 C3.69384955,131.62085 3.85805895,131.085368 3.97182493,130.482126 C4.2025767,129.255807 2.95007759,128.356727 2.61307268,129.588004" id="Fill-43" fill="#3C3C3B"></path>
                                        <path d="M22.428045,182.248208 C21.1486985,180.820063 18.9697007,180.437861 17.6818535,182.057893 C16.5824371,183.440426 16.8176216,185.609381 18.3505706,186.444563 C19.4726553,187.0564 21.7139911,186.391086 21.0608585,184.583885 C20.8851786,184.104167 20.2773827,184.275607 20.3623891,184.800938 C19.9458577,185.411203 19.5109082,185.574779 19.0575406,185.290093 C18.6707614,185.170557 18.3987409,184.871716 18.2443126,184.395144 C18.116803,183.909134 18.3590712,183.213936 18.642426,182.852181 C19.5675791,181.672546 21.1897849,182.295393 21.9789278,183.294151 C23.3121118,184.980243 23.0769273,187.413436 22.9820035,189.49274 C22.9522513,190.176928 23.8703206,190.1612 23.9199076,189.49274 C24.1026714,187.032808 24.1069218,184.119895 22.428045,182.248208" id="Fill-47" fill="#3C3C3B"></path>
                                        <path d="M35.9017008,191.343957 C35.1126624,188.706453 32.2833741,188.271001 30.4696498,190.158475 C27.6996535,193.040824 29.4404031,197.75021 30.8542871,200.866556 C30.983513,201.148592 31.3620691,200.93629 31.3134193,200.666651 C30.9303023,198.534333 29.9618678,196.403564 29.9785912,194.212359 C29.9907536,192.763436 30.4225204,191.142503 31.7269423,190.325837 C32.95991,189.524668 34.0317252,189.794307 34.9408678,191.134754 C35.6326068,192.236555 35.4790559,192.994334 34.4938981,193.41274 C34.5091011,193.338356 34.5060605,193.256225 34.4604514,193.175643 C33.5877961,191.613596 31.834884,193.515017 33.1119405,194.655559 C35.1567512,196.481046 36.3638737,192.885859 35.9017008,191.343957" id="Fill-49" fill="#3C3C3B"></path>
                                        <path d="M44.3022192,201.721858 C43.3766873,199.849441 41.0489281,199.506036 39.4114486,200.682317 C37.8745703,201.787121 37.4071612,204.313719 38.9502303,205.646942 C40.2936445,206.806131 42.4588939,205.949947 41.9496966,204.041791 C41.8042117,203.497935 41.0179739,203.622245 40.9994013,204.172316 C39.1235741,204.002944 38.7381937,203.263301 39.8463557,201.953386 C40.3803164,201.465469 40.9963059,201.235496 41.6974195,201.261912 C43.0299997,201.373791 43.3689487,202.45684 43.5856284,203.555429 C43.9694611,205.508647 43.8115944,207.530236 43.3689487,209.455485 C43.2420363,210.011771 44.0282741,210.22776 44.206261,209.690119 C44.9924988,207.312694 45.4645511,204.072868 44.3022192,201.721858" id="Fill-51" fill="#3C3C3B"></path>
                                        <path d="M54.8646654,187.609215 C53.3723501,186.370645 51.3325153,187.129409 50.5480746,188.905171 C49.3244627,191.678804 50.4310586,196.02735 51.1461565,198.797795 C51.2227225,199.099069 51.6922312,199.05603 51.6546705,198.719687 C51.430751,196.63468 51.1822725,194.543297 51.1230422,192.44235 C51.095594,191.442886 51.0233619,190.250543 51.5015384,189.354691 C52.8378324,187.591681 53.9747658,187.872232 54.9152279,190.197939 C54.6681941,190.767012 54.5338424,191.359996 54.4514978,191.962544 C54.3893782,191.921099 54.3301478,191.873277 54.24058,191.874871 C54.0412194,191.881248 53.8418588,191.887624 53.6424981,191.894 C53.4749197,191.898782 53.2784483,191.996019 53.2018823,192.176145 C52.5546826,193.722366 54.1972407,194.259558 55.0654707,193.167639 C56.2833041,191.637359 56.4060986,188.889231 54.8646654,187.609215" id="Fill-53" fill="#3C3C3B"></path>
                                        <path d="M65.6264101,199.548093 C65.1425298,197.874919 63.7141382,196.426081 62.0387207,197.226837 C60.5812673,197.924771 59.4754626,200.432974 60.2601335,202.062527 C60.8835108,203.357134 62.6693635,203.910185 63.4089885,202.498737 C63.5819067,202.166906 63.294194,201.740044 62.9483576,201.847538 C62.0910321,202.257264 61.5286846,201.690192 61.2584091,200.146323 C61.7364771,198.166244 62.8248446,198.077445 64.5235117,199.878366 C64.9114878,200.556048 64.806865,201.736928 64.8141305,202.501852 C64.8388331,204.54113 64.5264179,206.588198 64.2488769,208.597876 C64.1936593,209.004485 64.6935237,209.171179 64.8243022,208.770802 C65.732486,205.968158 66.4764702,202.492505 65.6264101,199.548093" id="Fill-55" fill="#3C3C3B"></path>
                                        <path d="M82.7261486,198.20124 C82.1087876,196.611006 80.5012916,196.77198 79.4433795,197.687422 C78.4355635,198.557335 77.5397271,200.233748 78.2617005,201.633739 C78.7066719,202.497148 80.4128867,203.389826 80.7650329,201.996338 C80.8269164,201.744308 80.6839951,201.532927 80.4821372,201.443496 C79.8470953,201.158945 79.1074409,201.337806 79.3446607,200.163829 C79.4772681,199.497167 80.6059041,197.915063 81.3853407,198.445141 C81.936398,198.820748 81.7433806,200.045131 81.7183326,200.615859 C81.6756035,201.583333 81.6564491,202.554059 81.6814972,203.521532 C81.6947579,204.04348 82.4476731,204.212585 82.5346046,203.649987 C82.7791915,202.061379 83.3317222,199.76058 82.7261486,198.20124" id="Fill-57" fill="#3C3C3B"></path>
                                        <path d="M76.2201492,187.031936 C74.7021142,186.82112 73.5491548,187.669326 73.2316241,189.123628 C72.7171223,191.468957 73.2027576,194.295211 73.3250155,196.670187 C73.3470898,197.108289 74.0008297,197.111583 74.0195079,196.670187 C74.092523,195.000128 74.1298796,193.331716 74.1519539,191.66001 C74.1604441,190.986386 74.0381862,190.049242 74.2742118,189.405265 C75.4492455,186.188672 79.658651,190.306175 76.4850411,191.360255 C75.9807275,191.528249 76.0724209,192.239754 76.610695,192.267753 C78.0506208,192.341868 79.1356591,191.123087 78.9862329,189.708313 C78.8419007,188.324832 77.5972479,187.222989 76.2201492,187.031936" id="Fill-59" fill="#3C3C3B"></path>
                                        <path d="M96.9060314,186.932112 C96.489348,185.865592 95.2360423,185.882947 94.3082706,186.160621 C93.2551684,186.477737 92.335535,186.963665 92.1223103,188.107491 C91.8553724,189.544768 92.0751079,191.321248 92.3078646,192.753791 C92.3745991,193.168724 92.9394004,193.004644 92.9866029,192.663863 C93.1493698,191.453774 92.9752092,190.229486 93.1086781,189.027285 C93.1981999,188.203731 93.4423504,187.369132 94.3945371,187.249227 C94.9300404,186.952622 95.3011491,187.194008 95.5094908,187.973388 C95.4069477,188.088559 95.3304472,188.221085 95.2799894,188.36781 C95.1334992,188.653372 95.3776496,189.054106 95.7292262,188.94209 C96.5691038,188.67546 97.2576081,187.829818 96.9060314,186.932112" id="Fill-61" fill="#3C3C3B"></path>
                                        <path d="M55.0918063,213.260067 C53.3482203,212.434624 51.7242922,213.697162 51.2610454,215.318799 C50.5225854,217.907245 51.4952329,221.225264 52.3858293,223.652846 C52.6063416,224.255679 53.587536,224.013571 53.3926647,223.38474 C52.8302727,221.566491 52.4935213,219.733618 52.4559146,217.834125 C52.4456582,217.291412 52.3533507,216.163741 52.6029228,215.676274 C54.828559,214.915827 55.808044,215.361046 55.5396686,217.011932 C55.6644546,217.380781 55.6456512,217.68626 55.4952242,217.936493 C55.4302671,217.89587 55.3687288,217.848749 55.2815495,217.843874 C55.0986439,217.83575 54.9157383,217.82925 54.7345421,217.821126 C54.5550553,217.813001 54.3447994,217.923493 54.2644577,218.081108 L54.1294152,218.34109 C54.0319795,218.527952 53.9943728,218.779809 54.1294152,218.965046 C55.0200116,220.185337 56.3926582,219.691371 56.7926573,218.360588 C57.3071861,216.646332 56.9088964,214.119632 55.0918063,213.260067" id="Fill-63" fill="#3C3C3B"></path>
                                        <path d="M69.6517567,212.917333 C70.4799227,212.573885 69.6726788,211.727647 68.8758959,212.087244 C68.0250643,212.470527 67.7321551,213.227404 68.2743859,213.7991 C68.7120062,214.258824 69.8348249,213.848625 69.4216137,213.379211 C69.2368019,213.168189 69.367565,213.035763 69.6517567,212.917333" id="Fill-65" fill="#3C3C3B"></path>
                                        <path d="M86.826933,181.147177 C85.8733182,180.582857 85.1072396,181.770659 85.0042786,182.526119 C84.9282836,183.076785 85.8880269,183.182595 86.0253082,182.656959 C86.1564609,182.156353 86.6712658,182.002758 86.951957,181.595447 C87.0561437,181.442989 86.9801487,181.238196 86.826933,181.147177" id="Fill-67" fill="#3C3C3B"></path>
                                        <path d="M23.1525758,196.279883 C22.9845758,196.813016 22.9145758,197.381468 23.1575758,197.865829 C23.2955758,198.139965 23.5275758,197.953284 23.5905758,197.670739 C23.6525758,197.391559 23.6365758,197.119106 23.7295758,196.855062 C23.9515758,196.224383 23.3555758,195.634067 23.1525758,196.279883" id="Fill-69" fill="#3C3C3B"></path>
                                        <path d="M39.9095283,184.076577 C39.8065283,183.860477 39.8105283,183.64722 39.8145283,183.392735 C39.8185283,183.061476 39.5775283,182.922149 39.3925283,183.042994 C38.9255283,183.350083 38.9125283,184.149084 39.1585283,184.709237 C39.4585283,185.394501 40.2255283,184.739093 39.9095283,184.076577" id="Fill-71" fill="#3C3C3B"></path>
                                        <path d="M75.8449661,76.8617729 C74.4264229,80.4856129 71.2247052,83.3802267 67.200968,83.6588611 C64.034434,83.8769921 61.4980083,82.4774511 59.198273,80.5636305 C58.9855715,79.2007101 57.0152837,78.3759521 56.2684294,79.9044611 C52.2702805,88.0835761 38.3215383,96.496744 30.9585471,86.5837267 C26.2967054,80.3056947 34.820759,67.5299074 37.9041315,62.1259914 C45.3934642,49.0015131 55.2640944,38.4213653 65.0083831,27.0355659 C65.408198,26.5690522 64.8628505,25.6837908 64.2951133,26.1152761 C55.4496085,32.8582296 48.1809737,42.0483896 41.8575013,51.1302803 C36.1961223,59.2632216 28.6955948,69.5551818 27.1858937,79.6497096 C26.016835,87.4689881 30.4323907,93.2056732 38.4414828,93.923754 C46.5977067,94.6529801 54.0086756,90.0785987 58.0803906,83.3229076 C64.2535326,89.9400776 75.9729069,86.117213 78.9011512,77.7008607 C79.5792373,75.7567884 76.5726292,75.0036793 75.8449661,76.8617729" id="Fill-73" fill="#1F191B"></path>
                                        <path d="M0.764255816,25.4194616 C0.569434565,25.6779657 0.610022326,26.1172643 1.00128834,26.1949741 C9.22923913,27.8205372 19.028748,26.796036 27.1641587,24.7977828 C33.3351218,23.2832337 38.11636,19.6181836 37.9978437,12.8812156 C37.9247858,8.6325487 35.6112834,0.065434555 29.9712082,0.00041203 C25.4822019,-0.0503372578 24.085983,4.59639441 23.6395176,8.71660221 C22.1101708,6.17596599 19.7934214,4.0857297 16.6421877,5.37190696 C13.6857752,6.57561663 13.4649778,10.1899175 13.8805965,13.4664184 C11.709963,11.658475 8.67399857,11.1176779 5.62179898,12.424472 C0.498000107,14.6162069 -1.02809969,20.3445328 0.655480618,25.2339095 C0.679833274,25.3084475 0.728538586,25.3560249 0.764255816,25.4194616" id="Fill-2" fill="#1F191B"></path>
                                        <path d="M78.4550375,12.1504024 C81.0459081,26.3717705 103.137678,30.6624138 114.857899,26.4636337 C115.604831,26.1943796 115.825845,25.5212443 115.664521,24.9573945 C115.756476,24.8291029 115.837138,24.6833889 115.888762,24.505998 C117.127734,20.2897955 118.497378,9.57664994 112.952657,7.31333164 C110.081082,6.14286822 107.632177,8.14643551 105.944723,10.7835419 C105.609168,6.54199783 104.158862,2.24977068 100.114458,1.3232198 C96.308814,0.45051974 93.6308281,3.24442701 92.2434379,6.61485482 C91.0254383,2.54753404 88.5458816,-1.05096784 83.8706991,0.282631889 C78.9244916,1.69384015 76.920842,7.2087977 78.5631249,11.665745 C78.4695567,11.7924528 78.4195461,11.9555891 78.4550375,12.1504024" id="Fill-4" fill="#1F191B"></path>
                                        <path d="M31.9928577,39.1734705 C31.9555363,37.6096323 29.5734624,37.6080542 29.5280278,39.1734705 C29.3722518,44.8070755 28.1098175,53.4358017 20.6844972,53.836624 C13.2607995,54.2374463 11.0539735,44.3794265 10.9371416,38.9430766 C10.9306509,38.6448269 10.477927,38.569081 10.3984164,38.8704867 C8.73842892,45.2710195 12.3212758,55.5409078 20.106828,55.9811812 C29.2018719,56.4972005 32.1664829,46.2888557 31.9928577,39.1734705" id="Fill-6" fill="#1F191B"></path>
                                        <path d="M110.794981,39.0026189 C110.598943,37.4299477 108.118974,37.3842488 108.291106,39.0026189 C108.9621,45.2901519 107.562735,58.5900966 98.2516961,56.1522987 C90.5647502,54.1399729 89.6068703,43.9948256 89.6865608,37.5434069 C89.6945299,36.9225327 88.7478067,36.7807087 88.5979885,37.3968554 C86.6583217,45.361064 89.273764,57.4098053 98.8525625,58.8674414 C109.521527,60.4921147 111.767205,46.7950627 110.794981,39.0026189" id="Fill-8" fill="#1F191B"></path>
                                        <path d="M91.8847339,89.0400246 C89.004378,96.8702771 82.9409741,102.981768 75.1331068,106.290499 C65.7432741,110.267721 56.7023341,108.943002 47.0129954,107.182844 C46.1909469,107.034119 45.5505138,108.17025 46.4044246,108.59189 C64.4894909,117.493877 88.0469146,108.159517 94.8989116,89.8511081 C95.5871382,88.0066214 92.5602156,87.2016709 91.8847339,89.0400246" id="Fill-10" fill="#1F191B"></path>
                                    </g>
                                </g>
                            </g>
                        </g>
                    </g>
                </g>
            </g>
        </g>
    </g>
</svg>