<?xml version="1.0" encoding="UTF-8" standalone="no"?>
<svg width="254px" height="254px" viewBox="0 0 254 254" version="1.1" xmlns="http://www.w3.org/2000/svg" xmlns:xlink="http://www.w3.org/1999/xlink">
    <!-- Generator: Sketch 46.2 (44496) - http://www.bohemiancoding.com/sketch -->
    <title>Alleinerziehender</title>
    <desc>Created with Sketch.</desc>
    <defs>
        <polygon id="path-1" points="0.469961977 254.112548 253.701901 254.112548 253.701901 0.880608365 0.469961977 0.880608365"></polygon>
        <polygon id="path-3" points="0 403.802281 0 0 403.802281 0 403.802281 403.802281"></polygon>
    </defs>
    <g id="home" stroke="none" stroke-width="1" fill="none" fill-rule="evenodd">
        <g id="Mobile-Portrait-Copy-2" transform="translate(-33.000000, -2379.000000)">
            <g id="alleinerziehender" transform="translate(10.000000, 2355.000000)">
                <g id="Page-1" transform="translate(22.813688, 22.813688)">
                    <g id="Group-75" transform="translate(0.000000, 0.825856)">
                        <g id="Alleinerziehender">
                            <mask id="mask-2" fill="white">
                                <use xlink:href="#path-1"></use>
                            </mask>
                            <g id="Mask"></g>
                            <g id="Group-14" mask="url(#mask-2)">
                                <g transform="translate(1.140684, -74.144487)">
                                    <mask id="mask-4" fill="white">
                                        <use xlink:href="#path-3"></use>
                                    </mask>
                                    <g id="Clip-13" stroke="none" fill="none"></g>
                                    <path d="M365.879044,379.829927 C381.880736,371.683854 397.204329,362.008462 412.716989,352.946977 C415.278496,356.693989 417.830913,360.44645 420.372423,364.202544 C420.176083,364.258849 419.976107,364.340582 419.776132,364.480436 C403.867155,375.481722 387.031019,384.319803 370.220334,393.688242 C369.169553,389.024002 367.695187,384.388822 365.879044,379.829927 M-35.5249137,361.027664 C-35.3194841,360.649875 -35.0958749,360.2848 -34.8886274,359.908827 C-28.902082,366.965125 -19.4723186,371.260658 -11.6150914,375.603414 C-1.83082566,381.012334 8.18068523,385.585759 18.941196,388.457318 C17.1941356,391.733911 15.4561649,395.017768 13.7618253,398.323421 C-5.59036888,393.176047 -25.4843154,385.847306 -41.4769178,373.452923 C-39.6916802,369.215512 -37.7046489,365.070732 -35.5249137,361.027664 M-20.9466849,337.766401 C-18.8542119,334.715029 -16.7144719,331.69635 -14.5638241,328.684937 C-4.42323796,345.523788 16.7214657,354.080344 34.811995,359.053353 C32.4231944,362.696837 30.3979859,366.807108 28.4945808,370.623139 C17.8831428,367.895067 8.67880653,361.98485 -0.687328231,356.405198 C-8.15005789,351.958913 -15.8327608,345.422075 -24.0499443,342.343459 C-23.0227963,340.812324 -21.9901945,339.284822 -20.9466849,337.766401 M35.5609949,270.697971 C65.1883044,304.134106 116.554791,300.879309 156.215427,309.844531 C156.677189,309.94806 157.066232,309.84998 157.395283,309.662902 C159.696822,312.171202 162.041991,314.635912 164.490785,317.002541 C166.64325,319.082196 169.433821,321.777575 172.529808,324.343997 C146.113018,323.613847 120.148899,318.537309 94.6883565,311.410175 C81.3190718,307.668612 68.0879521,303.443915 54.9077353,299.077547 C43.0837173,295.159803 31.414226,291.659807 20.6464434,285.310047 C25.4731297,280.226243 30.4452529,275.360395 35.5609949,270.697971 M88.7745296,232.417783 C89.6471508,231.97824 90.5034104,231.480576 91.3469443,230.952035 C91.4051191,231.082808 91.4578399,231.217213 91.5196506,231.34617 L91.5196506,231.34617 C91.6450899,231.611349 91.7668933,231.881977 91.9086942,232.138074 C97.598912,244.127423 105.257981,254.703696 113.915111,264.475352 C104.830761,254.416722 96.4299631,243.798674 88.6472723,232.554005 C88.6709058,232.541291 88.7290806,232.466823 88.7745296,232.417783 M97.0807931,228.785197 C97.7788901,227.337612 98.7751327,225.929985 99.9059044,224.571398 C101.876574,222.893143 103.74362,221.075034 105.363423,219.055316 C106.232408,218.276127 107.099576,217.496937 107.984923,216.734094 C107.997649,216.723196 107.999467,216.712299 108.010374,216.701401 C115.618541,229.01405 126.722646,239.099924 140.135562,245.849269 C166.859588,259.295285 200.00647,260.762849 228.802971,254.200583 C250.609412,249.233022 271.765024,237.579687 285.097949,219.2987 C286.501415,223.501601 288.292107,227.608239 290.300954,231.565942 C290.231871,231.642226 290.159153,231.716694 290.095524,231.809325 C276.584438,251.481593 260.306416,268.910739 243.153955,285.348189 C227.35951,300.485174 211.185111,317.769017 191.958357,328.450635 C191.214811,327.627854 189.798619,327.308187 189.045983,328.274455 C188.386063,329.120847 184.913758,327.2428 181.336011,324.941557 C180.750627,324.402118 180.185242,323.882658 179.652579,323.45583 C176.073014,320.586087 172.500721,317.710895 168.939335,314.815725 C167.284991,313.469852 165.64519,312.105816 163.996299,310.752677 C162.616467,309.325071 161.254814,307.881118 159.916795,306.409921 C152.232274,297.964159 144.769544,289.549275 136.308754,281.869988 C130.138595,276.270358 124.513824,270.499995 119.272642,264.498964 C116.925655,260.007271 112.862512,256.298401 109.804702,252.373392 C105.092547,246.330586 101.465715,239.492244 97.2207761,233.069832 C96.6553903,231.495106 96.4881379,230.011195 97.0807931,228.785197 M100.7658,190.712066 C99.0351011,180.451828 98.9623827,169.681211 99.8022806,159.035919 C100.073157,158.689007 100.082247,158.189526 99.9022685,157.748167 C100.48947,150.884397 101.442081,144.084196 102.571035,137.514665 C103.607273,131.479124 104.899843,125.458113 106.421476,119.489775 C106.701442,119.271819 106.959593,119.003008 107.168658,118.650647 C116.523885,102.894307 123.417593,85.4560791 128.596964,67.8670991 C131.103932,59.3541345 133.1655,50.7067642 134.778031,41.9740281 C141.031817,48.9358787 151.310568,53.4184894 159.391404,56.8803436 C176.662033,64.2781044 195.030711,68.6099629 213.75389,69.6924734 C216.644448,69.8577561 217.831577,66.5975104 216.791703,64.3307769 C216.73171,64.2000038 216.658992,64.0837611 216.595363,63.9584369 C231.111781,64.8193597 245.922709,62.5544425 259.742848,57.5360253 C276.584438,74.0533926 282.956391,99.0619289 287.832163,121.680224 C288.166667,123.231338 289.371976,124.059567 290.691815,124.212136 C296.434754,147.553316 303.210294,171.283182 293.515109,193.247611 C283.239993,216.521588 269.021721,235.72162 238.349084,247.914394 C190.822131,266.807472 111.08091,251.863014 100.7658,190.712066 M84.6768456,141.228984 C80.8663995,133.286335 77.9922033,124.7098 77.6904217,115.811782 C77.4068198,107.455018 82.4043945,88.8234861 94.2756794,98.8221782 C97.4152979,101.466701 99.7677394,105.039349 101.429356,108.793626 C101.512982,111.579819 101.60388,114.366012 101.714776,117.154022 C101.774768,118.636117 102.794644,119.656874 103.983591,119.969276 C103.678173,121.068133 103.365484,122.163358 103.072792,123.267664 C100.925781,117.617177 95.8627593,106.859274 89.8816678,110.579042 C87.1929036,112.250031 87.4401463,117.282979 87.7837409,119.945664 C88.4109374,124.844206 90.5579493,129.95707 93.8684561,133.60237 C94.6592691,134.470558 95.7882229,133.366252 95.3737278,132.425412 C94.0357085,129.39402 92.2068398,126.631438 91.1687841,123.460191 C90.7361094,122.139746 90.4415998,120.815668 90.2725294,119.435286 C90.1143668,118.554384 90.0561921,117.666217 90.0980052,116.772601 C89.5617067,114.645722 90.2943449,113.648577 92.2959199,113.777534 C94.5574633,113.201769 95.0737642,113.721229 96.5117713,115.36679 C97.4516572,116.440219 98.2788294,117.775194 98.9987419,119.019355 C100.233137,121.146234 101.218472,123.398437 102.509224,125.48899 C99.9877127,135.549436 98.2206546,145.815123 97.3407615,156.131667 C90.8906361,153.007643 87.916452,147.976512 84.6768456,141.228984 M297.361914,118.792318 C298.834462,115.67556 299.021712,115.119774 302.530377,116.333058 C306.166299,117.591749 305.849973,117.978619 305.155512,121.867302 C304.179267,127.323446 301.132365,131.882341 298.714477,136.737292 C297.938207,138.297487 300.047042,139.532566 301.016015,138.101328 C304.53377,132.901281 313.403601,116.638195 305.411845,111.548942 C302.615821,109.768975 299.607096,111.714225 297.634608,113.908307 C298.121822,111.530779 298.383608,109.084233 298.534499,106.581381 C298.612671,105.284548 298.674482,103.984083 298.736292,102.683617 C300.692418,100.502249 303.152119,99.0237867 306.38809,99.1291317 C316.861363,99.4742274 315.856031,113.942816 314.414387,120.844729 C313.236349,126.500665 311.222048,131.960441 308.416934,136.995205 C305.679085,141.908277 301.964991,145.764267 298.499957,150.02529 C297.736414,142.781914 296.734717,135.393235 295.400334,128.084472 C295.705751,124.92049 295.994807,121.68204 297.361914,118.792318 M292.382519,235.469155 C292.571587,235.806985 292.747929,236.15753 292.940633,236.493544 C276.664429,264.615206 251.816538,285.709632 226.801396,305.699751 C226.621418,305.717914 226.443258,305.736077 226.26328,305.750607 C232.437075,300.174588 238.585419,294.569508 244.617413,288.837288 C261.966214,272.35443 278.264234,254.87806 292.382519,235.469155 M352.429769,274.484942 C356.994669,279.163712 361.354139,284.058621 365.544539,289.127895 C365.442733,289.171486 365.340927,289.216893 365.237303,289.28228 C353.965946,296.467534 341.207496,299.88943 328.476315,303.396691 C315.030676,307.100113 301.505047,310.529273 287.893973,313.551585 C261.344472,319.443639 235.09857,321.893818 208.216381,324.166 C209.46532,323.257854 210.623362,322.400564 211.634148,321.679495 C217.689776,317.353086 223.659959,312.817802 229.533791,308.137216 C249.89859,308.496842 271.330531,301.711172 290.697269,296.874384 C311.652905,291.638011 332.623084,285.206518 351.7953,275.008034 C352.067994,274.862731 352.275242,274.682918 352.429769,274.484942 M402.387335,338.017049 C387.770929,346.40469 372.39098,354.042201 358.254516,363.158175 C358.105443,363.254439 357.989093,363.372498 357.900013,363.506903 C357.261909,362.400781 356.614715,361.301924 355.949341,360.213964 C355.869351,359.709035 355.582113,359.218636 355.160346,358.955274 C353.778696,356.741213 352.351596,354.568926 350.888138,352.447496 C367.046175,348.302716 382.446122,338.574651 395.653608,328.50694 C397.915151,331.663657 400.156697,334.834904 402.387335,338.017049 M335.719072,358.027148 C337.926076,357.731092 340.116719,357.15896 342.281911,356.68854 C344.319845,356.245365 346.505034,356.069184 348.36299,355.179201 C349.257427,356.764824 350.11914,358.372244 350.977218,359.979663 C345.737854,361.966687 340.191256,364.356928 335.642717,367.451892 C335.744523,364.177115 335.757249,361.005868 335.719072,358.027148 M333.126659,389.607032 C336.186288,390.713154 340.682105,387.627273 343.459949,386.539313 C349.044725,384.348864 354.531332,381.935011 359.992486,379.44669 C361.325052,382.993909 362.572173,386.566558 363.844745,390.13194 C351.955281,396.06032 339.656775,400.708214 327.187381,405.203539 C329.930684,400.726377 331.834089,395.355599 333.126659,389.607032 M284.316226,404.571469 C284.699816,403.209249 283.656306,401.362079 281.871069,401.598197 C278.242419,396.685125 275.582742,390.704073 273.577531,384.401536 C273.548444,384.107297 273.450274,383.814874 273.306655,383.546063 C271.477786,377.604969 270.207031,371.413226 269.230786,365.592008 C287.872158,375.013119 312.420084,373.554636 331.957711,367.827864 C331.275975,389.318241 326.60018,415.220394 303.875668,413.892684 C301.657756,413.763727 299.581644,413.418631 297.640062,412.888274 C297.378276,412.712093 297.067404,412.606748 296.71472,412.597667 C291.74805,411.046553 287.674,408.233115 284.316226,404.571469 M48.543054,396.038525 C59.5889847,399.914494 70.7221775,403.581589 81.9444503,406.905405 C102.878271,413.108045 124.372023,417.89216 146.218459,418.905652 C169.090226,419.964551 192.380124,417.212867 215.150084,415.227659 C237.343751,413.291491 259.373802,410.467155 281.243872,406.186153 C283.894459,409.299279 286.966813,411.916557 290.519109,413.856358 C268.469061,418.44613 246.031787,420.485827 223.625418,422.54187 C199.242926,424.777727 174.813167,426.603101 150.316143,426.610366 C104.009042,426.624896 60.4834215,418.071973 18.6557762,397.998305 C20.7882443,393.746363 22.9497999,389.505319 25.1477147,385.286071 C31.9432527,390.707705 40.444038,393.19421 48.543054,396.038525 M267.887313,356.761192 C289.142912,358.92258 311.182053,355.60603 331.881356,350.727467 C331.988616,354.490826 332.099511,359.011579 332.044973,363.875611 C321.798945,367.015981 311.269315,368.652461 300.543346,368.41271 C289.517412,368.165695 279.469542,365.17426 268.807201,362.987444 C268.469061,360.83332 268.167279,358.7464 267.887313,356.761192 M269.676187,382.779587 C249.844051,386.552027 229.368357,387.303972 209.272617,388.682539 C188.951449,390.077452 168.593923,391.127269 148.218216,390.949272 C110.126481,390.616891 67.2371463,388.493644 32.8340535,370.270778 C35.0156067,366.007939 37.3153272,361.790507 39.8950138,357.872763 C48.1485565,361.309189 56.9802107,364.856409 65.7900494,366.294913 C75.2634439,367.840578 84.4841418,367.856925 93.8484586,370.508712 C112.009888,375.650637 128.927833,378.774661 147.816447,379.570197 C187.547983,381.241187 227.330423,379.094329 266.716546,373.641818 C266.992876,373.603675 267.211032,373.512861 267.398282,373.396618 C268.027296,376.520642 268.78175,379.67191 269.676187,382.779587 M427.706077,368.676073 C409.082885,340.114868 389.119856,311.88786 367.320687,285.727794 C349.635563,264.504412 326.292944,243.978487 299.9416,234.135996 C296.358399,231.415189 294.047771,229.1757 292.102553,224.960084 C290.513655,221.521842 289.524684,217.914684 288.372097,214.343853 C289.901002,211.862797 291.319012,209.296375 292.551589,206.593731 C299.59437,191.144344 300.630608,173.784217 299.174421,157.048895 C299.081705,155.973649 298.981717,154.892955 298.879911,153.808628 C298.948994,153.774119 299.021712,153.737793 299.094431,153.688753 C311.776526,145.099504 323.058792,120.170884 317.288584,104.928555 C315.217926,99.4578807 310.21308,95.4293432 304.24835,96.5354655 C302.186782,96.9187033 300.426996,97.7669121 298.905363,98.9257069 C299.114428,93.654825 299.225324,88.3730454 299.239868,83.1057961 C299.283499,68.0432795 298.092734,52.9916606 293.956873,38.4703992 C293.865975,38.1489154 293.738718,37.86739 293.595099,37.6094764 C301.141455,30.9563957 307.686114,23.1572342 312.792766,14.3028065 C313.243621,13.5218006 313.383604,12.7716716 313.307249,12.0887455 C313.983531,10.7192607 313.818096,8.97198697 312.098305,8.03659615 C280.533049,-9.12373875 244.790119,-19.494771 208.741772,-16.6395586 C192.012895,-15.3154811 175.563985,-11.3486975 160.213123,-4.44496835 C149.599867,0.32824927 135.467038,7.62611396 131.129384,19.528281 C127.549818,16.6839664 121.45056,18.3713025 117.792822,21.3718183 C110.624602,27.2475257 106.577821,36.4833748 104.456261,45.3559654 C101.992924,55.66706 101.652965,66.4304114 101.333004,76.9830729 C101.071217,85.5541589 101.100305,94.1143471 101.282101,102.674535 C98.8787565,99.1636413 95.9045724,96.2085328 93.2667111,94.7700289 C84.6623019,90.0767281 77.2850165,98.0992937 75.5052327,106.181797 C72.9237282,117.907784 76.2742302,130.16776 80.9918388,140.860276 C83.7715011,147.157364 88.8527019,159.095857 97.0626135,159.544481 C96.5335869,167.519823 96.5354048,175.511511 97.131696,183.446895 C97.7188974,191.266036 98.7533172,196.787566 101.569339,203.720356 L101.567521,203.722172 C102.53104,205.5312 103.305491,207.262127 103.830882,209.056624 C104.439899,210.362539 105.099819,211.639393 105.781554,212.905349 C105.659751,213.005245 105.534311,213.097876 105.430688,213.243179 C102.529222,217.309859 99.3877856,220.882507 95.4955312,224.006531 C92.6486044,226.291427 89.2508354,228.134964 86.4220881,230.508859 C55.8348953,244.759493 29.5944471,269.362996 7.7770979,294.800177 C2.87769317,300.510602 -1.83082566,306.386309 -6.42299499,312.352831 C-7.07200705,312.360097 -7.52467932,312.999432 -7.41741963,313.626053 C-13.0403728,320.982039 -18.4706221,328.49241 -23.7099856,336.129921 C-29.3165771,344.299606 -34.7595522,352.612779 -39.3517215,361.419983 C-43.0803594,368.568912 -47.8052399,377.296199 -49.0250916,385.50221 C-49.612293,385.189808 -50.2049483,384.890119 -50.7921497,384.572268 C-52.0629044,383.883893 -53.1736785,385.792817 -51.9247393,386.533864 C-22.9991628,403.679669 9.41144479,413.850909 41.7438801,422.10596 C75.256172,430.662515 109.179323,438.472575 143.642409,441.765514 C207.011073,447.819218 271.5905,439.760326 331.78864,418.900203 C365.342745,407.272296 397.453389,391.64128 427.371572,372.363147 C427.876966,372.226925 428.326002,371.899993 428.567791,371.46045 C429.302247,370.483284 428.718682,369.026617 427.706077,368.676073" id="Fill-12" stroke="none" fill="#3C3C3B" fill-rule="evenodd" mask="url(#mask-4)"></path>
                                    <path d="M224.362357,307.984791 C224.394297,307.988213 224.426236,307.988213 224.459316,307.991635 C224.163878,308.226616 223.868441,308.461597 223.574144,308.695437 C223.837643,308.459316 224.1,308.222053 224.362357,307.984791" id="Fill-15" stroke="none" fill="#3C3C3B" fill-rule="evenodd" mask="url(#mask-4)"></path>
                                    <path d="M150.987783,215.921214 C149.740163,217.077525 147.627616,218.910601 148.490332,220.739525 C148.678359,221.13811 149.364108,221.407986 149.795465,221.243985 C151.357202,220.654411 151.611592,218.622042 152.580488,217.436667 C153.445416,216.377926 152.058435,214.928903 150.987783,215.921214" id="Fill-17" stroke="none" fill="#3C3C3B" fill-rule="evenodd" mask="url(#mask-4)"></path>
                                    <path d="M169.365055,221.101938 C169.123673,222.926563 168.836883,224.827509 168.821348,226.694733 C168.816568,227.298208 169.121283,227.951381 169.523985,228.084501 C169.606437,228.111124 169.693669,228.130649 169.778511,228.135973 C170.184798,228.160822 170.604229,227.672717 170.70102,227.078117 C170.993786,225.258817 171.034414,223.318822 171.101332,221.455148 C171.155105,219.973084 169.561029,219.621649 169.365055,221.101938" id="Fill-19" stroke="none" fill="#3C3C3B" fill-rule="evenodd" mask="url(#mask-4)"></path>
                                    <path d="M201.009181,224.784273 C200.936644,226.403472 200.468574,228.204903 201.042028,229.734884 C201.384184,230.64604 202.417495,230.64604 202.759651,229.734884 C203.334473,228.204903 202.865035,226.401574 202.792498,224.784273 C202.71996,223.172667 201.081718,223.168871 201.009181,224.784273" id="Fill-21" stroke="none" fill="#3C3C3B" fill-rule="evenodd" mask="url(#mask-4)"></path>
                                    <path d="M236.759073,207.654589 C236.333151,207.839954 236.007073,208.628744 236.160001,209.324851 C236.33947,210.149136 236.400135,210.86299 236.42794,211.726715 C236.457009,212.608187 236.478495,213.45022 236.880404,214.120691 C237.171093,214.607769 237.613446,214.505226 237.911718,214.120691 C238.868464,212.892152 238.199879,210.062369 237.8144,208.603108 C237.636195,207.926721 237.245661,207.443588 236.759073,207.654589" id="Fill-23" stroke="none" fill="#3C3C3B" fill-rule="evenodd" mask="url(#mask-4)"></path>
                                    <path d="M188.207212,207.742456 C188.31959,206.284494 186.739606,205.946926 186.565687,207.394533 C186.474714,208.146295 186.231228,208.707527 186.059985,209.411656 C185.891418,210.105431 185.907472,210.739147 186.00112,211.463986 C186.062661,211.954805 186.451971,212.279947 186.748971,212.130838 C188.045334,211.474341 188.066739,209.566979 188.207212,207.742456" id="Fill-25" stroke="none" fill="#3C3C3B" fill-rule="evenodd" mask="url(#mask-4)"></path>
                                    <path d="M162.911177,201.14286 C162.501121,201.973849 161.752738,203.35688 162.042049,204.501928 C162.173554,205.02666 162.485579,205.481168 162.860966,205.270495 C163.496972,204.913521 163.647605,203.81724 164.036143,203.003807 C164.303935,202.442012 164.360123,201.692952 164.036143,201.14286 C163.757591,200.672747 163.182556,200.59472 162.911177,201.14286" id="Fill-27" stroke="none" fill="#3C3C3B" fill-rule="evenodd" mask="url(#mask-4)"></path>
                                    <path d="M132.835956,196.401363 C131.398951,197.524692 129.641583,199.233585 130.117498,201.37269 C130.219348,201.830785 130.734151,202.035932 131.097106,201.806885 C132.398928,200.980322 133.04521,199.392923 134.235924,198.38113 C135.263679,197.51075 133.902599,195.566833 132.835956,196.401363" id="Fill-29" stroke="none" fill="#3C3C3B" fill-rule="evenodd" mask="url(#mask-4)"></path>
                                    <path d="M225.905811,230.870752 C225.880588,232.214258 225.796952,233.585507 225.924397,234.917124 C226.07972,236.522198 227.911739,236.52418 228.06839,234.917124 C228.195835,233.585507 228.110872,232.214258 228.086976,230.870752 C228.048477,228.748487 225.94431,228.744524 225.905811,230.870752" id="Fill-31" stroke="none" fill="#3C3C3B" fill-rule="evenodd" mask="url(#mask-4)"></path>
                                    <path d="M219.278607,206.679957 C218.62493,206.074675 217.49529,206.854752 217.994433,207.620382 C218.30041,208.089872 218.527574,208.641704 219.165797,208.732713 C219.688121,208.807832 220.108452,208.542028 220.148631,208.023421 C220.198081,207.397916 219.70821,207.077218 219.278607,206.679957" id="Fill-33" stroke="none" fill="#3C3C3B" fill-rule="evenodd" mask="url(#mask-4)"></path>
                                    <path d="M249.84435,188.594994 C250.097347,189.833496 250.289527,191.992837 251.092305,192.647069 C251.481531,192.96473 251.861026,192.665977 252.014284,192.057126 C252.339044,190.758118 251.550862,188.850258 251.2334,187.672264 C250.896476,186.424308 249.581623,187.314894 249.84435,188.594994" id="Fill-35" stroke="none" fill="#3C3C3B" fill-rule="evenodd" mask="url(#mask-4)"></path>
                                    <path d="M188.605529,239.458135 C188.249371,240.544552 187.588218,241.477157 187.153352,242.530475 C186.718486,243.583793 188.133276,244.473565 188.997105,243.95372 C190.360734,243.13404 191.029758,241.734159 191.543332,240.270027 C192.190712,238.418446 189.217489,237.589031 188.605529,239.458135" id="Fill-39" stroke="none" fill="#3C3C3B" fill-rule="evenodd" mask="url(#mask-4)"></path>
                                    <path d="M152.036402,232.689519 C152.036402,233.602235 151.545206,234.404832 151.769849,235.317548 C151.915699,235.912613 152.36163,236.221793 152.834385,236.092615 C154.106799,235.738964 154.14368,233.646706 153.823481,232.380339 C153.515017,231.154208 152.034725,231.336328 152.036402,232.689519" id="Fill-41" stroke="none" fill="#3C3C3B" fill-rule="evenodd" mask="url(#mask-4)"></path>
                                    <path d="M130.737345,218.541449 C130.556155,219.206936 130.430057,219.8498 130.294165,220.53791 C130.163169,221.203397 130.004016,221.840606 130.044417,222.547568 C130.092163,223.395923 130.73857,223.946411 131.16461,223.273383 C131.489038,222.762485 131.623706,222.174292 131.796326,221.518231 C131.970171,220.860285 132.157482,220.24947 132.287253,219.56136 C132.550468,218.162517 131.121762,217.136951 130.737345,218.541449" id="Fill-43" stroke="none" fill="#3C3C3B" fill-rule="evenodd" mask="url(#mask-4)"></path>
                                    <path d="M153.339975,278.610123 C151.880645,276.98106 149.395096,276.545089 147.926069,278.393034 C146.671982,279.970067 146.940253,282.444161 148.688864,283.39684 C149.968808,284.094753 152.525465,283.33584 151.780447,281.274394 C151.580052,280.727187 150.886748,280.922746 150.983714,281.521983 C150.508583,282.218102 150.012443,282.40469 149.495293,282.079954 C149.0541,281.943601 148.743811,281.602718 148.567657,281.059099 C148.422209,280.504715 148.69856,279.711714 149.021779,279.299066 C150.077086,277.953474 151.927511,278.663947 152.827674,279.803214 C154.348416,281.726512 154.080145,284.502019 153.971867,286.873848 C153.937929,287.654291 154.985157,287.636349 155.04172,286.873848 C155.250196,284.067841 155.255044,280.745128 153.339975,278.610123" id="Fill-47" stroke="none" fill="#3C3C3B" fill-rule="evenodd" mask="url(#mask-4)"></path>
                                    <path d="M168.709164,288.985502 C167.809121,285.976943 164.581796,285.48023 162.512909,287.633241 C159.353217,290.921092 161.338863,296.293015 162.951658,299.847782 C163.099064,300.169496 163.530877,299.927327 163.475383,299.619754 C163.038368,297.187452 161.93369,294.756917 161.952766,292.257444 C161.966639,290.60468 162.459149,288.755706 163.947083,287.824149 C165.353509,286.910268 166.576112,287.217841 167.613157,288.746868 C168.402213,290.003675 168.22706,290.868062 167.103306,291.34533 C167.120648,291.260483 167.117179,291.166797 167.065154,291.074878 C166.069729,289.293075 164.07021,291.461996 165.526928,292.762995 C167.859412,294.8453 169.236358,290.744326 168.709164,288.985502" id="Fill-49" stroke="none" fill="#3C3C3B" fill-rule="evenodd" mask="url(#mask-4)"></path>
                                    <path d="M178.291505,300.823413 C177.235765,298.687576 174.580526,298.295858 172.712679,299.637624 C170.959586,300.897857 170.42642,303.779907 172.186575,305.300694 C173.718986,306.622963 176.188852,305.646327 175.608019,303.469724 C175.442067,302.849356 174.545217,302.991154 174.524032,303.618612 C172.384305,303.425412 171.944708,302.581712 173.208771,301.087512 C173.817851,300.530954 174.520501,300.268627 175.32025,300.298759 C176.840304,300.426377 177.226938,301.661795 177.474101,302.914938 C177.911933,305.142943 177.731857,307.448938 177.226938,309.645039 C177.082171,310.279587 177.97902,310.525961 178.182047,309.912684 C179.078896,307.200791 179.617359,303.505173 178.291505,300.823413" id="Fill-51" stroke="none" fill="#3C3C3B" fill-rule="evenodd" mask="url(#mask-4)"></path>
                                    <path d="M190.339923,284.725341 C188.637662,283.312523 186.310854,284.178033 185.416055,286.203618 C184.0203,289.367457 185.282576,294.327776 186.098277,297.487979 C186.185615,297.831638 186.721176,297.782544 186.678331,297.398883 C186.42291,295.020548 186.139474,292.63494 186.071911,290.238422 C186.040601,289.098349 185.958207,287.738262 186.503656,286.716378 C188.027946,284.705339 189.324828,285.02536 190.397598,287.678258 C190.115811,288.32739 189.962558,289.003798 189.868629,289.691114 C189.79777,289.643839 189.730207,289.58929 189.628038,289.591108 C189.40063,289.598381 189.173223,289.605654 188.945815,289.612928 C188.754661,289.618383 188.530549,289.729299 188.443212,289.934766 C187.704961,291.698516 189.578602,292.311283 190.568978,291.065748 C191.958142,289.320182 192.098211,286.185435 190.339923,284.725341" id="Fill-53" stroke="none" fill="#3C3C3B" fill-rule="evenodd" mask="url(#mask-4)"></path>
                                    <path d="M202.615677,298.343832 C202.063722,296.435269 200.434378,294.782602 198.523256,295.696011 C196.860761,296.492135 195.599387,299.353203 196.494449,301.212008 C197.205526,302.688746 199.24262,303.319603 200.086299,301.709585 C200.283544,301.331071 199.955354,300.844157 199.560864,300.966774 C198.582926,301.434141 197.941465,300.787291 197.633166,299.026223 C198.178491,296.767579 199.419975,296.666287 201.357618,298.720569 C201.800176,299.49359 201.680835,300.840603 201.689122,301.71314 C201.7173,304.039312 201.360933,306.37437 201.044346,308.666779 C200.98136,309.130592 201.551548,309.320737 201.700725,308.864032 C202.736676,305.6671 203.585327,301.702477 202.615677,298.343832" id="Fill-55" stroke="none" fill="#3C3C3B" fill-rule="evenodd" mask="url(#mask-4)"></path>
                                    <path d="M222.121082,296.807498 C221.416868,294.993543 219.583222,295.177164 218.376479,296.221394 C217.226879,297.21369 216.205012,299.125948 217.028556,300.722896 C217.536128,301.707774 219.48238,302.726037 219.884068,301.136508 C219.954657,300.84902 219.791629,300.607901 219.561373,300.505889 C218.836991,300.181306 217.993279,300.38533 218.263872,299.046193 C218.415135,298.285742 219.702552,296.48106 220.591643,297.085712 C221.220226,297.514162 221.000054,298.910796 220.971482,299.561817 C220.922742,300.665399 220.900893,301.77269 220.929464,302.876273 C220.944591,303.471651 221.803429,303.664546 221.902591,303.022799 C222.181587,301.210698 222.81185,298.586213 222.121082,296.807498" id="Fill-57" stroke="none" fill="#3C3C3B" fill-rule="evenodd" mask="url(#mask-4)"></path>
                                    <path d="M214.69979,284.066848 C212.968191,283.826373 211.653028,284.793908 211.290826,286.452807 C210.703942,289.128088 211.257898,292.351952 211.397356,295.06105 C211.422536,295.560786 212.168247,295.564544 212.189553,295.06105 C212.27284,293.156039 212.315452,291.252908 212.340632,289.346018 C212.350316,288.577627 212.210859,287.508642 212.480089,286.774067 C213.820432,283.104949 218.622035,287.80172 215.001948,289.004094 C214.426685,289.195722 214.531279,290.007324 215.14528,290.039262 C216.78778,290.123804 218.025467,288.733559 217.855019,287.119749 C217.690381,285.541634 216.270625,284.284778 214.69979,284.066848" id="Fill-59" stroke="none" fill="#3C3C3B" fill-rule="evenodd" mask="url(#mask-4)"></path>
                                    <path d="M238.295853,283.952979 C237.820549,282.736417 236.390923,282.756213 235.332628,283.072951 C234.131371,283.43468 233.082359,283.988972 232.839137,285.293716 C232.534645,286.933195 232.785294,288.959598 233.050796,290.593678 C233.126919,291.066986 233.771179,290.879822 233.825022,290.491098 C234.010688,289.110769 233.812026,287.714242 233.964272,286.342911 C234.066388,285.403495 234.344886,284.451481 235.431031,284.314708 C236.041871,283.976374 236.465189,284.25172 236.702841,285.140746 C236.585872,285.272121 236.498609,285.423291 236.441053,285.590658 C236.273953,285.916394 236.552452,286.373505 236.95349,286.24573 C237.911525,285.941589 238.696891,284.976978 238.295853,283.952979" id="Fill-61" stroke="none" fill="#3C3C3B" fill-rule="evenodd" mask="url(#mask-4)"></path>
                                    <path d="M190.599019,313.984867 C188.610137,313.043298 186.757748,314.483454 186.229329,316.333231 C185.38698,319.28583 186.496463,323.070644 187.512353,325.839748 C187.763888,326.527391 188.883121,326.251222 188.660834,325.533924 C188.019323,323.459875 187.635195,321.369146 187.592298,319.202424 C187.580599,318.58336 187.475305,317.297042 187.759988,316.740997 C190.298736,315.873567 191.41602,316.381422 191.109888,318.264561 C191.25223,318.685302 191.230781,319.033757 191.059191,319.319193 C190.985096,319.272856 190.9149,319.219105 190.815456,319.213544 C190.606818,319.204277 190.398181,319.196863 190.191493,319.187596 C189.986755,319.178328 189.746919,319.304365 189.655275,319.484153 L189.501234,319.78071 C189.390091,319.993861 189.347193,320.281151 189.501234,320.492448 C190.517123,321.884414 192.08288,321.320955 192.539153,319.802952 C193.126068,317.847527 192.671745,314.96536 190.599019,313.984867" id="Fill-63" stroke="none" fill="#3C3C3B" fill-rule="evenodd" mask="url(#mask-4)"></path>
                                    <path d="M207.207327,313.593915 C208.152003,313.20215 207.231193,312.236859 206.322315,312.647046 C205.351784,313.084252 205.017667,313.94761 205.636182,314.599733 C206.135368,315.124134 207.41615,314.656226 206.944807,314.120773 C206.733995,313.880064 206.883154,313.729007 207.207327,313.593915" id="Fill-65" stroke="none" fill="#3C3C3B" fill-rule="evenodd" mask="url(#mask-4)"></path>
                                    <path d="M226.798783,277.354194 C225.711009,276.710483 224.837155,278.06539 224.719709,278.927132 C224.633023,279.555268 225.727787,279.675964 225.884382,279.076379 C226.033986,278.505345 226.621216,278.330142 226.941396,277.865528 C227.06024,277.691623 226.973554,277.458018 226.798783,277.354194" id="Fill-67" stroke="none" fill="#3C3C3B" fill-rule="evenodd" mask="url(#mask-4)"></path>
                                    <path d="M154.166436,294.615836 C153.974801,295.223973 153.894953,295.872397 154.17214,296.424901 C154.329554,296.737602 154.594193,296.524658 154.666056,296.202364 C154.736779,295.883908 154.718528,295.573124 154.824611,295.271933 C155.077843,294.552528 154.397995,293.879164 154.166436,294.615836" id="Fill-69" stroke="none" fill="#3C3C3B" fill-rule="evenodd" mask="url(#mask-4)"></path>
                                    <path d="M173.280831,280.695715 C173.16334,280.449213 173.167903,280.205955 173.172466,279.915667 C173.177028,279.537806 172.902123,279.378877 172.691097,279.516723 C172.158397,279.867015 172.143568,280.778423 172.424177,281.417381 C172.766382,282.19905 173.641287,281.451437 173.280831,280.695715" id="Fill-71" stroke="none" fill="#3C3C3B" fill-rule="evenodd" mask="url(#mask-4)"></path>
                                    <path d="M214.271824,158.39746 C212.653714,162.531117 209.001565,165.832958 204.411751,166.150792 C200.799735,166.399611 197.906473,164.803176 195.283201,162.620111 C195.040576,161.065449 192.793099,160.12466 191.941174,161.868207 C187.380548,171.197996 171.469435,180.794765 163.070586,169.487141 C157.752896,162.325887 167.476151,147.752746 170.993306,141.588583 C179.536271,126.617696 190.795545,114.549086 201.910703,101.561482 C202.366766,101.029337 201.744696,100.019533 201.097087,100.511722 C191.007158,108.203304 182.71594,118.686376 175.502853,129.045947 C169.045006,138.323066 160.489272,150.062945 158.767179,161.577615 C157.433652,170.496945 162.470408,177.040692 171.606254,177.859795 C180.909932,178.691612 189.363508,173.473687 194.00805,165.767575 C201.049657,173.315678 214.417765,168.954996 217.757967,159.354594 C218.531449,157.137021 215.101858,156.277961 214.271824,158.39746" id="Fill-73" stroke="none" fill="#3C3C3B" fill-rule="evenodd" mask="url(#mask-4)"></path>
                                    <path d="M128.628429,99.718017 C128.406199,100.012889 128.452497,100.51399 128.898808,100.602632 C138.284303,102.456887 149.46245,101.288254 158.742386,99.0088777 C165.781508,97.2812552 171.235392,93.1005897 171.100202,85.4158353 C171.016866,80.5694472 168.37789,70.7970736 161.944344,70.7229035 C156.823804,70.6650145 155.231159,75.9654689 154.721883,80.6653257 C152.977381,77.7672616 150.334701,75.3829616 146.740138,76.850084 C143.367804,78.2231368 143.115944,82.3459135 143.590034,86.083367 C141.114026,84.0210741 137.650949,83.4041953 134.169352,84.894835 C128.324715,87.3949128 126.583917,93.9291248 128.504351,99.5063606 C128.532129,99.591385 128.587687,99.6456558 128.628429,99.718017" id="Fill-2" stroke="none" fill="#3C3C3B" fill-rule="evenodd" mask="url(#mask-4)"></path>
                                    <path d="M217.249092,84.582208 C220.204458,100.804301 245.404195,105.698571 258.773269,100.909088 C259.625283,100.601954 259.87739,99.834119 259.69337,99.1909444 C259.798262,99.0446041 259.890272,98.8783904 259.949158,98.6760433 C261.362434,93.8666869 262.924766,81.6463688 256.599989,79.0646369 C253.324428,77.7295075 250.531,80.0149454 248.606148,83.0230516 C248.223386,78.1847884 246.569044,73.2887118 241.955655,72.2318097 C237.614617,71.2363343 234.55988,74.4233008 232.977306,78.2678952 C231.587952,73.6283658 228.759561,69.5236108 223.426653,71.0448272 C217.784591,72.6545705 215.499059,78.9453966 217.372386,84.0293669 C217.265654,84.1739006 217.208608,84.3599876 217.249092,84.582208" id="Fill-4" stroke="none" fill="#3C3C3B" fill-rule="evenodd" mask="url(#mask-4)"></path>
                                    <path d="M164.250408,115.407001 C164.207836,113.623155 161.490642,113.621355 161.438815,115.407001 C161.261124,121.833166 159.821085,131.675819 151.351137,132.133031 C142.883041,132.590243 140.365749,121.345353 140.232481,115.144194 C140.225077,114.803985 139.708662,114.717583 139.617965,115.061392 C137.724444,122.36238 141.811341,134.077081 150.692199,134.579294 C161.066774,135.167909 164.44846,123.52341 164.250408,115.407001" id="Fill-6" stroke="none" fill="#3C3C3B" fill-rule="evenodd" mask="url(#mask-4)"></path>
                                    <path d="M254.138762,115.212113 C253.915144,113.418191 251.086282,113.366063 251.28263,115.212113 C252.048023,122.384204 250.451788,137.555243 239.830832,134.774485 C231.062453,132.479057 229.969814,120.906645 230.060716,113.547612 C230.069806,112.839391 228.989894,112.677614 228.818998,113.380443 C226.606451,122.465092 229.589845,136.208903 240.516231,137.871606 C252.686153,139.724846 255.247763,124.100832 254.138762,115.212113" id="Fill-8" stroke="none" fill="#3C3C3B" fill-rule="evenodd" mask="url(#mask-4)"></path>
                                    <path d="M232.568138,172.289001 C229.28256,181.220848 222.36613,188.192131 213.459818,191.966348 C202.748982,196.503104 192.436123,194.992018 181.383645,192.984232 C180.445947,192.814585 179.715415,194.110551 180.689458,194.59151 C201.318811,204.745867 228.190397,194.098308 236.006363,173.214192 C236.791412,171.110215 233.338649,170.19202 232.568138,172.289001" id="Fill-10" stroke="none" fill="#3C3C3B" fill-rule="evenodd" mask="url(#mask-4)"></path>
                                </g>
                            </g>
                        </g>
                    </g>
                </g>
            </g>
        </g>
    </g>
</svg>