<?xml version="1.0" encoding="UTF-8" standalone="no"?>
<svg width="183px" height="221px" viewBox="0 0 183 221" version="1.1" xmlns="http://www.w3.org/2000/svg" xmlns:xlink="http://www.w3.org/1999/xlink">
    <!-- Generator: Sketch 46.2 (44496) - http://www.bohemiancoding.com/sketch -->
    <title>Betreuungsproblem</title>
    <desc>Created with Sketch.</desc>
    <defs>
        <polygon id="path-1" points="0.661824615 59 57.3690992 59 57.3690992 0.257222388 0.661824615 0.257222388"></polygon>
    </defs>
    <g id="home" stroke="none" stroke-width="1" fill="none" fill-rule="evenodd">
        <g id="Mobile-Portrait-Copy-2" transform="translate(-69.000000, -1099.000000)">
            <g id="betreuungsproblem" transform="translate(20.000000, 1077.000000)">
                <g id="Betreuungsproblem" transform="translate(49.000000, 22.000000)">
                    <rect id="Rectangle-7" fill="#4E1029" transform="translate(91.500000, 110.500000) rotate(-90.000000) translate(-91.500000, -110.500000) " x="-19" y="103" width="221" height="15"></rect>
                    <path d="M0.427767816,64.3254692 L12.508507,39.7144365 C13.0239074,38.6634565 14.0924632,37.998246 15.2619918,38.0000035 L40.8318215,38.0237296 C41.9846677,38.0246084 43.0391751,38.6731227 43.5615997,39.702134 L55.5431221,63.3131541 C56.4861204,65.1708227 55.9303309,67.4379867 54.2357436,68.6480197 C52.1495574,70.1383725 49.2283698,69.4318609 48.052695,67.1523944 L39.9599431,51.4694186 L38.2846724,67.4511679 L42.2138321,100.941927 C42.5905046,104.153742 40.0819886,106.975395 36.8508584,106.973638 L36.8394441,106.973638 C34.114934,106.97188 31.8180219,104.938462 31.4852506,102.231925 L28.1865126,75.4328157 L24.9905034,102.238955 C24.6673903,104.955159 22.3652101,107 19.6319198,107 C16.4113259,107 13.9072,104.195922 14.2689461,100.992894 L18.0400614,67.5381638 L16.2524035,51.5792618 L7.87780574,68.0531088 C6.85929732,70.0575279 4.43682771,70.8914576 2.4015669,69.9388972 C0.289917969,68.9511869 -0.60039888,66.4195204 0.427767816,64.3254692" id="Fill-1" fill="#4E1029"></path>
                    <path d="M39.9999143,22.4555292 C40.0241729,28.8067829 34.8957295,33.9756557 28.5444741,33.9999143 C22.1932186,34.0241729 17.0243443,28.8948325 17.0000857,22.5435788 C16.9758271,16.1923251 22.1042705,11.0243507 28.4555259,11.0000921 C34.8067814,10.9749351 39.9756557,16.1042755 39.9999143,22.4555292" id="Fill-3" fill="#4E1029"></path>
                    <path d="M161.999911,22.4559593 C162.024575,28.8066337 156.895397,33.9752548 150.544483,33.9999176 C144.192688,34.0236996 139.023871,28.895596 139.000089,22.5440407 C138.975425,16.1933663 144.104603,11.0247452 150.455517,11.0000824 C156.807312,10.9763004 161.975248,16.104404 161.999911,22.4559593" id="Fill-5" fill="#4E1029"></path>
                    <path d="M120.815127,63.5425388 L139.293563,39.3267698 C139.93124,38.4902121 140.9219,38 141.97287,38 L160.834444,38 C161.874771,38 162.857449,38.4804434 163.496013,39.302792 L182.163357,63.3258508 C183.514984,65.0655711 183.194815,67.574356 181.449408,68.917111 C179.905325,70.1053426 177.728888,69.9961105 176.310744,68.659572 L163.123517,53.4461226 L169.028458,79.1165428 L160.791873,79.1165428 L161.621119,104.899747 C161.690297,107.10659 159.928925,108.936893 157.72322,108.948438 L157.720559,108.948438 C155.694007,108.959095 153.993831,107.421853 153.798714,105.402392 L151.568176,81.7283434 L149.41391,105.440579 C149.225889,107.450271 147.546998,108.989289 145.531088,108.999946 C143.315627,109.01149 141.53031,107.182964 141.592392,104.965464 L142.329401,79.1982449 L134.121197,79.2017971 L139.816831,53.5455859 L126.712085,68.8327448 C125.306358,70.1754998 123.135242,70.3024931 121.583177,69.1311348 L121.57963,69.1284706 C119.821806,67.8017008 119.478578,65.294692 120.815127,63.5425388" id="Fill-7" fill="#4E1029"></path>
                    <g id="Group-11" transform="translate(122.000000, 158.000000)">
                        <mask id="mask-2" fill="white">
                            <use xlink:href="#path-1"></use>
                        </mask>
                        <g id="Clip-10"></g>
                        <path d="M0.661824615,0.257222388 L20.1069938,10.1005358 L35.4305938,10.0714761 C36.09804,10.0705955 36.7565631,10.2229388 37.3526246,10.5179388 L56.0197015,19.7377896 C57.6062246,20.9829537 57.8266246,23.2786701 56.5060092,24.7950582 C55.3977631,26.0666403 53.7987477,26.0208493 52.0525015,25.5726254 L37.3142554,20.4484313 L43.1258554,41.7659239 L36.8725631,41.8469388 L36.5673938,55.7154612 C36.5281323,57.5004313 35.0629631,58.9340433 33.2542554,58.9569388 L33.2533631,58.9569388 C31.5231785,58.9798343 30.0597938,57.7012075 29.8715169,56.004297 L28.4206246,42.0741328 L27.0277323,56.0315955 C26.8483785,57.7232224 25.4001631,59.0053716 23.6771169,59.0000881 C21.8612708,58.9939239 20.3791477,57.5647149 20.3309631,55.7735806 L19.9597631,41.9112224 L13.7064708,41.8909687 L19.3190862,20.5232821 L0.661824615,6.19332687 L0.661824615,0.257222388 Z" id="Fill-9" fill="#4E1029" mask="url(#mask-2)"></path>
                    </g>
                    <path d="M147.532375,162.999935 C152.226699,162.981807 156.017206,159.161951 155.999941,154.467628 C155.981813,149.773306 152.161092,145.981937 147.466768,146.000065 C142.772444,146.018193 138.981937,149.838912 139.000065,154.532372 C139.018193,159.226694 142.83805,163.018063 147.532375,162.999935" id="Fill-12" fill="#4E1029"></path>
                    <path d="M26.5323717,161.999935 C31.2266943,161.981807 35.0180634,158.161951 34.9999353,153.467628 C34.9818071,148.773306 31.1610877,144.981937 26.4667651,145.000065 C21.7724425,145.018193 17.9819366,148.838049 18.0000648,153.532372 C18.0181929,158.226694 21.838049,162.018063 26.5323717,161.999935" id="Fill-14" fill="#4E1029"></path>
                    <path d="M36.3763625,190.706461 L38.9998375,212.165581 C39.3141915,214.734258 37.3229864,217 34.7511616,217 C32.6851528,217 30.9139064,215.514899 30.5407781,213.469637 L27.9929973,199.505928 L25.4452166,213.469637 C25.0720883,215.514899 23.3008419,217 21.2339425,217 L21.2339425,217 C18.6621178,217 16.6718032,214.734258 16.9852666,212.165581 L19.6096322,190.706461 L17.9007223,178.396348 L7.63479556,185.818266 C6.36491254,186.735139 4.6034619,186.487771 3.63279395,185.254519 C2.6915132,184.05891 2.81262406,182.336301 3.91419861,181.286782 L17.6264418,168.211265 C18.4759989,167.401047 19.6016175,166.949333 20.7717621,166.94754 L27.9929973,166.94037 L39.0995759,166.935889 L49.3655026,159.553407 C50.6353856,158.635638 52.3968363,158.883902 53.3675042,160.116257 C54.3087849,161.312762 54.1867836,163.034475 53.0860995,164.083994 L38.0505421,178.421443 L36.3763625,190.706461 Z" id="Fill-16" fill="#4E1029"></path>
                </g>
            </g>
        </g>
    </g>
</svg>
