<?xml version="1.0" encoding="UTF-8" standalone="no"?>
<svg width="254px" height="254px" viewBox="0 0 254 254" version="1.1" xmlns="http://www.w3.org/2000/svg" xmlns:xlink="http://www.w3.org/1999/xlink">
    <!-- Generator: Sketch 46.2 (44496) - http://www.bohemiancoding.com/sketch -->
    <title>Partner</title>
    <desc>Created with Sketch.</desc>
    <defs>
        <polygon id="path-1" points="260.586686 0.836679402 260.586686 364.827806 0.208264092 364.827806 0.208264092 0.836679402"></polygon>
        <polygon id="path-3" points="0.442883257 0.883627794 0.442883257 286.594953 199.522136 286.594953 199.522136 0.883627794"></polygon>
    </defs>
    <g id="home" stroke="none" stroke-width="1" fill="none" fill-rule="evenodd">
        <g id="Mobile-Portrait-Copy-2" transform="translate(-33.000000, -3835.000000)">
            <g id="gleichb.-partner" transform="translate(10.000000, 3730.000000)">
                <g id="Page-1" transform="translate(17.813688, 0.813688)">
                    <g id="Partner" transform="translate(-0.000000, 0.412928)">
                        <g id="Group-18" transform="translate(-0.000000, 0.000000)">
                            <g id="Partner" transform="translate(-0.000000, 0.775665)">
                                <g id="Group-28" transform="translate(107.022678, 0.000000)">
                                    <mask id="mask-2" fill="white">
                                        <use xlink:href="#path-1"></use>
                                    </mask>
                                    <g id="Clip-27"></g>
                                    <path d="M289.446347,374.918586 C266.262184,379.065593 242.608739,380.686933 219.190942,382.960838 C195.104468,385.301208 170.985768,388.249832 146.770393,388.715087 C122.728229,389.180341 98.6921067,387.51469 74.8271824,384.670799 C51.0408074,381.836977 27.5766865,376.970942 3.85073415,373.865218 C14.5878353,354.014371 22.7348198,333.303508 36.3641508,315.32979 C36.3641508,315.353959 36.3581086,315.376114 36.3581086,315.400283 C36.460827,317.643976 38.1788438,319.541247 40.5010868,319.541247 C42.666231,319.541247 44.7407413,317.63592 44.642051,315.400283 C44.5413466,313.156589 42.8213158,311.259318 40.5010868,311.259318 C40.1466074,311.259318 39.7981702,311.325783 39.4577894,311.420445 C39.9613113,310.812191 40.4487205,310.19588 40.964327,309.595682 C41.4537503,309.027709 41.9673426,308.491962 42.4607941,307.930032 C42.6138647,308.163666 42.7629072,308.3973 42.9320906,308.626906 C51.489949,320.298544 67.6368895,314.256281 77.7999757,305.587648 C78.6942306,309.482893 83.8462668,311.887714 87.4011315,312.487912 C95.2520451,313.815196 102.107999,309.074033 106.857218,303.277489 C112.279142,296.657183 115.668851,288.733762 117.388882,280.365228 C122.33951,284.385347 128.830914,286.913027 134.603289,289.068101 C141.082609,291.489034 148.198381,292.76798 155.074476,292.115415 C156.639422,296.858592 159.388652,301.102274 163.686715,304.471843 C185.789312,321.792997 221.102311,314.767859 243.233106,300.330879 C241.577526,314.040773 255.619745,324.673142 269.245048,323.176675 C270.13326,323.077985 270.999318,322.9229 271.863361,322.759759 C280.723333,338.413248 284.777691,357.696123 289.446347,374.918586 M167.53765,239.662531 C165.018027,243.394636 162.470206,247.930361 160.244639,252.889045 C138.498535,259.998774 112.287198,240.103616 111.427183,240.037152 C110.113998,239.177136 108.816925,238.305036 107.546036,237.404739 C92.3195335,226.605201 82.6358001,208.125947 75.3166057,191.354639 C73.6569974,187.554056 72.1242768,183.654782 70.7003168,179.691058 C70.9863172,179.799819 71.3226699,179.783706 71.5744308,179.546044 C77.5925247,173.914655 86.1664957,171.803891 94.4786354,171.977102 C94.1583955,172.055652 93.8300992,172.136215 93.5440987,172.206708 C88.792866,173.388978 83.8180696,175.695108 80.2994585,179.123085 C79.8664296,179.546044 80.311543,180.291256 80.8875721,180.132143 C85.8321572,178.772634 90.0597271,175.644756 95.1392562,174.589374 C97.9267534,174.009317 101.799844,174.496726 104.581299,173.3064 C104.633665,173.320499 104.686032,173.328555 104.738398,173.342654 C106.772626,173.854232 107.644726,170.68003 105.604455,170.200677 C93.6689722,167.389011 78.3457935,167.932814 70.291457,178.539 C67.1353817,169.562211 64.613744,160.234971 62.9259385,150.764731 C63.0346993,148.563333 63.1152628,146.351865 63.1776995,144.140397 C64.8655049,134.692312 68.6922714,127.002525 74.680154,119.306696 C78.5351177,114.354055 82.3779969,109.061033 85.7918754,103.49208 C90.4524742,97.0550563 94.4484241,89.9795665 96.7464981,82.6704424 C101.924717,95.8667446 111.646718,105.854605 128.355589,109.230216 C142.103752,112.005629 155.610223,112.936137 168.776314,117.681328 C162.37353,118.343963 155.910322,121.171742 150.488398,124.047859 C143.853994,127.568484 133.654654,132.283463 131.078636,139.838306 C130.667762,141.044744 132.202497,141.620773 133.014174,140.966195 C139.112831,136.049807 145.835856,131.60673 152.709937,127.850456 C160.45209,123.620872 167.634326,122.611814 175.962579,120.66822 C191.690589,128.005541 206.284668,139.47577 210.37528,157.167516 C214.453808,174.808909 209.190997,192.323415 198.957417,206.849015 C190.059178,219.471303 176.08141,226.999962 167.53765,239.662531 M115.850119,245.779315 C128.943703,253.086425 144.04936,259.148829 158.80658,256.282782 C154.722011,266.44184 152.216486,277.938253 154.009024,287.875761 C148.969776,288.586734 143.904346,288.469917 138.071548,286.612928 C130.756382,284.286657 123.650681,281.585765 118.007207,276.846617 C119.54597,266.466009 118.641645,255.593964 115.850119,245.779315 M49.0126212,131.967251 C47.9169575,137.808105 36.5937568,61.1660288 107.872318,39.7200236 C117.37277,38.4712893 126.840996,37.4582032 136.730166,38.211472 C153.122825,39.4622204 169.052244,44.5719607 182.643307,53.9414964 C193.791283,61.6272548 202.542493,72.3965814 208.866728,84.2937971 C211.905987,90.01582 214.177878,96.0459984 215.833458,102.291684 C216.099317,104.881801 216.103345,107.208072 215.783105,109.121455 C215.783105,109.121455 186.083369,42.8700567 106.126104,58.8619125 C75.6650428,64.9545276 55.8665614,95.4135749 49.0126212,131.967251 M342.656528,211.602262 C340.650496,183.533937 337.228562,163.441399 324.751289,138.220993 C299.532897,87.2424214 259.438455,36.8217515 234.46981,24.2961405 C202.762029,8.3888764 170.492317,-4.95445417 135.094727,3.41407995 C133.82988,3.52686886 132.561004,3.6497282 131.269974,3.84106653 C108.494671,7.20257879 86.6337641,16.8923544 68.3357779,30.7714323 C38.3238581,53.5366648 8.24144519,97.2463946 28.1970255,134.067945 C24.8637104,138.438515 22.1467062,143.203846 20.2595061,148.16253 C18.9604196,150.752647 17.8426009,153.4052 16.9523742,156.025528 C15.5807805,159.115139 14.6019339,162.377961 14.1749474,165.725374 C12.4367897,179.336578 19.4840824,191.962894 30.6763673,199.17937 C23.6753987,215.517649 22.7710734,234.021072 30.2050708,250.498323 C35.103332,261.362311 44.0055993,269.893987 55.2401801,271.148763 C45.445672,279.585776 35.9129952,293.583685 40.9623129,305.211013 C40.2734949,305.982409 39.5806488,306.753804 38.9019012,307.533256 C22.2393542,326.632849 10.8456605,350.405126 0.376432979,373.335513 C0.0320239934,374.09281 0.253573633,374.809826 0.706743351,375.283136 C0.80140547,375.740334 1.09143409,376.149194 1.61912505,376.278095 C25.0993587,381.953794 49.4355796,385.254884 73.393152,388.237748 C98.1946271,391.327358 123.207581,393.172262 148.210465,392.662698 C172.893109,392.161191 197.501232,389.132003 222.059002,386.791633 C245.732589,384.533841 269.619668,383.063557 293.051563,378.852099 C295.04551,378.493592 285.700144,343.140312 274.864352,322.048786 C289.716234,317.845385 300.759477,304.149589 307.23074,290.01875 C307.6396,290.274539 308.01422,290.552483 308.463362,290.776047 C316.435121,294.776025 325.571022,290.121469 330.712988,283.855642 C346.175139,265.011838 344.271826,234.208382 342.656528,211.602262" id="Fill-26" fill="#3C3C3B" mask="url(#mask-2)"></path>
                                    <path d="M123.556623,191.848091 C124.541512,191.646682 124.559638,190.02937 123.556623,189.840045 C120.54959,189.272073 117.447895,189.276101 114.404609,188.961903 C111.67552,188.679931 109.258615,187.82193 106.694681,187.259999 C114.164932,175.86832 116.932289,162.506862 105.798412,152.376001 C94.9505361,142.506972 76.7834657,140.148475 63.4320788,145.342807 C62.9305709,145.53616 63.1178811,146.255189 63.6556425,146.152471 C76.8761137,143.594579 90.7692902,143.665072 101.651406,152.79896 C113.427776,162.680074 110.01994,174.379909 104.60003,186.859196 C104.390565,187.342577 104.537593,187.77762 104.823594,188.049522 C104.795396,188.440255 105.012918,188.796748 105.32913,189.020312 C107.780274,190.760483 111.163942,191.062597 114.066242,191.4634 C117.214261,191.898443 120.410618,192.496627 123.556623,191.848091" id="Fill-2" fill="#3C3C3B" mask="url(#mask-2)"></path>
                                    <path d="M157.173759,197.613618 C156.158659,197.220871 155.226137,198.207774 155.175785,199.136268 C155.15363,199.537072 155.220094,199.917734 155.320799,200.292355 C153.36512,202.133231 151.296652,203.601501 149.139564,204.769671 C148.966352,204.578333 148.73876,204.411164 148.430605,204.290319 C146.611884,203.58136 141.300735,200.439383 138.777083,201.93585 C138.670336,201.869385 138.565604,201.815005 138.456843,201.746526 C137.82442,201.355793 136.897939,201.597483 136.539432,202.248034 C136.344065,202.604527 136.152727,202.963035 135.955346,203.317514 C135.077204,204.151347 134.458879,205.299376 133.745892,206.35073 C133.248412,206.600477 132.700581,206.820013 132.144692,207.023435 C130.086295,205.71025 127.639178,204.372896 125.729823,204.735432 C123.760046,205.112066 122.164888,207.41014 120.964492,209.206706 C120.054124,209.194622 119.143757,209.180523 118.237417,209.170453 C118.223319,209.114058 118.221305,209.057664 118.205192,209.003284 C117.862797,207.823028 116.152837,207.821014 115.808428,209.003284 C115.498258,210.072764 115.584864,211.216766 116.567739,211.879401 C116.809429,212.042542 117.206204,212.042542 117.447895,211.879401 C117.747994,211.675978 117.941346,211.418175 118.090389,211.138217 C119.621096,211.675978 121.161873,212.04657 122.704664,212.300345 C124.050074,218.362749 130.984578,220.838063 136.87377,219.873315 C142.350075,218.977046 148.333929,213.51484 147.103321,207.629676 C147.326885,207.526957 147.552463,207.432295 147.774013,207.327563 C148.45276,207.428267 149.000592,207.087886 149.290621,206.588393 C151.878723,205.315489 154.39029,203.953966 156.787055,202.594457 C157.433577,202.938866 158.247268,202.98519 158.889762,202.608555 C159.788045,202.084893 160.360046,200.61058 159.655115,199.692156 C158.9381,198.755606 158.293592,198.044633 157.173759,197.613618" id="Fill-4" fill="#3C3C3B" mask="url(#mask-2)"></path>
                                    <path d="M171.643771,155.527444 C164.614605,154.075287 156.648888,155.197134 149.710356,158.049082 C157.609608,152.838637 166.813989,150.073295 176.54606,151.632199 C177.907583,151.84972 178.47757,149.757083 177.118061,149.559703 C163.678054,147.608052 149.919821,151.1891 141.32571,162.214215 C140.638906,163.096386 141.569414,164.234345 142.453599,163.752978 C142.657021,163.809373 142.888642,163.805344 143.136374,163.69457 C152.646896,159.462972 161.150374,157.831561 171.456461,156.913137 C172.193617,156.846672 172.479617,155.698642 171.643771,155.527444" id="Fill-6" fill="#3C3C3B" mask="url(#mask-2)"></path>
                                    <path d="M27.9841364,338.879711 C25.2469913,338.879711 22.6226351,341.286545 22.7495226,344.114324 C22.8764102,346.95016 25.0496107,349.348938 27.9841364,349.348938 C30.7212815,349.348938 33.3436236,346.940089 33.2187502,344.114324 C33.0918626,341.278489 30.9186621,338.879711 27.9841364,338.879711" id="Fill-8" fill="#3C3C3B" mask="url(#mask-2)"></path>
                                    <path d="M59.398264,332.600188 C52.4778589,332.600188 52.4657744,343.35743 59.398264,343.35743 C66.3186692,343.35743 66.3307537,332.600188 59.398264,332.600188" id="Fill-10" fill="#3C3C3B" mask="url(#mask-2)"></path>
                                    <path d="M90.1711062,326.507372 C90.0502609,323.79641 87.9717225,321.502364 85.1660984,321.502364 C82.5497986,321.502364 80.0402454,323.804466 80.1631047,326.507372 C80.28395,329.218334 82.3624884,331.512379 85.1660984,331.512379 C87.7844123,331.512379 90.2919514,329.210277 90.1711062,326.507372" id="Fill-12" fill="#3C3C3B" mask="url(#mask-2)"></path>
                                    <path d="M114.371376,346.309277 C112.778233,346.309277 111.10654,347.002123 109.978651,348.130012 C108.901114,349.205535 108.091451,350.973904 108.15993,352.520723 C108.310986,355.888278 110.889019,358.734184 114.371376,358.734184 C115.964519,358.734184 117.638226,358.041338 118.764101,356.913448 C119.841638,355.835912 120.653315,354.069557 120.582822,352.520723 C120.43378,349.155183 117.855748,346.309277 114.371376,346.309277" id="Fill-14" fill="#3C3C3B" mask="url(#mask-2)"></path>
                                    <path d="M151.819106,329.820546 C151.684162,326.817541 149.384074,324.277777 146.276337,324.277777 C143.376051,324.277777 140.598624,326.827612 140.733568,329.820546 C140.868512,332.82355 143.1686,335.363315 146.276337,335.363315 C149.176623,335.363315 151.95405,332.81348 151.819106,329.820546" id="Fill-16" fill="#3C3C3B" mask="url(#mask-2)"></path>
                                    <path d="M123.452293,292.587719 C120.729247,292.587719 118.121003,294.982469 118.247891,297.794136 C118.372764,300.613858 120.53388,302.998538 123.452293,302.998538 C126.17534,302.998538 128.783583,300.603788 128.65871,297.794136 C128.531822,294.972399 126.370706,292.587719 123.452293,292.587719" id="Fill-24" fill="#3C3C3B" mask="url(#mask-2)"></path>
                                </g>
                                <g id="Group-51" transform="translate(0.000000, 78.632014)">
                                    <mask id="mask-4" fill="white">
                                        <use xlink:href="#path-3"></use>
                                    </mask>
                                    <g id="Clip-50"></g>
                                    <path d="M13.9293144,203.318221 C13.9778813,203.054573 14.0241354,202.766641 14.0727022,202.492585 C14.5780286,203.519427 15.2649023,204.405193 16.42935,204.902425 C16.995963,205.142947 17.5417617,205.212328 18.0621206,205.168386 C17.2145137,206.475065 16.2940566,207.728552 15.2799349,208.902251 C15.3019056,209.002853 15.3076874,209.104613 15.326189,209.206372 C15.3215636,209.208684 15.3169382,209.212153 15.3123128,209.214466 C14.4196082,208.705671 13.5269035,208.199188 12.6341989,207.692705 C13.2817567,206.262297 13.6795422,204.669998 13.9293144,203.318221 M41.9142171,238.888801 C48.6707886,242.013267 56.3165956,244.454328 63.6825652,245.536675 C70.0286313,246.468696 76.48802,246.040845 82.3773266,243.482992 C78.2815237,248.080652 66.2161349,247.982362 61.9330029,247.968486 C54.0686451,247.943046 47.6011619,247.054967 40.745144,243.022763 C34.4349249,239.312026 28.8370193,236.493993 23.9144239,230.83827 C19.3537671,225.598834 14.4103574,218.805259 15.7251309,211.600023 C20.7656743,223.097642 30.5669236,233.640114 41.9142171,238.888801 M85.4231608,243.254034 C85.8151645,244.415012 86.2164191,245.562115 86.2349207,246.853761 C86.271924,249.500654 85.3294962,251.897774 83.6527841,253.908672 C81.9379124,255.963511 79.7616558,257.291005 77.3784119,258.062292 C79.7882519,255.245416 79.1823228,251.135737 76.6244697,248.786027 C80.29936,247.739528 84.1511723,245.987653 85.4231608,243.254034 M72.6038298,255.221133 C72.6315822,256.686232 72.093878,258.036853 71.1479811,258.915681 C71.0392839,258.914525 70.9305867,258.904117 70.8207332,258.899492 C70.5871499,256.613382 70.2587456,254.353868 69.8147059,252.144077 C69.6944452,251.548555 69.3163177,251.238652 68.8757472,251.1473 C68.6803235,250.821209 68.4652418,250.513619 68.2270331,250.236094 C68.9913825,250.166713 69.7476375,250.09155 70.4865471,250.008293 C71.5434539,251.653783 72.5633574,253.146635 72.6038298,255.221133 M75.4923999,257.152242 C75.1177415,257.507243 74.700298,257.798644 74.2585711,258.043791 C74.4112097,257.694572 74.5349395,257.322226 74.621666,256.922128 C75.148963,254.489161 74.346454,251.555493 72.57839,249.705328 C73.3751173,249.566566 74.2574148,249.387331 75.1744028,249.166468 C77.034975,251.468767 77.9334614,254.843005 75.4923999,257.152242 M66.766559,273.593272 C66.4439365,281.153508 64.7857261,288.292833 63.3680371,295.67846 C63.3321902,295.870415 63.3379719,296.045024 63.3703498,296.203445 C62.9933787,296.427777 62.5481827,295.902793 61.6635726,294.541765 C60.0863069,292.115736 59.1496608,289.012084 58.0985358,286.343221 C57.7446917,285.448204 56.4368563,284.767112 55.679445,285.704914 C53.7356154,288.105504 51.7328117,290.450588 49.6178418,292.703164 C48.2313744,294.180983 46.458685,296.542256 44.5102299,297.894033 C45.0294325,291.432332 45.8134399,284.998383 46.9478224,278.613001 C48.0810484,272.232244 49.0940138,265.519614 52.1525679,259.73091 C52.1849458,259.668467 52.2069165,259.60718 52.2277309,259.545893 C57.156108,259.054443 61.8705598,257.541933 66.0369002,254.678803 C66.2670145,260.993648 67.038302,267.233329 66.766559,273.593272 M19.9377254,248.434496 C13.4933693,244.78042 7.66997483,240.083314 2.75778663,234.536287 C-0.106500125,231.303124 -3.23790446,227.310237 -5.61536654,223.027105 C-5.53557818,222.725296 -5.72059468,222.358732 -6.01777744,222.278944 C-7.60429397,219.282833 -8.80343219,216.161836 -9.25787897,213.066278 C-5.31471472,214.686329 -1.30795105,216.064702 2.82601147,217.160925 C3.94189226,217.456951 4.91785432,215.975663 3.99739721,215.150027 C-0.190913905,211.393035 -3.69466396,207.159627 -5.93336366,202.200028 C-4.26012065,204.087196 -2.10814743,204.2699 -0.081060356,203.166739 C0.622002361,203.598059 1.32969049,204.02244 2.03853497,204.443353 C2.29755808,207.738959 3.45044217,210.721194 6.15630855,211.619681 C7.55665222,212.084535 8.73035067,211.813948 9.71671991,211.084289 C9.99193196,210.964028 10.2613622,210.813703 10.5203853,210.611341 C10.8869493,210.324565 11.2049464,209.971877 11.5021292,209.59375 C12.5567232,210.11064 13.6170991,210.612497 14.6867258,211.092384 C12.8469679,217.550616 16.9936503,224.386976 20.8026776,229.427519 C26.9452255,237.555526 34.7806745,243.021607 43.9413042,247.364869 C50.0260345,250.24997 57.565457,250.820053 64.5845206,250.485866 C54.0732705,253.43688 43.4926391,255.498657 34.264941,248.212476 C34.0221068,248.020522 33.5699727,248.273763 33.7896798,248.57904 C40.2305669,257.53037 52.005711,256.266476 61.7352665,254.012744 C48.9922547,260.460569 31.4989442,254.988706 19.9377254,248.434496 M147.507762,89.8105959 C143.859467,85.3436037 135.736086,83.0574935 130.442302,81.2027031 C123.032391,78.6066902 115.312577,76.9773886 107.544197,75.9066056 C79.2921764,72.0131646 47.372204,73.0908857 21.3993558,86.136862 C21.3068476,83.998765 20.7309837,81.7149675 20.3146965,80.069477 C20.0348591,78.9616907 18.4992221,79.0657624 18.1719742,80.069477 C17.3555888,82.5648871 16.9427708,85.0903624 16.9300509,87.6597791 C15.2753095,85.1065513 14.3247872,82.0479972 12.3023256,79.7121639 C11.6593932,78.9686288 10.4544732,79.761887 10.7007764,80.6441845 C11.2731712,82.7001804 12.21213,84.5827233 13.4494279,86.3207221 C13.999852,87.093166 14.5930611,87.9511801 15.2649023,88.7213113 C15.3759122,88.9097968 15.4903912,89.097126 15.6094956,89.2809862 C9.50626363,89.1676636 2.60746072,99.4592066 0.423109619,103.571198 C-5.19907941,114.154143 -6.88735501,126.723701 -8.55250355,138.437559 C-10.171398,149.831106 -11.0085976,161.380762 -10.3795415,172.883006 C-10.4292647,174.361982 -10.773858,187.740988 -9.62213022,194.978602 C-10.037261,195.235313 -10.3113167,195.768392 -10.214183,196.280656 C-8.94103821,202.962065 -5.56911242,208.631664 -1.08130583,213.505693 C-4.11442015,212.54592 -7.09434223,211.454322 -10.0395737,210.180021 C-10.8073922,209.846991 -11.8851133,210.213555 -11.8365465,211.211488 C-11.6573118,214.901411 -10.4674244,218.595959 -8.76295983,222.118211 C-11.8145758,223.500053 -14.5551328,226.016277 -17.1742727,228.097713 C-17.6645664,228.486248 -18.1548601,228.880564 -18.6463102,229.272568 C-25.4583866,234.360522 -31.3268789,240.817598 -36.7709895,247.276986 C-41.0414017,252.344126 -45.4945177,257.343041 -48.3333647,263.390768 C-50.1846861,267.332776 -52.7263503,271.50721 -48.8537236,274.747312 C-43.6582289,279.094043 -35.8274054,281.13385 -29.467463,282.894976 C-25.0918227,284.106834 -20.6664592,285.118643 -16.2202813,286.032162 C-12.9188931,286.882082 -9.6151921,287.725063 -6.3126475,288.565732 C2.1021344,290.706142 10.5122909,292.528554 19.1063075,293.795917 C26.5798179,294.897922 34.2580029,296.343363 41.8402105,295.93864 C41.6852592,297.373674 41.540715,298.809865 41.4112035,300.247212 C41.3221643,301.254395 42.4068235,301.815227 43.2509613,301.648712 C46.0828702,301.085568 47.9954783,298.604034 49.9450897,296.60123 C52.1548806,294.330153 54.2513489,291.959629 56.2726542,289.522036 C57.1630461,291.715638 58.092754,293.898833 59.1565989,296.006865 C59.9209484,297.519375 60.7535226,299.818205 62.8210821,299.972 C65.4668181,300.16858 66.7584646,296.770058 67.4823416,294.182139 C75.3860154,293.673344 83.4839566,291.952691 91.1262946,289.944105 C98.0944786,288.111285 106.712779,285.730354 112.565082,281.366277 C115.183066,279.41551 114.915948,276.562786 113.786191,273.823386 C112.780164,269.403804 109.372391,264.048733 108.226445,262.129186 C102.601943,252.69797 95.6742315,242.271134 85.1525742,237.750949 C84.5408633,237.487301 83.9915956,238.141797 84.4379479,238.677188 C84.4587623,238.701472 84.4795766,238.724599 84.500391,238.748882 C84.2899347,238.907302 84.1523287,239.158231 84.1442342,239.416098 C83.9314652,239.577987 83.7730449,239.817352 83.7580123,240.143444 C83.7383543,240.610611 83.6574095,241.048868 83.5325234,241.461686 C83.3070345,241.337957 83.0329788,241.297484 82.7404215,241.442028 C76.2486549,244.65669 68.8792162,244.869459 61.8601526,243.569718 C55.0191674,242.304668 47.6878884,240.118004 41.4551449,237.002789 C30.103226,231.328564 21.8734606,221.319171 16.3125583,210.151112 C16.3044638,210.100233 16.2709296,210.052822 16.2524279,210.003099 C21.1495835,204.324249 24.85107,197.850984 26.1057131,190.154297 C26.1230584,190.050225 26.0825861,189.954248 26.0178303,189.881398 C26.1461855,189.136706 26.2537263,188.417455 26.3381401,187.747926 C27.0562354,182.063294 26.894346,175.839801 26.3439219,170.154013 C26.3150131,169.84411 26.1508109,169.644061 25.9484491,169.531895 C25.8004359,169.345722 25.5969177,169.200022 25.3448328,169.167644 C20.5239965,168.5409 17.248048,163.755911 15.4140719,159.717926 C14.6277517,157.985709 14.0333862,156.134387 13.6818549,154.261095 C13.4228318,152.866533 11.861755,149.610243 15.8361408,144.64255 C18.8172192,143.648086 20.4997131,143.533607 21.9613434,146.75752 C22.4377609,147.745045 26.6249157,163.966367 26.6885151,165.023274 C26.796056,166.814465 30.8733572,165.311206 30.7392202,163.520015 C29.7204731,149.856546 29.7193167,137.858226 33.0299558,124.591386 C37.2032343,125.553472 41.4643957,126.223 45.6272671,126.786144 C59.7925932,128.704534 74.1047761,128.599306 88.3672359,128.839828 C95.7632707,128.96587 103.166244,129.176326 110.540308,129.806539 C117.175462,130.374308 123.913532,131.706427 130.581064,130.870384 C132.912272,130.577826 138.522898,129.753347 137.604753,125.999824 C137.387359,125.114058 136.742114,124.401744 135.859816,123.814317 C138.515959,123.292801 140.684122,122.135292 141.285425,119.850338 C142.319205,115.922206 138.016415,113.674256 133.527452,112.361795 C138.165584,111.39624 142.492658,109.303241 141.707494,104.528659 C141.295832,102.01706 139.125358,100.878052 136.90169,100.200429 C136.199784,99.9865037 135.487471,99.7991745 134.767063,99.6245651 C143.522969,98.3849546 152.302002,95.6802445 147.507762,89.8105959" id="Fill-49" fill="#3C3C3B" mask="url(#mask-4)"></path>
                                    <path d="M119.53847,129.911304 C119.599756,141.4228 119.318763,152.943546 119.110619,164.453886 C118.902475,175.967694 119.715392,188.273604 116.871919,199.514513 C114.28747,209.733206 108.229336,219.335563 99.192436,224.983192 C90.2919858,230.546407 76.5845755,233.320498 67.6263076,226.456385 C67.1787989,226.114105 66.6503455,226.842607 67.0342548,227.22536 C73.7087252,233.863984 85.6237881,232.714569 93.7055403,229.605135 C103.522979,225.828486 111.216196,217.994193 115.65081,208.542162 C120.933032,197.285064 120.782706,185.264773 121.046354,173.088375 C121.35857,158.696403 121.368977,144.302119 121.618749,129.911304 C121.641876,128.573404 119.531532,128.569935 119.53847,129.911304" id="Fill-29" fill="#3C3C3B" mask="url(#mask-4)"></path>
                                    <path d="M84.7929483,240.952891 C85.1375416,237.793734 85.6278353,234.66233 85.8440734,231.42801 C85.8880148,230.772358 84.8287953,230.447423 84.5558959,231.079948 C83.0734512,234.524724 82.5137763,238.55924 82.2871311,242.511655 C83.0734512,241.91729 83.8967746,241.393462 84.7929483,240.952891" id="Fill-31" fill="#3C3C3B" mask="url(#mask-4)"></path>
                                    <path d="M101.479471,198.077282 C98.8406733,201.888622 94.0984691,203.746882 89.5655647,203.278558 C85.3610646,202.84377 82.6887325,200.602757 79.8626054,197.673715 C79.5966442,197.399659 79.1838261,197.747721 79.350341,198.069188 C84.3295976,207.742082 96.5626576,206.02721 102.930694,199.196632 C103.830337,198.231077 102.251915,196.962558 101.479471,198.077282" id="Fill-33" fill="#3C3C3B" mask="url(#mask-4)"></path>
                                    <path d="M103.139532,181.272927 C98.5730932,179.834423 96.6257945,172.116922 95.8302235,167.978335 C94.9733659,163.522906 95.4636596,159.383162 95.854507,154.909231 C95.8753213,154.66871 95.5307281,154.654833 95.4578778,154.854883 C93.4585432,160.359124 93.889863,166.831232 95.5180082,172.385196 C96.5460061,175.893572 98.0134183,180.383691 101.287054,182.387651 C99.0957648,184.376579 96.9276027,186.390946 94.7525024,188.398375 C93.8551724,189.226324 95.1976984,190.565381 96.0915594,189.736275 C98.5800313,187.431664 101.083536,185.139772 103.544255,182.803938 C104.061145,182.312488 103.776682,181.474132 103.139532,181.272927" id="Fill-35" fill="#3C3C3B" mask="url(#mask-4)"></path>
                                    <path d="M61.3145852,164.4429 C58.6341586,165.090458 56.1769081,166.243342 54.3452447,168.099289 C55.7744972,163.928323 58.3843863,161.404004 63.1289033,160.658157 C67.2119863,160.016381 71.5101509,161.008532 73.8471407,164.462558 C66.5077672,163.520131 61.3724029,164.372363 61.3145852,164.4429 M58.969501,166.515085 C59.0585402,166.479238 59.1498921,166.451486 59.2400876,166.416795 C59.2747782,166.620313 59.3580357,166.823832 59.4412931,167.008848 C59.4806091,167.299093 59.5650229,167.59165 59.6737201,167.870331 C59.3140942,167.460982 59.0539148,166.992659 58.969501,166.515085 M75.6834295,164.755116 C71.1112091,156.253607 53.193517,158.129212 53.5103578,169.022059 C53.4016606,169.259111 53.6271494,169.617581 53.8873289,169.416375 C55.1593174,168.435788 56.5238141,167.624028 57.9461285,166.962594 C58.2918781,169.072938 60.9029235,170.859504 62.9600757,170.50566 C65.0114462,170.152972 67.1021327,166.979939 66.1747375,164.94707 C69.0424933,164.81409 71.9472524,165.226908 74.7201873,166.214433 C75.2613606,166.407544 75.6290809,165.939221 75.6406444,165.478993 C75.7770941,165.281256 75.82913,165.025702 75.6834295,164.755116" id="Fill-37" fill="#3C3C3B" mask="url(#mask-4)"></path>
                                    <path d="M107.127794,162.118746 C105.244095,162.226287 102.782219,162.826434 101.030344,164.054481 C102.284987,162.217036 103.900412,160.74153 106.253591,160.184167 C109.561917,159.40016 112.93153,161.131221 113.922525,164.230247 C112.013386,162.731613 109.648644,161.975358 107.127794,162.118746 M103.464467,163.998976 C103.65064,163.923813 103.841438,163.856745 104.032236,163.790833 C104.012578,163.845181 103.985982,163.894905 103.984826,163.961973 C103.977888,164.432609 103.982513,164.999222 104.0438,165.56121 C103.80906,165.06629 103.628669,164.537837 103.493376,164.055638 C103.487594,164.033667 103.472562,164.019791 103.464467,163.998976 M115.555296,165.838734 C115.568016,165.775135 115.584204,165.715004 115.57611,165.639842 C115.164448,161.7464 112.061953,158.847423 108.11185,158.77226 C103.791715,158.689003 100.009284,161.880537 98.8922467,165.965933 C98.7638915,166.4331 99.4415144,166.756879 99.6935994,166.341748 C99.7525734,166.331341 99.8127038,166.308214 99.865896,166.25849 C100.639496,165.539239 101.532201,164.927528 102.490818,164.440703 C102.806502,166.599615 104.2531,168.885725 106.716132,168.691458 C109.270516,168.491408 110.35055,165.846829 110.543661,163.647445 C110.544817,163.625474 110.536723,163.611598 110.536723,163.589627 C112.089705,164.093797 113.498143,165.046632 114.564301,166.545266 C115.067315,167.251798 116.055997,166.522139 115.555296,165.838734" id="Fill-39" fill="#3C3C3B" mask="url(#mask-4)"></path>
                                    <path d="M116.46708,143.800956 C115.432144,143.00076 114.345172,143.142991 113.366897,143.670288 C113.672175,142.478088 113.564634,141.322891 112.291489,140.875382 C110.898083,140.386245 109.195931,141.452403 107.816402,142.681606 C108.021077,140.437125 106.971108,138.349907 104.112603,139.357091 C99.7496826,140.892728 98.3030848,145.795665 97.7757877,149.923846 C97.7133446,150.410671 98.4106256,150.573716 98.6823686,150.259188 C101.375515,150.177087 104.018938,149.345669 106.759495,149.374578 C109.908245,149.406956 112.922858,150.038325 115.870402,151.112577 C116.579246,151.3716 116.960843,150.468488 116.583872,149.980507 C117.436104,148.204349 118.284867,145.207081 116.46708,143.800956" id="Fill-41" fill="#3C3C3B" mask="url(#mask-4)"></path>
                                    <path d="M75.3825464,143.937637 C74.8725946,143.557197 74.3626429,143.461219 73.9139779,143.575698 C73.7497757,140.386476 71.9990571,137.266636 68.4814308,136.911635 C65.2447983,136.585543 63.5206757,138.943348 63.0222875,141.664247 C61.4438655,139.15496 58.6478036,137.285137 55.6389727,138.666979 C53.4696541,139.663756 52.7203373,142.08169 53.0418035,144.343517 C50.4006929,142.237798 46.5754766,140.746102 44.6779011,143.818532 C42.3987291,147.509612 46.9385715,152.795302 50.6273381,153.564277 C50.7406607,153.723854 50.9499606,153.817518 51.1407589,153.691476 C51.1627296,153.677599 51.187013,153.667192 51.2078274,153.653316 C51.2182346,153.654472 51.2297981,153.656785 51.2390489,153.657941 C51.5743913,153.681069 51.7860039,153.504146 51.884294,153.26825 C54.939379,151.588069 59.0837487,151.094307 62.4013259,150.56354 C66.9770153,149.831569 71.5885517,149.67893 76.1804301,150.35771 C76.5955608,150.418996 76.9748447,150.194664 76.9898773,149.740217 C77.0476949,147.974466 76.9713756,145.124055 75.3825464,143.937637" id="Fill-43" fill="#3C3C3B" mask="url(#mask-4)"></path>
                                    <path d="M94.0825114,192.682548 C94.0628534,192.5646 94.0131302,192.481342 93.9529998,192.414274 C93.9217783,192.050022 93.7448563,191.696178 93.3540089,191.44525 C90.1497543,189.382316 86.7096037,186.994446 82.7456251,186.875342 C78.406988,186.744674 74.0706637,189.395036 70.1853171,190.996585 C69.0971888,191.44525 68.891358,193.046799 70.1853171,193.421457 C76.1208779,195.142111 80.6121535,199.802214 87.0507279,198.791561 C90.4862531,198.252701 94.7844177,196.865077 94.0825114,192.682548" id="Fill-45" fill="#3C3C3B" mask="url(#mask-4)"></path>
                                    <path d="M113.325153,187.595288 C110.090833,187.457682 101.294455,186.406557 97.8658676,189.339068 C97.7513887,189.33213 97.6334406,189.343694 97.5131799,189.406137 C92.9536794,191.736188 95.5392851,197.031129 99.8964238,197.475169 C104.857179,197.981652 110.88756,194.44668 113.365625,190.001658 C113.458134,189.988939 113.551798,189.970437 113.645463,189.957717 C115.038868,189.769232 114.615643,187.649636 113.325153,187.595288" id="Fill-47" fill="#3C3C3B" mask="url(#mask-4)"></path>
                                </g>
                            </g>
                        </g>
                    </g>
                </g>
            </g>
        </g>
    </g>
</svg>