<?xml version="1.0" encoding="UTF-8"?>
<svg width="222px" height="223px" viewBox="0 0 222 223" version="1.1" xmlns="http://www.w3.org/2000/svg" xmlns:xlink="http://www.w3.org/1999/xlink">
    <!-- Generator: Sketch 46.2 (44496) - http://www.bohemiancoding.com/sketch -->
    <title>Group 14</title>
    <desc>Created with Sketch.</desc>
    <defs>
        <polygon id="path-1" points="0.412 222.772 222.412 222.772 222.412 0.772 0.412 0.772"></polygon>
        <polygon id="path-3" points="0 354 0 251.779906 0 0 354 0 354 354"></polygon>
    </defs>
    <g id="home" stroke="none" stroke-width="1" fill="none" fill-rule="evenodd">
        <g id="Tablet" transform="translate(-84.000000, -1952.000000)">
            <g id="alleinerziehender" transform="translate(63.000000, 1931.000000)">
                <g id="Page-1" transform="translate(20.000000, 20.000000)">
                    <g id="Group-75" transform="translate(0.000000, 0.724000)">
                        <g id="Group-14">
                            <mask id="mask-2" fill="white">
                                <use xlink:href="#path-1"></use>
                            </mask>
                            <g id="Mask"></g>
                            <g mask="url(#mask-2)">
                                <g transform="translate(1.000000, -65.000000)">
                                    <mask id="mask-4" fill="white">
                                        <use xlink:href="#path-3"></use>
                                    </mask>
                                    <g id="Clip-13" stroke="none" fill="none"></g>
                                    <path d="M320.753962,332.984236 C334.782112,325.842845 348.215795,317.360752 361.815227,309.41685 C364.060815,312.70173 366.298434,315.991388 368.526491,319.28423 C368.354366,319.333591 368.179054,319.405243 368.003742,319.527849 C354.056873,329.17231 339.297194,336.920361 324.559827,345.133359 C323.638641,341.044375 322.346114,336.980868 320.753962,332.984236 M-31.1435077,316.500918 C-30.9634144,316.169724 -30.7673837,315.849675 -30.5856967,315.520072 C-25.3374919,321.706093 -17.0707327,325.471843 -10.1825635,329.278993 C-1.60502383,334.020813 7.17173405,338.030182 16.6051152,340.547582 C15.0735255,343.420062 13.5499046,346.29891 12.0645335,349.196866 C-4.90089005,344.684335 -22.3412499,338.259471 -36.3614313,327.393729 C-34.796373,323.678932 -33.0544088,320.045341 -31.1435077,316.500918 M-18.3632605,296.108545 C-16.5288591,293.433509 -14.6530203,290.787134 -12.7676191,288.147128 C-3.87770528,302.909187 14.6591516,310.410434 30.5185156,314.770106 C28.4243337,317.964227 26.6489009,321.567564 24.9802491,324.912952 C15.6775552,322.521342 7.60842039,317.340052 -0.602557749,312.448557 C-7.14488408,308.550647 -13.8800536,302.820019 -21.0837845,300.121099 C-20.1833181,298.778804 -19.2780705,297.439694 -18.3632605,296.108545 M31.1751389,237.311888 C57.1484135,266.624233 102.1797,263.770861 136.948857,271.630372 C137.353669,271.721132 137.69473,271.635149 137.983198,271.471144 C140.00088,273.670087 142.056812,275.830816 144.203588,277.905561 C146.090583,279.728726 148.536983,282.091674 151.251132,284.341571 C128.092412,283.701473 105.330535,279.251041 83.0101259,273.00292 C71.2897196,269.722817 59.690438,266.019165 48.1357812,262.191316 C37.7700588,258.756761 27.5398048,255.688431 18.1000487,250.121808 C22.3314437,245.665007 26.6903383,241.39928 31.1751389,237.311888 M77.8256709,203.752923 C78.5906689,203.36759 79.3413232,202.931305 80.0808212,202.46795 C80.131821,202.582595 80.1780397,202.700424 80.232227,202.813476 L80.232227,202.813476 C80.3421955,203.045949 80.4489765,203.283199 80.5732886,203.507711 C85.5617128,214.018374 92.2761637,223.29024 99.865581,231.856725 C91.9016335,223.03866 84.5369343,213.730171 77.7141087,203.872344 C77.7348274,203.861198 77.7858273,203.795915 77.8256709,203.752923 M85.1074953,200.568356 C85.7194937,199.299306 86.5928663,198.065287 87.5841762,196.874259 C89.3117966,195.402989 90.9485735,193.809113 92.368601,192.038494 C93.1304114,191.355404 93.8906282,190.672315 94.6667824,190.003556 C94.6779386,189.994002 94.6795323,189.984448 94.6890948,189.974895 C101.358921,200.768984 111.09352,209.610934 122.852176,215.527859 C146.280239,227.315533 175.339005,228.602098 200.583938,222.849178 C219.700918,218.494283 238.247338,208.278192 249.935869,192.25186 C251.166241,195.936404 252.73608,199.536557 254.497169,203.006142 C254.436607,203.073018 254.372857,203.138302 254.317076,203.219508 C242.472358,220.46553 228.201958,235.745081 213.164967,250.155246 C199.318504,263.425336 185.138948,278.577505 168.283493,287.941723 C167.631651,287.220419 166.390123,286.940177 165.730312,287.787272 C165.151782,288.529276 162.107728,286.882855 158.971236,284.865432 C158.45805,284.392524 157.962395,283.937131 157.495428,283.562944 C154.357342,281.047136 151.225632,278.526552 148.103484,275.988452 C146.653175,274.80857 145.215617,273.612765 143.770089,272.426514 C142.560436,271.174979 141.366721,269.909114 140.193724,268.619364 C133.45696,261.215246 126.914634,253.838197 119.497341,247.106023 C114.088168,242.197013 109.157119,237.138329 104.56235,231.877425 C102.504824,227.939708 98.9428022,224.688265 96.2621219,221.247341 C92.1311329,215.949814 88.9516101,209.954867 85.2302137,204.324553 C84.7345588,202.944043 84.5879342,201.643147 85.1074953,200.568356 M88.338018,167.190912 C86.820772,158.196103 86.7570222,148.753862 87.4933327,139.421489 C87.7308008,139.117363 87.7387695,138.679485 87.5809887,138.29256 C88.0957686,132.275321 88.9308914,126.313812 89.9206075,120.554523 C90.8290426,115.263365 91.9621958,109.984946 93.296161,104.752702 C93.5415978,104.561628 93.7679097,104.32597 93.9511905,104.017067 C102.152606,90.204009 108.19609,74.916496 112.736672,59.4968235 C114.934447,52.0337912 116.741755,44.4529299 118.155407,36.7972313 C123.637893,42.9004536 132.648931,46.8302091 139.733131,49.8651012 C154.873716,56.3504715 170.976923,60.1480674 187.39091,61.0970684 C189.924966,61.2419661 190.965682,58.3838174 190.05406,56.3966478 C190.001466,56.2820033 189.937716,56.1800972 189.881935,56.0702297 C202.607995,56.824972 215.592242,54.8393946 227.707897,50.4399155 C242.472358,64.9201408 248.058436,86.844291 252.332863,106.672996 C252.626112,108.032806 253.682765,108.758887 254.839825,108.892639 C259.874467,129.355073 265.814358,150.158256 257.314912,169.413739 C248.307061,189.817259 235.842375,206.649287 208.952697,217.338285 C167.287402,233.901217 97.3809314,220.799909 88.338018,167.190912 M74.233368,123.810742 C70.8928769,116.847687 68.3731649,109.328925 68.1086031,101.528329 C67.8599787,94.2022326 72.2411858,77.8685894 82.6483456,86.6341096 C85.4007445,88.9524742 87.4630515,92.0844957 88.9197352,95.3757455 C88.9930475,97.8183082 89.0727347,100.260871 89.1699532,102.705026 C89.2225468,104.004329 90.1166382,104.899192 91.1589479,105.173065 C90.8911987,106.136397 90.6170744,107.096544 90.3604813,108.064652 C88.4782676,103.111058 84.0396856,93.6799636 78.7962621,96.94096 C76.4391121,98.4058608 76.6558616,102.818078 76.9570795,105.152366 C77.5069218,109.446754 79.3891355,113.929032 82.2913465,117.124744 C82.984626,117.885856 83.9743421,116.917748 83.610968,116.092945 C82.4379712,113.435424 80.8346629,111.013561 79.9246341,108.233434 C79.5453226,107.075844 79.2871358,105.915069 79.1389174,104.704934 C79.0002616,103.932676 78.9492617,103.15405 78.9859179,102.370646 C78.5157629,100.506083 79.1580424,99.631919 80.9127565,99.7449711 C82.8953762,99.2402173 83.348,99.6956103 84.6086529,101.138219 C85.4326194,102.079259 86.1577738,103.249587 86.7888971,104.340301 C87.8710504,106.204865 88.7348606,108.179296 89.8664201,110.012014 C87.6558948,118.831672 86.1067739,127.831258 85.3354009,136.875428 C79.680791,134.1367 77.0734229,129.726075 74.233368,123.810742 M260.687278,104.141266 C261.978212,101.408907 262.142368,100.921669 265.218297,101.985314 C268.405789,103.088766 268.128477,103.427923 267.519666,106.837001 C266.663824,111.620221 263.992707,115.616852 261.873025,119.873026 C261.192495,121.240797 263.04124,122.32355 263.890707,121.06883 C266.974605,116.510123 274.75049,102.252817 267.744384,97.7912394 C265.293203,96.2308016 262.655554,97.9361372 260.92634,99.8596155 C261.353464,97.7753165 261.582963,95.6305108 261.715244,93.4363443 C261.783775,92.2994539 261.837962,91.159379 261.89215,90.0193041 C263.60702,88.1069717 265.763358,86.810853 268.600226,86.9032055 C277.781795,87.2057393 276.900453,99.8898689 275.636613,105.940546 C274.603866,110.898916 272.837995,115.68532 270.378846,120.09913 C267.978665,124.406256 264.722642,127.786674 261.684963,131.522171 C261.015589,125.172145 260.137436,118.694736 258.967626,112.287387 C259.235375,109.51363 259.488781,106.674588 260.687278,104.141266 M256.322008,206.427959 C256.487758,206.724124 256.642351,207.031435 256.811288,207.326007 C242.542482,231.979331 220.759165,250.47211 198.829224,267.996781 C198.671443,268.012704 198.515256,268.028627 198.357475,268.041365 C203.769836,263.153055 209.159884,258.239269 214.447932,253.214022 C229.657048,238.76405 243.944979,223.4431 256.322008,206.427959 M308.963431,240.631799 C312.965326,244.733521 316.787128,249.024725 320.460712,253.468788 C320.371463,253.507003 320.282213,253.54681 320.191369,253.604132 C310.310146,259.903205 299.125238,262.903067 287.964236,265.977766 C276.176893,269.224432 264.319424,272.230663 252.38705,274.880223 C229.111987,280.04559 206.103079,282.19358 182.536361,284.185527 C183.631264,283.389385 184.64648,282.637827 185.532603,282.005691 C190.84137,278.212872 196.075231,274.23694 201.224624,270.133626 C219.077764,270.448898 237.866432,264.500127 254.844606,260.259876 C273.215713,255.669323 291.599571,250.031048 308.407213,241.090377 C308.646275,240.962994 308.827962,240.805358 308.963431,240.631799 M352.759564,296.32828 C339.945848,303.681445 326.462759,310.376997 314.069792,318.368667 C313.939105,318.453058 313.837105,318.556556 313.759012,318.674385 C313.199607,317.704685 312.632233,316.741353 312.048922,315.787576 C311.978798,315.344921 311.726986,314.915004 311.357237,314.684123 C310.14599,312.74313 308.894899,310.838759 307.611934,308.978972 C321.777146,305.345381 335.277767,296.817111 346.85633,287.991084 C348.838949,290.758473 350.804038,293.5386 352.759564,296.32828 M294.31372,313.870466 C296.248527,313.610924 298.168991,313.109355 300.067142,312.696953 C301.853731,312.308436 303.769413,312.153985 305.398221,311.373766 C306.182344,312.763829 306.93778,314.173 307.690028,315.582171 C303.096852,317.324129 298.234334,319.419574 294.246782,322.132825 C294.336032,319.261938 294.347188,316.481811 294.31372,313.870466 M292.041038,341.555498 C294.723312,342.525198 298.664645,339.819909 301.099889,338.866131 C305.995876,336.945837 310.805801,334.829693 315.593413,332.648264 C316.761629,335.757994 317.854938,338.890015 318.97056,342.015668 C308.547463,347.212881 297.765773,351.287534 286.834271,355.228435 C289.239233,351.303457 290.907885,346.595075 292.041038,341.555498 M249.250558,354.674321 C249.586839,353.480108 248.672029,351.860756 247.10697,352.067753 C243.925854,347.760626 241.594204,342.517237 239.836302,336.992014 C239.810802,336.734064 239.72474,336.477706 239.598834,336.242048 C237.995526,331.033689 236.881497,325.605595 236.025656,320.502327 C252.367925,328.761501 273.888274,327.482897 291.01626,322.462428 C290.418605,341.302325 286.319491,364.009878 266.397669,362.845919 C264.453299,362.732867 262.633241,362.430333 260.931121,361.965387 C260.701622,361.810935 260.429091,361.718583 260.119904,361.710621 C255.765791,360.350811 252.194207,357.884364 249.250558,354.674321 M42.5560773,347.193773 C52.2396766,350.591706 61.9997756,353.806526 71.8379681,356.720405 C90.1899505,362.158053 109.032807,366.352127 128.184849,367.240621 C148.235765,368.168923 168.653242,365.756613 188.614907,364.016248 C208.071355,362.318873 227.384366,359.842873 246.557128,356.089861 C248.880809,358.819034 251.57424,361.113515 254.688419,362.814074 C235.357877,366.837774 215.687866,368.625908 196.04495,370.428373 C174.669632,372.388474 153.252876,373.988718 131.777152,373.995088 C91.1812604,374.007826 53.0237995,366.509763 16.3548971,348.911847 C18.2243609,345.184312 20.1193246,341.46633 22.0461632,337.767456 C28.0035848,342.520422 35.45594,344.700258 42.5560773,347.193773 M234.847878,312.760645 C253.481953,314.655462 272.802933,311.747953 290.949322,307.471079 C291.043353,310.770291 291.140572,314.733484 291.092759,318.997619 C282.110408,321.750677 272.879433,323.185324 263.476333,322.975143 C253.810265,322.758592 245.001632,320.136102 235.654313,318.218992 C235.357877,316.330544 235.093315,314.501011 234.847878,312.760645 M236.416124,335.570105 C219.029951,338.877277 201.079593,339.536482 183.462327,340.745026 C165.647437,341.967899 147.800672,342.888239 129.93797,342.732195 C96.5442149,342.440807 58.944565,340.579428 28.7845203,324.604049 C30.6970152,320.86696 32.7131035,317.169678 34.9746288,313.735122 C42.2102345,316.747722 49.9526514,319.857452 57.6759433,321.11854 C65.9809525,322.473574 74.064431,322.487904 82.2738153,324.812638 C98.1953355,329.320392 113.026733,332.05912 129.585752,332.75654 C164.417065,334.22144 199.293004,332.339362 233.821506,327.559327 C234.063755,327.525889 234.255004,327.446275 234.41916,327.344368 C234.970596,330.083096 235.632001,332.845708 236.416124,335.570105 M374.955661,323.206024 C358.62933,298.167367 341.128407,273.421691 322.017802,250.488033 C306.513843,231.882202 286.050148,213.887807 262.948803,205.259223 C259.80753,202.873983 257.781879,200.910697 256.076571,197.215007 C254.683638,194.200815 253.81664,191.03854 252.806205,187.908111 C254.146545,185.733052 255.389667,183.483155 256.470227,181.113838 C262.644398,167.569875 263.552833,152.35083 262.276242,137.679531 C262.194961,136.736899 262.107305,135.789491 262.018056,134.838897 C262.078618,134.808644 262.142368,134.776798 262.206118,134.733807 C273.324088,127.203898 283.214874,105.349809 278.156325,91.9873664 C276.341049,87.1914088 271.953467,83.6597242 266.724387,84.6294248 C264.917079,84.9653966 263.374333,85.7089929 262.040368,86.7248697 C262.223649,82.1040633 262.320867,77.4737032 262.333617,72.8560813 C262.371867,59.651275 261.327964,46.4560225 257.702192,33.7257167 C257.622505,33.4438825 257.510943,33.1970786 257.385037,32.9709743 C264.000675,27.1384402 269.73816,20.3011753 274.214992,12.5387937 C274.610241,11.8541118 274.732959,11.1964988 274.666022,10.5978002 C275.258895,9.39721854 275.113864,7.86544191 273.606181,7.04541596 C245.933973,-7.99847764 214.599338,-17.0904159 182.996953,-14.5873464 C168.331305,-13.4265718 153.911093,-9.94902481 140.453504,-3.89675559 C131.149216,0.287765193 118.759437,6.68555991 114.95676,17.119793 C111.818674,14.6262772 106.471657,16.1055085 103.265041,18.7359607 C96.9809012,23.8869975 93.4332231,31.9837586 91.5733218,39.762063 C89.4137963,48.8014559 89.1157659,58.2373274 88.8352666,67.4884939 C88.6057672,75.0024793 88.6312672,82.506911 88.7906417,90.0113427 C86.6837099,86.9334589 84.0763418,84.3428138 81.7638167,83.0817253 C74.220618,78.967265 67.7531978,86.0003808 66.1929207,93.0860419 C63.9298017,103.365824 66.8670751,114.113737 71.0028454,123.487509 C73.4396826,129.007955 77.894202,139.474034 85.0915578,139.867328 C84.6277778,146.859045 84.6293716,153.865092 85.1521202,160.821778 C85.6669001,167.676558 86.5737414,172.517099 89.0424536,178.594845 L89.0408598,178.596438 C89.8855451,180.182352 90.5644808,181.699798 91.0250733,183.272974 C91.5589781,184.417826 92.1375078,185.537201 92.7351625,186.647022 C92.6283815,186.734598 92.5184131,186.815804 92.4275696,186.943187 C89.8839513,190.50831 87.1299587,193.640331 83.717749,196.379059 C81.2219431,198.382151 78.2432323,199.998319 75.7633639,202.079433 C48.9485916,214.572489 25.9444653,236.14156 6.81792249,258.441489 C2.52277768,263.447628 -1.60502383,268.598665 -5.63082561,273.829316 C-6.19979285,273.835685 -6.59663554,274.396168 -6.50260454,274.945506 C-11.4320602,281.394254 -16.1925787,287.978346 -20.785754,294.673898 C-25.7008659,301.835988 -30.4725407,309.123869 -34.4983425,316.844852 C-37.767115,323.112079 -41.9092603,330.763001 -42.9786637,337.956937 C-43.4934436,337.683065 -44.0130047,337.420338 -44.5277845,337.141688 C-45.6418128,336.538213 -46.6155915,338.211703 -45.5206882,338.861354 C-20.1625994,353.89251 8.25069993,362.809297 36.5954682,370.046225 C65.9745775,377.547472 95.7138733,384.394291 125.926512,387.2811 C181.479707,392.588181 238.094338,385.523219 290.868041,367.235845 C320.283807,357.042046 348.434138,343.338855 374.662412,326.438359 C375.105473,326.318938 375.499128,326.032327 375.711097,325.646994 C376.35497,324.790346 375.843377,323.513335 374.955661,323.206024" id="Fill-12" stroke="none" fill="#1F191B" fill-rule="evenodd" mask="url(#mask-4)"></path>
                                    <g id="Group" stroke="none" stroke-width="1" fill="none" fill-rule="evenodd" mask="url(#mask-4)">
                                        <g transform="translate(112.000000, 62.000000)">
                                            <path d="M84.691,208 C84.719,208.003 84.747,208.003 84.776,208.006 C84.517,208.212 84.258,208.418 84,208.623 C84.231,208.416 84.461,208.208 84.691,208" id="Fill-15" fill="#3C3C3B"></path>
                                            <path d="M20.365956,127.290931 C19.2722096,128.304631 17.42021,129.911627 18.176524,131.514984 C18.3413616,131.86441 18.9425343,132.101001 19.3206913,131.957227 C20.6898135,131.440367 20.9128292,129.658657 21.762228,128.619478 C22.5204812,127.691315 21.304561,126.421005 20.365956,127.290931" id="Fill-17" fill="#3C3C3B"></path>
                                            <path d="M36.4766983,131.832699 C36.2650868,133.432287 36.0136672,135.098783 36.0000486,136.735716 C35.9958583,137.264762 36.2629916,137.837377 36.6160266,137.954079 C36.6883098,137.977419 36.7647832,137.994535 36.8391615,137.999203 C37.1953393,138.020988 37.5630404,137.593082 37.6478945,137.071816 C37.904552,135.476896 37.9401698,133.776167 37.9988344,132.142347 C38.0459756,130.84307 36.6485017,130.534979 36.4766983,131.832699" id="Fill-19" fill="#3C3C3B"></path>
                                            <path d="M64.2180484,135.06088 C64.1544576,136.480377 63.7441168,138.059631 64.2468443,139.400915 C64.546801,140.199695 65.4526703,140.199695 65.752627,139.400915 C66.2565542,138.059631 65.8450136,136.478713 65.7814228,135.06088 C65.717832,133.648038 64.2816393,133.64471 64.2180484,135.06088" id="Fill-21" fill="#3C3C3B"></path>
                                            <path d="M95.5587874,120.043856 C95.1853954,120.20636 94.8995344,120.897866 95.033601,121.508119 C95.1909353,122.230742 95.2441187,122.856555 95.2684945,123.613753 C95.2939782,124.386511 95.312814,125.124693 95.6651543,125.712473 C95.9199916,126.139477 96.3077875,126.049582 96.5692727,125.712473 C97.4080198,124.635453 96.821894,122.154677 96.4839576,120.875392 C96.3277313,120.282426 95.9853629,119.858879 95.5587874,120.043856" id="Fill-23" fill="#3C3C3B"></path>
                                            <path d="M52.9949893,120.120886 C53.0935076,118.84274 51.7083878,118.546805 51.555919,119.815874 C51.4761662,120.474918 51.2627099,120.966932 51.1125869,121.584219 C50.9648095,122.192427 50.9788835,122.747985 51.0609821,123.383428 C51.1149325,123.813713 51.4562279,124.098754 51.7165976,123.968034 C52.8530761,123.392505 52.8718415,121.720385 52.9949893,120.120886" id="Fill-25" fill="#3C3C3B"></path>
                                            <path d="M30.8187986,114.335241 C30.4593158,115.063741 29.8032334,116.276198 30.0568627,117.280023 C30.1721487,117.740039 30.4456911,118.138491 30.7747803,117.953801 C31.3323455,117.640853 31.4644004,116.67978 31.8050183,115.966671 C32.0397826,115.474164 32.0890412,114.817488 31.8050183,114.335241 C31.5608215,113.923108 31.0567071,113.854704 30.8187986,114.335241" id="Fill-27" fill="#3C3C3B"></path>
                                            <path d="M4.45285448,110.178528 C3.19308017,111.163313 1.65245412,112.661443 2.06967319,114.536725 C2.15896131,114.938322 2.61027221,115.118167 2.92846263,114.917369 C4.06972724,114.192749 4.636301,112.801129 5.68016038,111.914124 C6.58115876,111.15109 5.38794469,109.446924 4.45285448,110.178528" id="Fill-29" fill="#3C3C3B"></path>
                                            <path d="M86.0440947,140.396692 C86.0219821,141.5745 85.9486615,142.776628 86.0603881,143.944012 C86.1965549,145.351127 87.8026246,145.352864 87.9399552,143.944012 C88.0516817,142.776628 87.9771974,141.5745 87.9562486,140.396692 C87.9224979,138.536173 86.0778454,138.532699 86.0440947,140.396692" id="Fill-31" fill="#3C3C3B"></path>
                                            <path d="M80.2342453,119.189429 C79.6611886,118.658799 78.6708708,119.342666 79.1084531,120.013868 C79.3766924,120.425455 79.5758398,120.909227 80.135349,120.989012 C80.5932524,121.054866 80.9617428,120.821844 80.9969661,120.3672 C81.0403179,119.81884 80.6108641,119.537694 80.2342453,119.189429" id="Fill-33" fill="#3C3C3B"></path>
                                            <path d="M107.030214,103.334945 C107.252008,104.420698 107.420485,106.313721 108.124254,106.887264 C108.465475,107.165747 108.798166,106.90384 108.932522,106.370081 C109.217228,105.231283 108.526256,103.558726 108.247947,102.526018 C107.952577,101.431977 106.799889,102.212724 107.030214,103.334945" id="Fill-35" fill="#3C3C3B"></path>
                                            <path d="M53.34418,147.924965 C53.031949,148.87739 52.4523378,149.694974 52.0711055,150.618383 C51.6898731,151.541792 52.930172,152.321825 53.6874617,151.866095 C54.8829098,151.147509 55.4694211,149.920279 55.9196548,148.636724 C56.4871907,147.013504 53.8806654,146.286383 53.34418,147.924965" id="Fill-39" fill="#3C3C3B"></path>
                                            <path d="M21.2852456,141.991145 C21.2852456,142.791293 20.854631,143.494903 21.0515674,144.29505 C21.1794291,144.816724 21.5703624,145.087772 21.9848106,144.974526 C23.1002935,144.664492 23.1326263,142.830279 22.8519185,141.720097 C22.5814984,140.645189 21.2837759,140.804847 21.2852456,141.991145" id="Fill-41" fill="#3C3C3B"></path>
                                            <path d="M2.61307268,129.588004 C2.45422961,130.171414 2.34368341,130.734992 2.22455111,131.338235 C2.10971186,131.921645 1.97018754,132.480265 2.00560525,133.100035 C2.04746254,133.843759 2.61414595,134.326353 2.98764183,133.736332 C3.27205679,133.288445 3.39011583,132.772796 3.54144606,132.197649 C3.69384955,131.62085 3.85805895,131.085368 3.97182493,130.482126 C4.2025767,129.255807 2.95007759,128.356727 2.61307268,129.588004" id="Fill-43" fill="#3C3C3B"></path>
                                            <path d="M22.428045,182.248208 C21.1486985,180.820063 18.9697007,180.437861 17.6818535,182.057893 C16.5824371,183.440426 16.8176216,185.609381 18.3505706,186.444563 C19.4726553,187.0564 21.7139911,186.391086 21.0608585,184.583885 C20.8851786,184.104167 20.2773827,184.275607 20.3623891,184.800938 C19.9458577,185.411203 19.5109082,185.574779 19.0575406,185.290093 C18.6707614,185.170557 18.3987409,184.871716 18.2443126,184.395144 C18.116803,183.909134 18.3590712,183.213936 18.642426,182.852181 C19.5675791,181.672546 21.1897849,182.295393 21.9789278,183.294151 C23.3121118,184.980243 23.0769273,187.413436 22.9820035,189.49274 C22.9522513,190.176928 23.8703206,190.1612 23.9199076,189.49274 C24.1026714,187.032808 24.1069218,184.119895 22.428045,182.248208" id="Fill-47" fill="#3C3C3B"></path>
                                            <path d="M35.9017008,191.343957 C35.1126624,188.706453 32.2833741,188.271001 30.4696498,190.158475 C27.6996535,193.040824 29.4404031,197.75021 30.8542871,200.866556 C30.983513,201.148592 31.3620691,200.93629 31.3134193,200.666651 C30.9303023,198.534333 29.9618678,196.403564 29.9785912,194.212359 C29.9907536,192.763436 30.4225204,191.142503 31.7269423,190.325837 C32.95991,189.524668 34.0317252,189.794307 34.9408678,191.134754 C35.6326068,192.236555 35.4790559,192.994334 34.4938981,193.41274 C34.5091011,193.338356 34.5060605,193.256225 34.4604514,193.175643 C33.5877961,191.613596 31.834884,193.515017 33.1119405,194.655559 C35.1567512,196.481046 36.3638737,192.885859 35.9017008,191.343957" id="Fill-49" fill="#3C3C3B"></path>
                                            <path d="M44.3022192,201.721858 C43.3766873,199.849441 41.0489281,199.506036 39.4114486,200.682317 C37.8745703,201.787121 37.4071612,204.313719 38.9502303,205.646942 C40.2936445,206.806131 42.4588939,205.949947 41.9496966,204.041791 C41.8042117,203.497935 41.0179739,203.622245 40.9994013,204.172316 C39.1235741,204.002944 38.7381937,203.263301 39.8463557,201.953386 C40.3803164,201.465469 40.9963059,201.235496 41.6974195,201.261912 C43.0299997,201.373791 43.3689487,202.45684 43.5856284,203.555429 C43.9694611,205.508647 43.8115944,207.530236 43.3689487,209.455485 C43.2420363,210.011771 44.0282741,210.22776 44.206261,209.690119 C44.9924988,207.312694 45.4645511,204.072868 44.3022192,201.721858" id="Fill-51" fill="#3C3C3B"></path>
                                            <path d="M54.8646654,187.609215 C53.3723501,186.370645 51.3325153,187.129409 50.5480746,188.905171 C49.3244627,191.678804 50.4310586,196.02735 51.1461565,198.797795 C51.2227225,199.099069 51.6922312,199.05603 51.6546705,198.719687 C51.430751,196.63468 51.1822725,194.543297 51.1230422,192.44235 C51.095594,191.442886 51.0233619,190.250543 51.5015384,189.354691 C52.8378324,187.591681 53.9747658,187.872232 54.9152279,190.197939 C54.6681941,190.767012 54.5338424,191.359996 54.4514978,191.962544 C54.3893782,191.921099 54.3301478,191.873277 54.24058,191.874871 C54.0412194,191.881248 53.8418588,191.887624 53.6424981,191.894 C53.4749197,191.898782 53.2784483,191.996019 53.2018823,192.176145 C52.5546826,193.722366 54.1972407,194.259558 55.0654707,193.167639 C56.2833041,191.637359 56.4060986,188.889231 54.8646654,187.609215" id="Fill-53" fill="#3C3C3B"></path>
                                            <path d="M65.6264101,199.548093 C65.1425298,197.874919 63.7141382,196.426081 62.0387207,197.226837 C60.5812673,197.924771 59.4754626,200.432974 60.2601335,202.062527 C60.8835108,203.357134 62.6693635,203.910185 63.4089885,202.498737 C63.5819067,202.166906 63.294194,201.740044 62.9483576,201.847538 C62.0910321,202.257264 61.5286846,201.690192 61.2584091,200.146323 C61.7364771,198.166244 62.8248446,198.077445 64.5235117,199.878366 C64.9114878,200.556048 64.806865,201.736928 64.8141305,202.501852 C64.8388331,204.54113 64.5264179,206.588198 64.2488769,208.597876 C64.1936593,209.004485 64.6935237,209.171179 64.8243022,208.770802 C65.732486,205.968158 66.4764702,202.492505 65.6264101,199.548093" id="Fill-55" fill="#3C3C3B"></path>
                                            <path d="M82.7261486,198.20124 C82.1087876,196.611006 80.5012916,196.77198 79.4433795,197.687422 C78.4355635,198.557335 77.5397271,200.233748 78.2617005,201.633739 C78.7066719,202.497148 80.4128867,203.389826 80.7650329,201.996338 C80.8269164,201.744308 80.6839951,201.532927 80.4821372,201.443496 C79.8470953,201.158945 79.1074409,201.337806 79.3446607,200.163829 C79.4772681,199.497167 80.6059041,197.915063 81.3853407,198.445141 C81.936398,198.820748 81.7433806,200.045131 81.7183326,200.615859 C81.6756035,201.583333 81.6564491,202.554059 81.6814972,203.521532 C81.6947579,204.04348 82.4476731,204.212585 82.5346046,203.649987 C82.7791915,202.061379 83.3317222,199.76058 82.7261486,198.20124" id="Fill-57" fill="#3C3C3B"></path>
                                            <path d="M76.2201492,187.031936 C74.7021142,186.82112 73.5491548,187.669326 73.2316241,189.123628 C72.7171223,191.468957 73.2027576,194.295211 73.3250155,196.670187 C73.3470898,197.108289 74.0008297,197.111583 74.0195079,196.670187 C74.092523,195.000128 74.1298796,193.331716 74.1519539,191.66001 C74.1604441,190.986386 74.0381862,190.049242 74.2742118,189.405265 C75.4492455,186.188672 79.658651,190.306175 76.4850411,191.360255 C75.9807275,191.528249 76.0724209,192.239754 76.610695,192.267753 C78.0506208,192.341868 79.1356591,191.123087 78.9862329,189.708313 C78.8419007,188.324832 77.5972479,187.222989 76.2201492,187.031936" id="Fill-59" fill="#3C3C3B"></path>
                                            <path d="M96.9060314,186.932112 C96.489348,185.865592 95.2360423,185.882947 94.3082706,186.160621 C93.2551684,186.477737 92.335535,186.963665 92.1223103,188.107491 C91.8553724,189.544768 92.0751079,191.321248 92.3078646,192.753791 C92.3745991,193.168724 92.9394004,193.004644 92.9866029,192.663863 C93.1493698,191.453774 92.9752092,190.229486 93.1086781,189.027285 C93.1981999,188.203731 93.4423504,187.369132 94.3945371,187.249227 C94.9300404,186.952622 95.3011491,187.194008 95.5094908,187.973388 C95.4069477,188.088559 95.3304472,188.221085 95.2799894,188.36781 C95.1334992,188.653372 95.3776496,189.054106 95.7292262,188.94209 C96.5691038,188.67546 97.2576081,187.829818 96.9060314,186.932112" id="Fill-61" fill="#3C3C3B"></path>
                                            <path d="M55.0918063,213.260067 C53.3482203,212.434624 51.7242922,213.697162 51.2610454,215.318799 C50.5225854,217.907245 51.4952329,221.225264 52.3858293,223.652846 C52.6063416,224.255679 53.587536,224.013571 53.3926647,223.38474 C52.8302727,221.566491 52.4935213,219.733618 52.4559146,217.834125 C52.4456582,217.291412 52.3533507,216.163741 52.6029228,215.676274 C54.828559,214.915827 55.808044,215.361046 55.5396686,217.011932 C55.6644546,217.380781 55.6456512,217.68626 55.4952242,217.936493 C55.4302671,217.89587 55.3687288,217.848749 55.2815495,217.843874 C55.0986439,217.83575 54.9157383,217.82925 54.7345421,217.821126 C54.5550553,217.813001 54.3447994,217.923493 54.2644577,218.081108 L54.1294152,218.34109 C54.0319795,218.527952 53.9943728,218.779809 54.1294152,218.965046 C55.0200116,220.185337 56.3926582,219.691371 56.7926573,218.360588 C57.3071861,216.646332 56.9088964,214.119632 55.0918063,213.260067" id="Fill-63" fill="#3C3C3B"></path>
                                            <path d="M69.6517567,212.917333 C70.4799227,212.573885 69.6726788,211.727647 68.8758959,212.087244 C68.0250643,212.470527 67.7321551,213.227404 68.2743859,213.7991 C68.7120062,214.258824 69.8348249,213.848625 69.4216137,213.379211 C69.2368019,213.168189 69.367565,213.035763 69.6517567,212.917333" id="Fill-65" fill="#3C3C3B"></path>
                                            <path d="M86.826933,181.147177 C85.8733182,180.582857 85.1072396,181.770659 85.0042786,182.526119 C84.9282836,183.076785 85.8880269,183.182595 86.0253082,182.656959 C86.1564609,182.156353 86.6712658,182.002758 86.951957,181.595447 C87.0561437,181.442989 86.9801487,181.238196 86.826933,181.147177" id="Fill-67" fill="#3C3C3B"></path>
                                            <path d="M23.1525758,196.279883 C22.9845758,196.813016 22.9145758,197.381468 23.1575758,197.865829 C23.2955758,198.139965 23.5275758,197.953284 23.5905758,197.670739 C23.6525758,197.391559 23.6365758,197.119106 23.7295758,196.855062 C23.9515758,196.224383 23.3555758,195.634067 23.1525758,196.279883" id="Fill-69" fill="#3C3C3B"></path>
                                            <path d="M39.9095283,184.076577 C39.8065283,183.860477 39.8105283,183.64722 39.8145283,183.392735 C39.8185283,183.061476 39.5775283,182.922149 39.3925283,183.042994 C38.9255283,183.350083 38.9125283,184.149084 39.1585283,184.709237 C39.4585283,185.394501 40.2255283,184.739093 39.9095283,184.076577" id="Fill-71" fill="#3C3C3B"></path>
                                            <path d="M75.8449661,76.8617729 C74.4264229,80.4856129 71.2247052,83.3802267 67.200968,83.6588611 C64.034434,83.8769921 61.4980083,82.4774511 59.198273,80.5636305 C58.9855715,79.2007101 57.0152837,78.3759521 56.2684294,79.9044611 C52.2702805,88.0835761 38.3215383,96.496744 30.9585471,86.5837267 C26.2967054,80.3056947 34.820759,67.5299074 37.9041315,62.1259914 C45.3934642,49.0015131 55.2640944,38.4213653 65.0083831,27.0355659 C65.408198,26.5690522 64.8628505,25.6837908 64.2951133,26.1152761 C55.4496085,32.8582296 48.1809737,42.0483896 41.8575013,51.1302803 C36.1961223,59.2632216 28.6955948,69.5551818 27.1858937,79.6497096 C26.016835,87.4689881 30.4323907,93.2056732 38.4414828,93.923754 C46.5977067,94.6529801 54.0086756,90.0785987 58.0803906,83.3229076 C64.2535326,89.9400776 75.9729069,86.117213 78.9011512,77.7008607 C79.5792373,75.7567884 76.5726292,75.0036793 75.8449661,76.8617729" id="Fill-73" fill="#1F191B"></path>
                                            <path d="M0.764255816,25.4194616 C0.569434565,25.6779657 0.610022326,26.1172643 1.00128834,26.1949741 C9.22923913,27.8205372 19.028748,26.796036 27.1641587,24.7977828 C33.3351218,23.2832337 38.11636,19.6181836 37.9978437,12.8812156 C37.9247858,8.6325487 35.6112834,0.065434555 29.9712082,0.00041203 C25.4822019,-0.0503372578 24.085983,4.59639441 23.6395176,8.71660221 C22.1101708,6.17596599 19.7934214,4.0857297 16.6421877,5.37190696 C13.6857752,6.57561663 13.4649778,10.1899175 13.8805965,13.4664184 C11.709963,11.658475 8.67399857,11.1176779 5.62179898,12.424472 C0.498000107,14.6162069 -1.02809969,20.3445328 0.655480618,25.2339095 C0.679833274,25.3084475 0.728538586,25.3560249 0.764255816,25.4194616" id="Fill-2" fill="#1F191B"></path>
                                            <path d="M78.4550375,12.1504024 C81.0459081,26.3717705 103.137678,30.6624138 114.857899,26.4636337 C115.604831,26.1943796 115.825845,25.5212443 115.664521,24.9573945 C115.756476,24.8291029 115.837138,24.6833889 115.888762,24.505998 C117.127734,20.2897955 118.497378,9.57664994 112.952657,7.31333164 C110.081082,6.14286822 107.632177,8.14643551 105.944723,10.7835419 C105.609168,6.54199783 104.158862,2.24977068 100.114458,1.3232198 C96.308814,0.45051974 93.6308281,3.24442701 92.2434379,6.61485482 C91.0254383,2.54753404 88.5458816,-1.05096784 83.8706991,0.282631889 C78.9244916,1.69384015 76.920842,7.2087977 78.5631249,11.665745 C78.4695567,11.7924528 78.4195461,11.9555891 78.4550375,12.1504024" id="Fill-4" fill="#1F191B"></path>
                                            <path d="M31.9928577,39.1734705 C31.9555363,37.6096323 29.5734624,37.6080542 29.5280278,39.1734705 C29.3722518,44.8070755 28.1098175,53.4358017 20.6844972,53.836624 C13.2607995,54.2374463 11.0539735,44.3794265 10.9371416,38.9430766 C10.9306509,38.6448269 10.477927,38.569081 10.3984164,38.8704867 C8.73842892,45.2710195 12.3212758,55.5409078 20.106828,55.9811812 C29.2018719,56.4972005 32.1664829,46.2888557 31.9928577,39.1734705" id="Fill-6" fill="#1F191B"></path>
                                            <path d="M110.794981,39.0026189 C110.598943,37.4299477 108.118974,37.3842488 108.291106,39.0026189 C108.9621,45.2901519 107.562735,58.5900966 98.2516961,56.1522987 C90.5647502,54.1399729 89.6068703,43.9948256 89.6865608,37.5434069 C89.6945299,36.9225327 88.7478067,36.7807087 88.5979885,37.3968554 C86.6583217,45.361064 89.273764,57.4098053 98.8525625,58.8674414 C109.521527,60.4921147 111.767205,46.7950627 110.794981,39.0026189" id="Fill-8" fill="#1F191B"></path>
                                            <path d="M91.8847339,89.0400246 C89.004378,96.8702771 82.9409741,102.981768 75.1331068,106.290499 C65.7432741,110.267721 56.7023341,108.943002 47.0129954,107.182844 C46.1909469,107.034119 45.5505138,108.17025 46.4044246,108.59189 C64.4894909,117.493877 88.0469146,108.159517 94.8989116,89.8511081 C95.5871382,88.0066214 92.5602156,87.2016709 91.8847339,89.0400246" id="Fill-10" fill="#1F191B"></path>
                                        </g>
                                    </g>
                                </g>
                            </g>
                        </g>
                    </g>
                </g>
            </g>
        </g>
    </g>
</svg>