<?xml version="1.0" encoding="UTF-8" standalone="no"?>
<svg width="243px" height="248px" viewBox="0 0 243 248" version="1.1" xmlns="http://www.w3.org/2000/svg" xmlns:xlink="http://www.w3.org/1999/xlink">
    <!-- Generator: Sketch 46.2 (44496) - http://www.bohemiancoding.com/sketch -->
    <title>hände</title>
    <desc>Created with Sketch.</desc>
    <defs>
        <polygon id="path-1" points="140.800115 0.137262162 140.800115 242.90083 0.465402837 242.90083 0.465402837 0.137262162"></polygon>
    </defs>
    <g id="home" stroke="none" stroke-width="1" fill="none" fill-rule="evenodd">
        <g id="Mobile-Portrait-Copy-2" transform="translate(-38.000000, -7627.000000)">
            <g id="initiative-ergreifen" transform="translate(10.000000, 7598.000000)">
                <g id="Group">
                    <g transform="translate(22.000000, 22.000000)">
                        <g id="Page-1" transform="translate(0.813688, 0.813688)">
                            <g id="hände">
                                <g transform="translate(6.000000, 7.000000)">
                                    <path d="M93.1934537,246 C94.0716443,236.363131 103.012774,137.731286 101.752119,130.177044 C101.210431,126.922631 99.1044154,123.655089 96.6651793,119.872224 C93.1261531,114.384198 88.7237095,107.553706 87.2923408,97.8495495 C86.8031804,94.5327729 86.2631342,91.4884282 85.7411443,88.544194 C83.7451072,77.2891449 82.425359,69.8530663 87.8044819,67.8032622 L87.9308757,67.7556687 L88.021157,67.6555582 C89.5378825,65.9684496 89.7496332,63.587132 89.9548179,61.2829487 C90.2568498,57.8857554 90.5835039,55.7817932 93.352677,55.3665807 C93.6005402,55.3288341 93.8582522,55.3107814 94.1159642,55.3107814 C97.2199988,55.3107814 100.350297,57.9809425 102.636876,59.9322772 C104.253731,61.3124895 105.133564,62.0329571 105.878794,62.0329571 C106.102035,62.0329571 106.308862,61.9656697 106.477934,61.8360184 C107.78455,60.8332719 107.566234,57.3490974 102.687762,41.8303245 C100.154961,33.77553 98.5413885,27.6113474 96.9803431,21.649027 C96.1793019,18.5882708 95.4225806,15.6981947 94.5525973,12.5832803 C93.4445998,8.61332351 93.7843857,4.92564558 95.4586931,2.71993167 C96.3007713,1.6105101 97.3989199,1 98.5512374,1 C100.65397,1 102.579424,2.9923636 103.700553,6.33047527 C106.916208,15.8934923 110.982149,31.8701477 113.413178,41.415112 C114.179748,44.4282748 114.785453,46.8079512 115.123598,48.0355361 C116.069089,51.4639113 118.183312,53.856717 120.263065,53.856717 C121.407175,53.856717 123.01254,53.152661 124.159933,49.7981378 C126.551566,42.8051713 130.931029,20.1998861 132.277041,12.832736 C133.334153,7.05094283 136.262549,4.46283954 138.696861,4.46283954 C139.737558,4.46283954 140.681408,4.91908095 141.426639,5.78068795 C142.80548,7.37589175 143.301206,10.0608233 142.821895,13.3431356 C142.096362,18.3207623 141.315018,23.45594 140.559938,28.4237197 C138.826538,39.8264729 137.189984,50.5973808 136.584279,57.0110192 C135.773389,65.5909837 136.448036,74.2398767 138.087873,76.2896808 C139.325547,77.8356499 142.807122,92.1941253 141.951912,101.776836 C141.57273,106.017584 141.022835,108.149446 140.490996,110.210738 C139.788444,112.931775 139.125287,115.501825 138.833104,122.324112 C138.337377,133.877851 137.836727,237.416753 137.79569,246 L93.1934537,246 Z" id="Fill-1" fill="#9D195B"></path>
                                    <path d="M99.077445,0 C95.5827206,0 92.4697453,4.82758207 94.5472467,12.286303 C97.1392083,21.5855088 98.8693672,29.4215127 102.672112,41.5372182 C106.476496,53.6529236 107.94451,59.9256636 106.648529,60.9213627 C106.576439,60.977135 106.489603,61.0033807 106.38966,61.0033807 C104.792212,61.0033807 99.7967062,54.2828222 94.6504664,54.2828222 C94.3686602,54.2828222 94.086854,54.3041469 93.8050479,54.3467963 C88.0476819,55.2112665 91.4588475,63.1243674 88.1509016,66.8086179 C80.889477,69.5791874 84.8658934,80.9993799 87.2874605,97.4439977 C89.7073893,113.886975 100.424216,121.975595 101.721836,129.765668 C103.017816,137.554102 93.1169165,246 93.1169165,246 L138.803926,246 C138.803926,246 139.323301,133.963352 139.841038,121.847646 C140.358775,109.733581 142.088934,111.029466 142.952375,101.336574 C143.817454,91.6420412 140.358775,77.1937426 138.977597,75.4631619 C137.59478,73.7325812 136.729701,65.7686291 137.59478,56.5957311 C138.45986,47.4211927 141.42374,29.4018284 143.817454,12.9785353 C144.718579,6.79765548 142.14464,3.46116146 139.146353,3.46116146 C136.395466,3.46280182 133.287406,6.27602072 132.191311,12.2846626 C130.570925,21.1688571 126.356939,42.5755666 124.109044,49.1534138 C123.212834,51.7779912 121.987305,52.8311028 120.74703,52.8311028 C118.880883,52.8311028 116.988522,50.4394567 116.157849,47.422833 C114.775033,42.4049691 108.996368,18.3687611 104.746337,5.70845586 C103.41595,1.74370361 101.177884,0 99.077445,0 M99.077445,1.11872612 C100.923931,1.11872612 102.647536,2.96741283 103.687925,6.06441417 C106.889375,15.604753 110.946073,31.5605433 113.369279,41.0943208 C114.136054,44.1076637 114.740626,46.4894677 115.079777,47.7213787 C116.090674,51.3892256 118.420491,53.949829 120.74703,53.949829 C122.072502,53.949829 123.915711,53.1804997 125.167455,49.5142931 C127.566085,42.4935486 131.945549,19.8598492 133.290682,12.486427 C134.286835,7.02566565 136.949248,4.57988758 139.147991,4.57988758 C140.019624,4.57988758 140.815891,4.9686531 141.449955,5.70353478 C142.70006,7.15033307 143.160453,9.74374362 142.711529,12.8161396 C141.987352,17.7880734 141.209109,22.9207626 140.455441,27.8844946 C138.723644,39.2899238 137.088512,50.063814 136.482301,56.490748 C135.646713,65.3372142 136.359421,73.9786353 138.104325,76.1619556 C139.125054,77.4381564 142.721359,91.3516974 141.839896,101.236512 C141.466339,105.430915 140.922387,107.538779 140.398097,109.576107 C139.719796,112.205605 139.018557,114.923683 138.725282,121.800076 C138.238675,133.149733 137.748791,233.151053 137.691447,244.881274 L94.3408073,244.881274 C95.4827777,232.312829 104.069674,137.061994 102.822846,129.581948 C102.26251,126.214287 100.13258,122.904039 97.6634989,119.070516 C94.1622208,113.631079 89.8024169,106.859669 88.393386,97.2799616 C87.903502,93.9565904 87.3382512,90.77265 86.8418135,87.9627118 C84.7200751,75.986437 83.8320579,69.6530037 88.5490348,67.8535278 L88.8013496,67.7567465 L88.9815745,67.5549821 C90.6199826,65.7309008 90.8509981,63.1440517 91.0525223,60.8623097 C91.3720119,57.2814019 91.7242696,55.7903139 93.9705271,55.4523995 C94.1917122,55.4195923 94.4210893,55.4015483 94.6504664,55.4015483 C97.5422567,55.4015483 100.576588,57.9949589 102.791716,59.8879353 C104.421932,61.2806017 105.406615,62.1221069 106.38966,62.1221069 C106.737003,62.1221069 107.063046,62.013843 107.328468,61.8087979 C108.934108,60.5768869 108.796482,57.309288 103.738716,41.2009442 C101.215568,33.1631759 99.6050124,27.0085419 98.0501632,21.0573126 C97.2489816,17.9963992 96.4936755,15.104443 95.6236808,11.9861169 C94.5652692,8.18540079 94.8683747,4.68323031 96.4346928,2.6163756 C97.1686996,1.65020304 98.105869,1.11872612 99.077445,1.11872612" id="Fill-3" fill="#9D195B"></path>
                                    <g id="Group-9" transform="translate(0.000000, 101.000000)" fill="#72C7C6">
                                        <path d="M62.3223279,154.256783 C62.4731651,152.038299 62.656793,145.476446 60.5565488,136.551604 C58.9924326,129.899436 53.4753977,121.276741 48.1403512,112.936488 C44.6661767,107.504404 41.3838279,102.374467 39.4524558,98.1772463 C37.6752,94.3182989 36.6357349,91.2492042 35.8012116,88.7827621 C34.3338279,84.4459621 33.3648628,81.5804884 29.898886,79.0483621 C27.4412233,77.2486147 22.1291302,72.02672 16.9908279,66.9756042 C11.1803163,61.26272 5.17142093,55.3544253 2.43995581,53.5136253 C0.523339535,52.2180042 0.31347907,50.2113516 0.754513953,48.7646568 C1.2922814,47.00432 2.73507209,45.8646989 4.43035116,45.8646989 C5.63213023,45.8646989 6.94539767,46.4345095 8.23079302,47.5100884 C14.7708977,52.9881516 34.2518512,67.1677305 36.712793,68.7704253 C37.4899326,69.2761937 38.5884209,69.5783411 39.6492,69.5783411 C41.1346186,69.5783411 42.282293,69.0134568 42.8823628,67.9871411 C43.762793,66.4796884 43.3578279,64.1971621 41.6805837,61.2052463 C39.1015953,56.6073516 34.4830256,45.6495832 30.4087814,35.9825095 C27.3428512,28.7096253 24.6966419,22.4285726 23.3899326,19.9588463 C22.5455721,18.3643621 22.5504907,16.6368674 23.4030488,15.2197305 C24.1555953,13.9684463 25.4377116,13.1917305 26.7509791,13.1917305 C28.3019791,13.1917305 29.7037814,14.2541726 30.6940605,16.1803621 C31.3072465,17.45792 45.8761535,47.8713516 48.3075837,52.24592 C49.3831186,54.1786779 51.3046535,55.4266779 53.2032349,55.4266779 C54.3607465,55.4266779 55.3870953,54.9570358 56.097014,54.1031411 C56.8102116,53.24432 57.5447233,51.5874358 56.9872814,48.5659621 C56.2265372,44.4377095 55.1903512,34.7065937 54.1885953,25.2956884 C53.4016186,17.9029305 52.6589093,10.9190568 52.1227814,7.40823579 C51.8145488,5.38844632 52.244107,3.57884632 53.3327581,2.30949895 C54.1295721,1.37842526 55.2264209,0.844741053 56.3380256,0.844741053 C58.2218512,0.844741053 60.4942465,2.44250947 61.2254791,6.92381474 C62.5813744,15.2197305 66.178514,37.2534989 66.883514,43.3884042 C67.2589674,46.6627621 68.955886,50.1965726 71.0446535,50.1965726 C72.241514,50.1965726 73.7630023,49.0290358 74.2204326,43.4688674 C74.2368279,43.1880674 75.9468628,16.3626358 76.3092,10.1292042 C76.4944674,6.97472 79.4210372,4.52962526 81.8180372,4.52962526 C82.7050256,4.52962526 83.4559326,4.84162526 84.0527233,5.45577263 C85.0610372,6.49522526 85.5561767,8.35737263 85.4840372,10.8418779 C85.1741651,21.57632 84.8757698,46.5166147 84.9807,49.7088674 C85.0987465,53.2804463 86.2693744,62.2644042 89.1418395,67.2366989 C91.9864326,72.1564463 98.9085488,76.6377516 103.66484,76.6377516 C104.05177,76.6377516 104.423944,76.6081937 104.774805,76.5490779 C107.057037,76.1664674 109.368781,72.5324884 112.293712,67.9313095 C115.689188,62.5895411 119.538816,56.5350989 123.988514,54.7517726 C127.980781,53.15072 131.977967,52.2327832 134.955363,52.2327832 C137.029374,52.2327832 138.52627,52.6728674 139.287014,53.5070568 C139.767398,54.0325305 139.960863,54.71072 139.882165,55.5826779 C139.649351,58.1607832 138.413142,58.9637726 136.166979,60.42032 C134.181502,61.7060884 131.463153,63.4697095 128.307049,67.3023832 C124.627933,71.7721937 122.657212,76.6525305 120.752072,81.3719411 C119.13877,85.3704674 117.614002,89.1456674 115.143223,92.58752 C114.085723,94.0604884 112.841316,95.6910989 111.52313,97.4185937 C105.940514,104.732531 98.9921651,113.836362 98.0510721,121.567394 C97.0247233,129.993036 100.405444,141.343267 101.261281,144.031394 L62.3223279,154.256783 Z" id="Fill-5"></path>
                                        <path d="M56.3375337,0.28544 C53.5454058,0.28544 50.9073942,3.14598737 51.5697663,7.49264 C52.776464,15.4059453 55.0668942,41.2296926 56.4375453,48.6684295 C57.2278012,52.9592505 55.3800453,54.8673768 53.2043826,54.8673768 C51.6074756,54.8673768 49.8351384,53.8394189 48.7973128,51.9739874 C46.3445686,47.5649347 31.1919872,15.9232084 31.1919872,15.9232084 C29.98365,13.5749979 28.3195221,12.6324295 26.7504872,12.6324295 C23.6189756,12.6324295 20.8694756,16.3912084 22.8959407,20.2205979 C25.9372779,25.9679663 36.6729523,53.4239663 41.19315,61.4784926 C44.4213942,67.2324295 42.0899756,69.01904 39.6503477,69.01904 C38.6748244,69.01904 37.6812663,68.7333137 37.0188942,68.30144 C34.7005919,66.7923453 15.2376733,52.6505347 8.5893593,47.0821558 C7.08262674,45.8193768 5.66442907,45.3053979 4.4298593,45.3053979 C0.216254651,45.3053979 -1.84300116,51.2957979 2.12795233,53.9773558 C7.26461512,57.4421979 24.3420105,75.6744926 29.5704872,79.5005979 C34.8006035,83.3234189 34.0414988,87.7603874 38.9437081,98.4110821 C43.8459174,109.061777 57.454057,125.799756 60.0133709,136.678703 C62.5726849,147.557651 61.6971733,154.999672 61.6971733,154.999672 L101.977266,144.422872 C101.977266,144.422872 97.4619872,131.033145 98.6063826,121.635377 C99.7507779,112.237608 110.104441,100.565524 115.596883,92.9133137 C121.090964,85.2611032 122.064848,75.7648084 128.737755,67.6593768 C135.410662,59.5539453 139.958731,60.9579453 140.439115,55.63424 C140.691603,52.8426611 138.397894,51.6734821 134.954871,51.6734821 C131.829917,51.6734821 127.755673,52.63904 123.781441,54.2318821 C115.42965,57.5801347 109.238766,75.2344084 104.680859,75.9979874 C104.356231,76.0521768 104.016848,76.0784505 103.664348,76.0784505 C99.0654523,76.0784505 92.3187663,71.6135663 89.62665,66.9549137 C86.7279523,61.9399242 85.6425802,52.8393768 85.5392895,49.6898189 C85.4359988,46.5402611 85.727836,21.7707453 86.0442663,10.8589558 C86.1869058,5.87516632 84.1309291,3.96868211 81.8175453,3.96868211 C79.0664058,3.96868211 75.9512895,6.66830316 75.7512663,10.0953768 C75.3840105,16.4010611 73.6624988,43.4219032 73.6624988,43.4219032 C73.291964,47.9376926 72.2098709,49.6372716 71.0441616,49.6372716 C69.5062779,49.6372716 67.8224756,46.6749137 67.4371849,43.3250189 C66.7616965,37.4380716 63.4514756,17.0792505 61.7775105,6.83415579 C61.0233244,2.21491368 58.6296035,0.28544 56.3375337,0.28544 M56.3375337,1.40535579 C57.9918244,1.40535579 60.0002547,2.87832421 60.6741035,7.01478737 C62.7989407,20.0251874 65.6959988,37.9569768 66.3272198,43.4531032 C66.738743,47.0427453 68.6160105,50.7571874 71.0441616,50.7571874 C73.1263709,50.7571874 74.3822547,48.3203032 74.7790221,43.4941558 C74.7954174,43.2232084 76.5038128,16.3977768 76.8677895,10.1610611 C77.0350221,7.30544 79.6664756,5.08859789 81.8175453,5.08859789 C82.5471384,5.08859789 83.165243,5.34312421 83.6521849,5.84560842 C84.2801267,6.49259789 85.0113593,7.88346105 84.9261035,10.8261137 C84.6162314,21.5720505 84.317836,46.5336926 84.4227663,49.7259453 C84.5408128,53.3451453 85.7327547,62.4539032 88.6593244,67.5165137 C91.5875337,72.5840505 98.7408244,77.1983663 103.664348,77.1983663 C104.082429,77.1983663 104.485755,77.1655242 104.866127,77.1014821 C107.39429,76.6778189 109.765057,72.95024 112.765406,68.2308295 C115.951022,63.2224084 119.913778,56.9889768 124.196243,55.2713347 C128.124569,53.6965558 132.046336,52.7933979 134.95651,52.7933979 C136.840336,52.7933979 138.232301,53.1809347 138.874999,53.8837558 C139.242255,54.2877137 139.389813,54.8263242 139.325871,55.5324295 C139.11765,57.8395874 138.097859,58.5013558 135.863173,59.9496926 C133.846545,61.2568084 131.087208,63.0450611 127.875359,66.9467032 C124.142138,71.4821979 122.155022,76.4019453 120.233487,81.1607663 C118.633301,85.1280926 117.12001,88.8737347 114.68858,92.2597558 C113.635999,93.7261558 112.394871,95.3551242 111.078324,97.0776926 C105.45472,104.445819 98.4571849,113.616977 97.4964174,121.499082 C96.5176151,129.535545 99.4818942,140.156682 100.55251,143.639587 L62.9219058,153.520135 C63.0465105,150.73184 63.0104407,144.537819 61.1020221,136.422535 C59.5149523,129.678408 53.9716849,121.014661 48.6120453,112.634998 C45.1477081,107.219335 41.8751965,102.104177 39.9602198,97.9430821 C38.1944407,94.1104084 37.1615337,91.0560926 36.3319291,88.6027874 C34.8301151,84.1658189 33.8381965,81.2330189 30.2295802,78.5957979 C27.8030686,76.8206821 22.5057314,71.6119242 17.3821849,66.5755874 C11.5536384,60.84464 5.52670814,54.9199242 2.75261512,53.0479242 C1.09012674,51.9247242 0.906498837,50.1840926 1.28851047,48.9295242 C1.64101047,47.7734821 2.67555698,46.4253137 4.4298593,46.4253137 C5.49883605,46.4253137 6.68913837,46.9491453 7.87288256,47.9409768 C14.424464,53.4288926 33.9431267,67.6331032 36.4089872,69.2407242 C37.2713826,69.8023242 38.4846384,70.1389558 39.6503477,70.1389558 C41.3161151,70.1389558 42.6703709,69.4574821 43.3638942,68.27024 C44.3525337,66.5772295 43.9508477,64.1091453 42.1670337,60.9300295 C39.6044407,56.3616926 34.9940686,45.4219874 30.924743,35.7696926 C27.8538942,28.4820295 25.2011267,22.18784 23.8829407,19.6967663 C23.1336733,18.2812716 23.1336733,16.7541137 23.8829407,15.5077558 C24.533836,14.4256084 25.6323244,13.7523453 26.7504872,13.7523453 C28.0785105,13.7523453 29.299964,14.7014821 30.1902314,16.4224084 C30.9050686,17.9167242 45.3887198,48.1445979 47.82015,52.5191663 C48.9907779,54.6259874 51.1041384,55.9872926 53.2043826,55.9872926 C54.5291267,55.9872926 55.7095919,55.4453979 56.5260802,54.4617768 C57.316336,53.5109979 58.1328244,51.6997558 57.5376733,48.4648084 C56.7802081,44.3595453 55.7456616,34.6432084 54.7455453,25.2470821 C53.9569291,17.8428295 53.2125802,10.8491032 52.6748128,7.32350316 C52.3928128,5.46792421 52.776464,3.81760842 53.7569058,2.67470316 C54.4487895,1.86842947 55.388243,1.40535579 56.3375337,1.40535579" id="Fill-7"></path>
                                    </g>
                                    <g id="Group-15" transform="translate(101.000000, 13.000000)">
                                        <path d="M26.8951908,232.18962 C28.783777,223.375944 48.1561678,132.567829 46.5437195,123.50787 C45.1794667,115.840234 37.7270299,107.129998 31.7391103,100.132255 C30.3271908,98.4805115 28.9908805,96.9207142 27.8518115,95.5070453 C25.1906966,92.2068426 23.4582598,88.5191534 21.6255586,84.6163764 C19.4608345,80.0092277 17.2221448,75.2444574 13.2953977,70.983748 C9.92585747,67.3272547 7.1085931,65.7165588 5.05070805,64.5409642 C2.72325977,63.2093899 1.4411908,62.4754642 1.06643218,59.9141128 C0.936581609,59.0225655 1.10916782,58.3181939 1.5924092,57.7599507 C2.43068506,56.7895926 4.19928276,56.2773223 6.70424828,56.2773223 C9.6004092,56.2773223 13.2312943,56.965275 16.9312138,58.2163966 C21.4825586,59.7548493 25.6673632,65.5884912 29.3574207,70.7358223 C32.5379379,75.1705723 35.0511218,78.6727277 37.3572023,78.9305047 C37.5873172,78.956775 37.8272943,78.9682682 38.0722023,78.9682682 C42.8207885,78.9682682 49.8310759,74.0163223 52.4954782,68.7770453 C55.1023517,63.6559845 55.7828345,54.6222953 55.7055816,51.0511804 C55.6365471,47.8609845 53.9764322,22.9781128 53.0789839,12.2746196 C52.8669494,9.74446419 53.2811563,7.83494392 54.278869,6.75129527 C54.8722368,6.10767365 55.6776391,5.76616014 56.6096046,5.76616014 C58.9814322,5.76616014 61.8710184,7.940025 62.2244092,11.0612615 C62.9295471,17.2659709 66.1034897,43.9532818 66.1347195,44.222552 C66.7346621,48.5784912 67.8950989,50.7802682 69.5864437,50.7802682 C71.6607655,50.7786264 73.2732138,47.1467615 73.4770299,43.7529709 C73.8517885,37.525275 76.3337425,14.5781939 77.1490069,7.03862635 C77.6536161,2.36251824 79.9366851,0.697639865 81.9041678,0.697639865 C82.9922828,0.697639865 84.0803977,1.20662635 84.8874437,2.09488986 C85.9821333,3.30168041 86.4801678,5.05193716 86.2878575,7.02384932 C85.9426851,10.5604845 85.5810759,17.5746466 85.1964552,25.0009236 C84.7066391,34.4500115 84.2003862,44.2192682 83.6645471,48.3814642 C83.2815701,51.3565723 84.0656046,52.9623426 84.788823,53.7832885 C85.4972483,54.5878155 86.4933172,55.0311264 87.5962253,55.0311264 C89.5850759,55.0311264 91.5311908,53.6765655 92.5535586,51.5815115 C94.7495126,47.0810858 107.673754,15.9212615 108.222743,14.5978966 C109.143202,12.5455318 110.553478,11.4093426 112.187294,11.4093426 C113.479225,11.4093426 114.761294,12.1547615 115.530536,13.3566264 C116.396754,14.7079034 116.47072,16.3957682 115.735995,17.9851196 C114.562409,20.5218426 112.256329,26.9383561 109.583708,34.3695588 C106.033363,44.2422547 102.009639,55.4333899 99.6789034,60.1636804 C98.1864437,63.1929709 97.8905816,65.470275 98.8011793,66.9332007 C99.3994782,67.8920655 100.489237,68.4207547 101.87157,68.4207547 C103.017214,68.4207547 104.24011,68.0480453 105.063593,67.4471128 C107.438708,65.7116331 126.166777,50.4912953 132.414398,44.6642209 C133.716191,43.4508628 135.073869,42.8088831 136.339501,42.8088831 C137.993041,42.8088831 139.432903,43.9138764 140.008191,45.6247277 C140.474995,47.0154101 140.335283,48.9840385 138.538743,50.3402412 C135.90557,52.3302142 130.213513,58.5546264 124.708834,64.5754439 C119.841903,69.8984574 114.808961,75.4037209 112.445352,77.3345858 C109.11526,80.0535588 108.299995,82.966275 107.067237,87.3763966 C106.36703,89.8835655 105.49588,93.004802 103.927811,96.9551939 C102.223317,101.250383 99.2170299,106.552052 96.034869,112.167322 C91.1498575,120.783971 86.0988345,129.692876 84.8956621,136.419707 C83.0284437,146.850647 76.5983747,233.875843 75.9852828,242.223221 L26.8951908,232.18962 Z" id="Fill-10" fill="#FFFFFF"></path>
                                        <g id="Group-14">
                                            <mask id="mask-2" fill="white">
                                                <use xlink:href="#path-1"></use>
                                            </mask>
                                            <g id="Clip-13"></g>
                                            <path d="M81.9041678,0.137262162 C79.5372713,0.137262162 77.1112023,2.17320811 76.5918,6.97902568 C75.4757425,17.2983162 73.2732138,37.8039041 72.9181793,43.7196405 C72.7127195,47.1314919 71.1479379,50.2198905 69.5864437,50.2198905 C68.4424437,50.2198905 67.2984437,48.5615797 66.6919264,44.1563838 C66.6919264,44.1563838 63.4933287,17.2736878 62.7816161,10.998377 C62.4052138,7.68503919 59.3118115,5.20742432 56.6096046,5.20578243 C54.1933977,5.20578243 52.0894897,7.18754595 52.5201333,12.3217419 C53.4323747,23.1992757 55.0760529,47.9130324 55.1450874,51.0621811 C55.2124782,54.2129716 54.6240414,63.3583095 51.9958,68.5237014 C49.4891908,73.4510189 42.6892943,78.4095324 38.0722023,78.4095324 C37.8486621,78.4095324 37.6316966,78.3980392 37.4196621,78.3734108 C32.8157195,77.8594986 25.6542138,60.5736608 17.1120184,57.685573 C13.431823,56.4426608 9.70067356,55.7169446 6.70424828,55.7169446 C2.74462759,55.7169446 0.0736505747,56.9844851 0.512512644,59.9957149 C1.2833977,65.2858905 5.76077701,63.6341473 12.8828345,71.3625324 C20.004892,79.0909176 21.4989954,88.5186608 27.4162368,95.8579176 C33.3334782,103.198816 44.3346161,114.28487 45.9930874,123.604249 C47.6515586,132.925269 26.2278575,232.624228 26.2278575,232.624228 L76.4964667,242.90083 C76.4964667,242.90083 83.4788115,147.518404 85.4462943,136.517728 C87.4154207,125.515411 100.122697,108.0621 104.448857,97.1599378 C108.775018,86.2594176 107.772375,81.8706405 112.800386,77.7675527 C117.82511,73.662823 133.923294,54.526573 138.87734,50.7863432 C142.633145,47.9475122 140.405961,42.2485054 136.339501,42.2485054 C135.045926,42.2485054 133.564972,42.8264514 132.031421,44.2565392 C125.680248,50.1788432 106.968616,65.3597757 104.73157,66.9951 C104.034651,67.5040865 102.933386,67.8620189 101.87157,67.8620189 C99.5243977,67.8620189 97.3695356,66.1166878 100.181869,60.4111135 C104.264766,52.1228432 113.513743,24.1236608 116.245536,18.2194176 C118.022352,14.3757486 115.239605,10.8489649 112.187294,10.8489649 C110.550191,10.8489649 108.835834,11.8620122 107.704984,14.3823162 C107.704984,14.3823162 94.2646276,46.7998297 92.0505931,51.336377 C91.0742483,53.3362014 89.2497655,54.4707486 87.5962253,54.4707486 C85.5005356,54.4707486 83.6809839,52.6466068 84.2201103,48.4532149 C85.1865931,40.9530527 86.0692483,15.0456405 86.8450644,7.07753919 C87.2609149,2.82011351 84.6211678,0.137262162 81.9041678,0.137262162 M81.9041678,1.25703243 C82.8344897,1.25703243 83.7713862,1.70034324 84.4715931,2.47203243 C85.4594437,3.55896486 85.9065241,5.15652568 85.7290069,6.96917432 C85.3838345,10.5189446 85.0205816,17.5429581 84.6359609,24.9774446 C84.1477885,34.4133973 83.6415356,44.1695189 83.1089839,48.3103703 C82.699708,51.4923568 83.5675701,53.2442554 84.3680414,54.1522216 C85.1849494,55.0798905 86.3305931,55.5905189 87.5962253,55.5905189 C89.798754,55.5905189 91.9421103,54.1128162 93.0581678,51.8273027 C95.2541218,47.326877 108.102754,16.3525865 108.73557,14.825627 C109.565628,12.9834243 110.791811,11.9687351 112.185651,11.9687351 C113.290202,11.9687351 114.391467,12.6156405 115.0588,13.6582419 C115.818179,14.8469716 115.880639,16.3378095 115.228099,17.7498365 C114.043007,20.3095459 111.731995,26.7375527 109.056087,34.1802486 C105.510674,44.0398095 101.49188,55.2145257 99.1759379,59.9169041 C97.5914322,63.1317284 97.3054322,65.5912824 98.3261563,67.2282486 C99.0296506,68.3595122 100.288708,68.9801473 101.87157,68.9801473 C103.128984,68.9801473 104.478444,68.5663905 105.393972,67.8981405 C107.774018,66.159377 126.538248,50.911127 132.797375,45.0742014 C133.993972,43.9577149 135.218513,43.3682757 136.339501,43.3682757 C138.05057,43.3682757 139.099237,44.6801473 139.477283,45.8032014 C140.001616,47.3646405 139.524949,48.8932419 138.201789,49.8931541 C135.52588,51.914323 129.815743,58.1584378 124.294628,64.1973162 C119.440846,69.5071946 114.421053,74.9960392 112.090317,76.9006338 C108.622156,79.7312554 107.788811,82.7129311 106.52811,87.2264919 C105.831191,89.7205257 104.963329,92.8253432 103.406766,96.747823 C101.717064,101.006891 98.7206391,106.292141 95.5483402,111.88935 C90.6386736,120.547046 85.5629954,129.500282 84.3433862,136.320701 C82.4876736,146.692532 76.3419609,229.724647 75.4724552,241.547911 L27.5608805,231.754026 C30.0214667,220.255857 48.6969379,132.409715 47.0959954,123.408864 C45.7054437,115.591816 38.1971218,106.817546 32.1664667,99.7689041 C30.7545471,98.1204446 29.4231678,96.5622892 28.2890299,95.1568297 C25.6706506,91.9091676 23.9513632,88.2510324 22.1318115,84.3778095 C19.9490069,79.7328973 17.6922368,74.9287216 13.7079609,70.6039784 C10.2792483,66.8850932 7.41924828,65.2497689 5.33013333,64.0544716 C3.01254713,62.7311068 1.95566207,62.1252486 1.6219954,59.8348095 C1.5168,59.112377 1.6450069,58.5541338 2.01647816,58.1256 C2.73476552,57.2948027 4.39981149,56.8367149 6.70424828,56.8367149 C9.5395931,56.8367149 13.1080184,57.5148162 16.7520529,58.7462351 C21.1324552,60.2272216 25.4405356,66.2349041 28.9021218,71.0620662 C32.1631793,75.6084649 34.7404667,79.2009243 37.2947425,79.4866135 C37.5445816,79.5145257 37.8059264,79.5293027 38.0722023,79.5293027 C42.9966621,79.5293027 50.2502138,74.4263027 52.9951563,69.0310459 C55.6480529,63.8147554 56.3449724,54.6562824 56.2644322,51.0391946 C56.1970414,47.8473568 54.5352828,22.9414986 53.6378345,12.2281541 C53.3863517,9.23334324 54.0717655,7.80325541 54.6914322,7.13007973 C55.182892,6.59646486 55.8288575,6.3255527 56.6096046,6.3255527 C58.7398115,6.32719459 61.3549034,8.37791757 61.6672023,11.1248027 C62.3723402,17.3311541 65.5462828,44.0201068 65.5808,44.3090797 C66.2234782,48.9736946 67.5712943,51.3396608 69.5864437,51.3396608 C72.0881218,51.3396608 73.8139839,47.4992757 74.0358805,43.7869581 C74.4089954,37.5921 76.8909494,14.6400932 77.7062138,7.09888378 C78.1713747,2.79220135 80.1799494,1.25703243 81.9041678,1.25703243" id="Fill-12" fill="#FFFFFF" mask="url(#mask-2)"></path>
                                        </g>
                                    </g>
                                </g>
                            </g>
                        </g>
                    </g>
                </g>
            </g>
        </g>
    </g>
</svg>