<?xml version="1.0" encoding="UTF-8" standalone="no"?>
<svg width="223px" height="241px" viewBox="0 0 223 241" version="1.1" xmlns="http://www.w3.org/2000/svg" xmlns:xlink="http://www.w3.org/1999/xlink">
    <!-- Generator: Sketch 46.2 (44496) - http://www.bohemiancoding.com/sketch -->
    <title>listen</title>
    <desc>Created with Sketch.</desc>
    <defs>
        <polygon id="path-1" points="200.9496 268.5111 18.8036 250.8571 32.4056 110.5151 214.5516 128.1691"></polygon>
    </defs>
    <g id="home" stroke="none" stroke-width="1" fill="none" fill-rule="evenodd">
        <g id="Mobile-Portrait-Copy-2" transform="translate(-48.000000, -8316.000000)">
            <g id="liste-besorgen" transform="translate(10.000000, 8279.000000)">
                <g id="Page-1" transform="translate(22.813688, 23.954373)">
                    <g id="Stroke-2-+-Page-1-Mask">
                        <g id="listen" transform="translate(15.000000, 13.000000)">
                            <polygon id="Fill-1" fill="#70C6C7" points="31.1535 141.2147 213.7405 153.4927 223.2005 12.8097 40.6135 0.5317"></polygon>
                            <polygon id="Stroke-2" points="213.7408 153.4923 31.1528 141.2143 40.6128 0.5323 223.2008 12.8103"></polygon>
                            <polygon id="Fill-4" fill="#A1185C" points="25.177 189.013 208.177 189.013 208.177 48.013 25.177 48.013"></polygon>
                            <polygon id="Stroke-5" points="25.177 189.013 208.177 189.013 208.177 48.013 25.177 48.013"></polygon>
                            <polygon id="Fill-6" fill="#FFFFFF" points="0.5373 95.2445 11.3603 235.8285 193.8193 221.7815 182.9973 81.1975"></polygon>
                            <polygon id="Stroke-7" points="193.8199 221.7816 11.3599 235.8286 0.5369 95.2446 182.9969 81.1976"></polygon>
                            <polygon id="Fill-9" fill="#F9DC00" points="18.8028 250.8572 200.9488 268.5112 214.5518 128.1682 32.4058 110.5152"></polygon>
                            <g id="Stroke-10">
                                <use fill="#D8D8D8" xlink:href="#path-1"></use>
                                <use fill="#009D97" xlink:href="#path-1"></use>
                            </g>
                        </g>
                    </g>
                </g>
            </g>
        </g>
    </g>
</svg>