<?xml version="1.0" encoding="UTF-8" standalone="no"?>
<svg width="192px" height="105px" viewBox="0 0 192 105" version="1.1" xmlns="http://www.w3.org/2000/svg" xmlns:xlink="http://www.w3.org/1999/xlink">
    <!-- Generator: Sketch 46.2 (44496) - http://www.bohemiancoding.com/sketch -->
    <title>ferien fuer alle</title>
    <desc>Created with Sketch.</desc>
    <defs>
        <polygon id="path-1" points="0.431838632 0.0870967742 24.9199298 0.0870967742 24.9199298 24.5758975 0.431838632 24.5758975 0.431838632 0.0870967742"></polygon>
        <polygon id="path-3" points="0.499580568 0.0870967742 24.9876717 0.0870967742 24.9876717 24.5758975 0.499580568 24.5758975 0.499580568 0.0870967742"></polygon>
    </defs>
    <g id="home" stroke="none" stroke-width="1" fill="none" fill-rule="evenodd">
        <g id="Mobile-Portrait-Copy-2" transform="translate(-64.000000, -1490.000000)">
            <g id="ferien-für-alle" transform="translate(29.000000, 1444.000000)">
                <g id="ferien-fuer-alle" transform="translate(35.000000, 46.000000)">
                    <path d="M20.0267409,61.9999475 C23.8930651,61.9851372 27.0147579,58.8395833 26.9999475,54.9732591 C26.9851372,51.1077576 23.8387605,47.9852421 19.9732591,48.0000525 C16.1069349,48.0148628 12.9852421,51.1612395 13.0000525,55.0267409 C13.0148628,58.8930651 16.1612395,62.0147579 20.0267409,61.9999475" id="Fill-1" fill="#4A4A4A"></path>
                    <path d="M26.1773892,84.1463096 L28.2355307,101.165415 C28.4812789,103.20241 26.9202926,104.999177 24.9033786,105 C23.2825719,105 21.8929627,103.8219 21.6003282,102.199544 L19.602007,91.1252371 L17.6036858,102.199544 C17.3110514,103.8219 15.9214421,105 14.3014439,105 L14.3014439,105 C12.2845298,104.999177 10.7227351,103.20241 10.9692917,101.165415 L13.0266249,84.1463096 L11.6863269,74.3833798 L3.63483853,80.2689448 C2.63971983,80.9970304 1.25738599,80.8004062 0.496698181,79.8230437 C-0.242163302,78.8744756 -0.146774182,77.507978 0.716578185,76.67541 L11.4721056,66.3053308 C12.1382126,65.6628054 13.0209662,65.3041101 13.9384802,65.3032874 L19.602007,65.2975285 L28.3131354,65.2942377 L36.3654322,59.4391125 C37.3605509,58.7110268 38.7420763,58.9076511 39.5035725,59.8858363 C40.242434,60.8344044 40.1462365,62.2000792 39.2836925,63.0326473 L27.4910105,74.4031245 L26.1773892,84.1463096 Z" id="Fill-3" fill="#4A4A4A"></path>
                    <path d="M32.4736905,57.9962117 L45.8489869,30.8881507 C46.4201885,29.7311093 47.602748,28.9983708 48.8975809,29.0000027 L77.2068903,29.0261137 C78.4828744,29.0277456 79.6506826,29.7417169 80.2292599,30.8750953 L93.4947413,56.8807846 C94.5379833,58.9272303 93.9225279,61.4249057 92.0466592,62.7573801 C89.7372673,64.3982901 86.503463,63.6206734 85.2012544,61.1099424 L76.2406827,43.8359176 L74.3869409,61.4395931 L78.7369239,98.3270206 C79.1540568,101.865054 76.3767221,104.972257 72.7995413,104.970625 L72.786429,104.970625 C69.7697961,104.968993 67.2276621,102.729163 66.8588805,99.7484354 L63.2063043,70.2300074 L59.6684602,99.7549631 C59.3103323,102.747115 56.7616422,105 53.7351751,105 C50.1694674,105 47.3978693,101.910748 47.7977924,98.3833223 L51.9732189,61.5350613 L49.9940913,43.9566808 L40.7221041,62.1021585 C39.5944521,64.3093496 36.9121811,65.2281287 34.6593357,64.1796109 C32.3204413,63.0911107 31.3353848,60.3029509 32.4736905,57.9962117" id="Fill-5" fill="#4A4A4A"></path>
                    <g id="Group-9" transform="translate(50.000000, 0.000000)">
                        <mask id="mask-2" fill="white">
                            <use xlink:href="#path-1"></use>
                        </mask>
                        <g id="Clip-8"></g>
                        <path d="M24.9198387,12.2846774 C24.9456452,19.0467742 19.4851613,24.55 12.7230645,24.5758065 C5.96016129,24.6016129 0.457741935,19.141129 0.431935484,12.3790323 C0.405322581,5.61612903 5.8666129,0.113709677 12.6287097,0.0870967742 C19.3908065,0.0612903226 24.8940323,5.52258065 24.9198387,12.2846774" id="Fill-7" fill="#4A4A4A" mask="url(#mask-2)"></path>
                    </g>
                    <g id="Group-12" transform="translate(106.000000, 0.000000)">
                        <mask id="mask-4" fill="white">
                            <use xlink:href="#path-3"></use>
                        </mask>
                        <g id="Clip-11"></g>
                        <path d="M24.9875806,12.2846774 C25.0133871,19.0467742 19.5529032,24.55 12.7908065,24.5758065 C6.02790323,24.6016129 0.525483871,19.141129 0.499677419,12.3790323 C0.473064516,5.61612903 5.93435484,0.113709677 12.6964516,0.0870967742 C19.4585484,0.0612903226 24.9617742,5.52258065 24.9875806,12.2846774" id="Fill-10" fill="#4A4A4A" mask="url(#mask-4)"></path>
                    </g>
                    <path d="M85.8671389,56.3414727 L105.518336,30.4198798 C106.197195,29.5247915 107.250763,29 108.368405,29 L128.426755,29 C129.533853,29 130.5785,29.5149823 131.257358,30.3945394 L151.11051,56.1101394 C152.54771,57.97225 152.207065,60.6575148 150.350546,62.0953781 C148.708147,63.3664852 146.393379,63.2495923 144.886428,61.819086 L130.86156,45.533384 L137.140795,73.0121853 L128.382147,73.0121853 L129.26377,100.611967 C129.337577,102.974346 127.464026,104.932913 125.118437,104.945175 L125.115193,104.945175 C122.961015,104.956619 121.152349,103.311128 120.943906,101.14902 L118.573175,75.8078035 L116.281116,101.189891 C116.081595,103.341373 114.295639,104.988499 112.152816,104.999943 C109.795872,105.012204 107.89799,103.055271 107.963685,100.681448 L108.74717,73.0996505 L100.018532,73.1037377 L106.075535,45.6404676 L92.1382627,62.0038257 C90.6434772,63.4416889 88.3343865,63.5773827 86.6846884,62.3234416 L86.6806331,62.3209894 C84.8103263,60.9002922 84.4453489,58.2166622 85.8671389,56.3414727" id="Fill-13" fill="#4A4A4A"></path>
                    <path d="M147,58 L162.430338,65.8757354 L174.590703,65.8520869 C175.120127,65.8512715 175.642995,65.9735908 176.115871,66.2092595 L190.929093,73.5867473 C192.18791,74.5824268 192.363292,76.4188481 191.315098,77.632256 C190.435729,78.649953 189.166258,78.6140727 187.781232,78.2552693 L176.085548,74.1551246 L180.697111,91.211335 L175.734784,91.2757566 L175.493019,102.371753 C175.461876,103.800443 174.298946,104.946983 172.863108,104.965738 L172.863108,104.965738 C171.490375,104.983679 170.328265,103.961089 170.179108,102.602529 L169.027651,91.4576047 L167.922089,102.624546 C167.780308,103.978214 166.63131,105.004065 165.263495,104.999988 C163.82274,104.995095 162.646697,103.851817 162.608178,102.418234 L162.313963,91.3271307 L157.351636,91.3108215 L161.805847,74.2146533 L147,62.7492527 L147,58 Z" id="Fill-15" fill="#4A4A4A"></path>
                    <path d="M168.026741,62.9999475 C171.893065,62.9851372 175.014758,59.8395833 174.999948,55.9732591 C174.985137,52.1077576 171.838761,48.9852421 167.973259,49.0000525 C164.106935,49.0148628 160.985242,52.1612395 161.000052,56.0267409 C161.014863,59.8930651 164.161239,63.0147579 168.026741,62.9999475" id="Fill-17" fill="#4A4A4A"></path>
                </g>
            </g>
        </g>
    </g>
</svg>