<?xml version="1.0" encoding="UTF-8" standalone="no"?>
<svg width="195px" height="250px" viewBox="0 0 195 250" version="1.1" xmlns="http://www.w3.org/2000/svg" xmlns:xlink="http://www.w3.org/1999/xlink">
    <title>Hausfrau</title>
    <desc>Created by someone</desc>
    <defs>
        <polygon id="path-1" points="7.81644933e-15 0 295.964126 0 295.964126 327.35426 0 327.35426"></polygon>
    </defs>
    <g id="home" stroke="none" stroke-width="1" fill="none" fill-rule="evenodd">
        <g id="Tablet" transform="translate(-66.000000, -2358.000000)">
            <g id="hausfrau" transform="translate(-35.000000, 2301.000000)">
                <g id="Page-1">
                    <g id="Group-15" transform="translate(0.000000, 0.482063)">
                        <g id="Group-14">
                            <g>
                                <mask id="mask-2" fill="white">
                                    <use xlink:href="#path-1"></use>
                                </mask>
                                <g id="Clip-13"></g>
                                <path d="M240.553085,263.927838 C206.345388,274.974334 170.643066,274.281445 135.017015,274.452093 C98.99934,274.62274 61.3330306,275.926136 26.1939429,266.992141 C26.1338059,266.97743 26.0810026,266.978901 26.0237991,266.965661 C27.7604389,262.846579 29.6862903,258.880492 31.7529504,255.017382 C32.8163489,256.24428 34.0836266,257.302001 35.6134537,258.12876 C44.46973,262.906895 51.4676258,257.076923 56.5499374,248.924082 C58.811676,253.406526 62.1793492,257.246099 66.874437,259.769037 C74.2375551,263.724827 83.265442,263.585072 89.785175,258.786342 C105.304927,268.302892 123.099618,274.172584 141.488345,272.775038 C154.01298,271.823236 171.495251,266.734699 180.661013,256.07069 C180.973433,256.411985 181.247716,256.77976 181.570402,257.1137 C185.039282,260.694359 191.14979,266.393403 196.567989,263.036351 C198.061147,262.111029 198.914799,260.78851 199.384161,259.293871 C201.961253,264.62514 205.754285,269.879912 210.933403,268.667725 C216.825364,267.289304 219.044567,260.122101 219.42739,253.846385 C223.488839,259.79993 229.402802,265.245945 236.875927,262.158104 C237.37169,261.95215 237.798517,261.69765 238.23561,261.449034 C239.014458,262.262552 239.788905,263.08784 240.553085,263.927838 M244.036632,267.905695 C246.844004,271.220085 249.538436,274.637451 252.067125,278.185746 C251.998187,278.196044 251.935117,278.191631 251.866179,278.206342 C214.000391,285.555961 175.858852,288.557006 137.308089,288.359879 C118.643611,288.264257 99.9879339,287.574311 81.3498579,286.612211 C72.0315532,286.132632 62.7161821,285.585383 53.4022777,285.010182 C43.5280723,284.399676 32.8354167,284.83365 23.6051175,280.81019 C22.6898614,280.411522 21.8215415,280.427704 21.0617616,280.68956 C21.8508766,278.106307 22.6927949,275.536294 23.6212518,272.99129 C23.662321,272.878015 23.7121907,272.772096 23.7547267,272.658821 C24.042211,272.850064 24.3663642,273.011885 24.7594549,273.11192 C60.5043131,282.198909 98.6517187,280.813132 135.257563,280.752817 C170.384917,280.695444 209.671992,283.677365 242.591877,269.213503 C243.276852,268.911928 243.743281,268.442646 244.036632,267.905695 M255.329191,282.960939 C257.519059,286.295924 259.55345,289.726531 261.467568,293.22628 C220.766539,300.218421 180.798888,304.839149 139.407017,305.221635 C98.2791625,305.60265 57.2187784,303.282724 16.1143916,302.491272 C16.9401755,297.057026 18.0446432,291.666913 19.4497961,286.344471 C19.7020782,286.560723 19.9880957,286.760792 20.3503846,286.915258 C35.949341,293.577873 55.6346812,291.915529 72.2838354,292.851149 C92.4737399,293.985368 112.682712,294.890095 132.906352,295.088693 C173.353632,295.48589 214.188136,293.198329 253.692291,283.984825 C254.462338,283.805351 254.990371,283.431691 255.329191,282.960939 M267.679282,306.045451 C267.542874,306.066047 267.412332,306.045451 267.271524,306.092526 C246.802935,312.916963 226.874113,318.283538 205.163182,318.983782 C185.247561,319.628124 165.248335,319.122065 145.323913,319.14119 C124.66318,319.161785 104.00098,319.18238 83.3402466,319.201505 C61.3843671,319.223571 37.5451722,321.781815 15.9618489,317.274363 C15.4646184,317.171386 15.0084571,317.17727 14.5889647,317.255239 C14.7488412,314.391005 14.9629876,311.529715 15.2798071,308.680193 C15.5863592,308.787583 15.9119792,308.867022 16.2801351,308.883204 C58.0914985,310.598508 100.117008,311.962218 141.962107,311.447333 C182.39912,310.94863 224.795719,309.072976 263.889183,297.767568 C265.250333,300.481748 266.498543,303.25036 267.679282,306.045451 M269.558197,310.679418 C270.577593,313.362706 271.529518,316.069531 272.371436,318.811663 C272.389037,318.871978 272.430106,318.904342 272.452108,318.958773 C264.534556,325.333052 254.017911,326.356939 244.287448,327.738302 C233.431982,329.278544 222.52958,330.451012 211.602244,331.327788 C189.713835,333.08134 167.746222,333.647714 145.794742,333.785997 C123.784593,333.925752 101.77151,333.68302 79.7598937,333.54915 C68.7254839,333.481479 57.691074,333.431462 46.6566641,333.379973 C36.0710818,333.328485 24.3516966,334.55244 14.382152,330.334795 C14.322015,328.184046 14.3249485,326.036239 14.3513501,323.88696 C14.3718847,323.891374 14.388019,323.9002 14.4070869,323.904614 C35.232097,328.18993 57.6676059,325.965626 78.8285033,325.922964 L147.959675,325.787623 C188.610834,325.706712 231.783348,329.128492 269.44819,310.766213 C269.495127,310.742676 269.514194,310.704427 269.558197,310.679418 M14.8119117,207.374315 C13.2160805,195.195072 13.9729269,182.727494 15.1155303,170.54678 C15.8650429,162.55429 16.7817658,154.547089 17.8216962,146.545772 C17.0281809,166.12318 17.2672622,185.746192 17.8524981,205.320658 C18.0065076,210.459213 18.2543894,216.774648 20.5938662,221.648405 C19.9616941,221.591032 19.3632574,221.379193 18.8146905,220.967285 C15.6435627,218.579688 15.2446049,210.676936 14.8119117,207.374315 M129.757226,90.2614595 C130.75022,88.2136874 130.979034,85.856984 130.747286,83.4399656 C132.238978,85.4833245 133.79374,87.4796081 135.517179,89.347906 C138.547498,92.6299316 143.138446,97.5566479 148.037413,97.5948965 C153.990978,97.6405006 155.724685,93.5920315 155.624945,88.9286423 C159.827203,95.3573523 165.393544,101.335906 172.668657,101.518322 C179.880699,101.700739 180.4498,95.3647078 179.181056,89.1654895 C184.662325,95.9678591 191.327267,102.222979 199.896059,103.464588 C203.898838,104.044202 208.249238,102.967356 209.91254,98.8835807 C210.56378,97.2859653 210.678187,95.4603294 210.538845,93.5758494 C214.261473,99.5485182 219.10177,105.23138 224.80452,108.941496 C225.391222,120.374891 222.778929,132.267269 220.209171,143.36231 C217.797824,153.770348 214.603228,164.018035 209.902273,173.631678 C205.82469,181.969877 200.692508,189.799075 194.391322,196.620568 C190.893107,200.408653 187.038471,203.870153 182.850881,206.875611 C180.952898,208.237851 174.793987,212.765899 170.357048,213.782429 C168.225851,214.422358 165.986114,214.740116 163.643703,214.87987 C163.692106,215.025509 163.736109,215.172619 163.840249,215.312374 C164.448953,216.13619 165.192598,216.692266 166.019849,217.060041 C165.780768,230.545622 170.320379,243.74875 178.915573,254.072935 C168.32119,265.064999 151.157204,269.793117 136.467637,269.831366 C120.755741,269.872556 105.725886,264.513337 92.3740004,256.491424 C92.834562,256.000077 93.2760557,255.48372 93.6926146,254.932058 C101.189208,245.025666 100.5233,230.067514 100.699311,218.322246 C100.920791,203.561222 99.9629991,188.807553 97.9007393,174.196581 C101.684971,180.953346 106.085241,187.358519 111.324496,193.206144 C120.730806,203.703918 139.115133,220.053731 154.56448,215.472724 C155.610277,215.162322 155.297858,213.576475 154.240327,213.608839 C136.844594,214.147262 120.946419,200.510159 110.602851,187.592424 C99.9336639,174.270136 93.1689825,158.305751 88.3961565,142.02508 C88.3565541,141.891209 88.2802828,141.805886 88.2216125,141.697024 C88.5897684,140.637832 88.0280006,139.190269 86.5905792,139.274121 C77.9000464,139.777238 71.0810949,121.600318 68.8428244,115.178963 C68.1915845,113.310665 66.7644303,110.290495 66.9477749,108.245665 C67.7896931,98.9218293 75.2730853,104.309 77.8487099,106.764267 C80.0429777,108.854701 81.5596041,111.382052 83.102632,113.912345 C82.9779577,114.206565 82.928088,114.541976 83.0248939,114.911223 C83.8492111,118.077031 86.6683173,121.334048 90.2105345,119.323054 C95.3089804,116.429399 91.4646113,107.998521 90.6212263,104.033904 C88.5486992,94.2966887 87.3400918,84.1858137 88.4298919,74.2397019 C89.3055456,66.250154 91.9281064,59.2462436 95.3207144,52.1320007 C97.4123093,67.0651438 104.98664,82.086553 117.457005,90.9352236 C121.304308,93.6655865 127.144932,95.6456881 129.757226,90.2614595 M290.38174,177.840497 C287.163676,164.338735 283.335442,150.959074 279.448537,137.638257 C271.808202,111.457078 263.770376,84.6462682 251.628564,60.1494995 C241.55488,39.8247723 226.777307,22.7982529 207.084633,11.3883959 C197.89687,6.0659536 187.881856,2.03660881 177.550023,-0.40247614 C175.847118,-0.804086629 174.129546,-1.13655539 172.404641,-1.43813103 C158.341378,-7.1268774 140.517352,-2.92100052 126.748908,1.29958736 C126.536228,1.36431579 126.379285,1.47464834 126.226743,1.586452 C108.267775,-7.13570401 86.8765967,-6.25304359 69.1493765,2.90897152 C56.4751328,9.461254 47.9811453,19.8119185 41.7386293,31.7646116 C36.0256123,39.0789242 31.3143902,47.2185244 27.609363,55.5464254 C17.3083314,78.7030214 12.4885693,104.316356 8.08683272,129.150006 C3.49881809,155.035494 -2.21713236,182.312643 0.880657569,208.67771 C2.03646177,218.503191 4.22339585,231.370909 14.8544476,235.281095 C19.2371164,236.89195 23.5303129,236.369709 27.5228244,234.617628 C26.9053198,240.802136 27.2632084,246.930741 29.5469485,251.642677 C26.2760812,257.822771 23.4423075,264.173512 21.0661618,270.421277 C13.6663748,289.880997 10.2077628,310.597037 10.8326011,331.408698 C10.8326011,331.42488 10.8414016,331.435178 10.8428684,331.45136 C10.7313949,332.113356 10.9822102,332.804773 11.7859929,333.182846 C21.324311,337.674116 31.7808187,337.084205 42.071583,337.132751 C53.8936412,337.188653 65.7156993,337.250439 77.5377575,337.290159 C101.118803,337.366656 124.705716,337.575552 148.285295,337.322523 C171.800337,337.072436 195.330046,336.278042 218.748282,334.040497 C230.243253,332.943056 241.761693,331.605826 253.133457,329.571294 C261.12288,328.142855 268.926025,326.03771 274.587705,319.879682 C274.703579,319.753168 274.782784,319.623711 274.82972,319.494254 C275.291749,319.150016 275.558698,318.577758 275.304949,317.877514 C272.623718,310.466109 269.373386,303.087068 265.618489,295.88603 C265.844369,294.64295 265.257667,293.240991 264.038792,292.967366 C257.568929,281.09117 249.686579,269.794588 240.510549,259.780806 C243.29592,257.037203 244.195042,253.06376 244.192109,248.950562 C247.058151,253.288838 251.087331,256.516433 256.684474,254.97472 C264.411348,252.847508 265.665425,245.681777 264.610827,238.797025 C268.541735,242.068753 273.736987,243.731097 279.015844,242.661607 C290.023852,240.432889 295.1619,228.728812 295.81754,218.573804 C296.691727,205.047033 293.500065,190.922995 290.38174,177.840497" id="Fill-12" fill="#1F191B" mask="url(#mask-2)"></path>
                                <path d="M181.203943,144.068939 C177.367968,148.075256 173.06851,151.481681 168.456704,154.441954 C166.644512,155.605565 164.856789,152.649813 166.686254,151.531421 C171.142606,148.803267 175.30964,145.708846 179.090918,142.017548 C181.660229,139.510962 182.454773,139.268292 179.868189,136.279381 C178.443192,134.634952 176.838272,133.201541 175.482367,131.46969 C171.13253,125.912395 167.715418,119.048299 166.928072,111.848082 C166.818678,110.845749 168.22928,110.678442 168.53731,111.555672 C170.497759,117.156678 172.367527,122.632581 175.767366,127.508591 C177.496074,129.985032 179.410463,132.285122 181.579623,134.345557 C182.515227,135.234845 184.567797,136.434629 184.897418,137.84091 C185.491886,140.374627 182.631818,142.576745 181.203943,144.068939" id="Fill-2" fill="#1F191B" mask="url(#mask-2)"></path>
                                <path d="M148.332272,162.945234 C146.953027,161.180174 150.004129,159.201035 151.314265,161.065125 C159.785301,173.121997 174.987878,167.959343 184.892564,161.047649 C185.646885,160.520461 186.48796,161.590856 185.902736,162.2462 C175.896591,173.458407 158.113444,175.466672 148.332272,162.945234" id="Fill-4" fill="#1F191B" mask="url(#mask-2)"></path>
                                <path d="M209.745777,116.702856 C208.605863,116.210446 207.406413,115.863486 206.186633,115.69531 C200.080471,114.85291 194.822347,117.631617 190.754961,121.945128 C193.184357,116.255899 198.785181,112.39389 205.22533,114.225655 C207.018697,114.736246 208.491146,115.604403 209.745777,116.702856 M218.599348,129.241886 C217.436201,121.05576 212.21438,112.425707 203.810966,111.157562 C194.825251,109.801541 187.979961,116.69225 186.145934,125.352605 C185.814851,126.916196 187.291656,127.772232 188.422857,127.519209 C189.012418,127.873744 189.819796,127.829806 190.354176,126.987406 C192.045895,124.317787 194.148564,121.922402 196.636044,120.233057 C196.511162,120.530018 196.44146,120.864857 196.528587,121.26939 C196.88,122.904191 197.208179,124.595051 198.735809,125.478359 C199.109003,125.695019 199.521405,125.823804 199.941068,125.91471 C201.428038,126.764685 203.228666,126.366212 204.512339,124.905648 C206.227292,122.95722 207.634396,120.667893 207.182787,118.002818 C210.416656,118.678556 212.645659,120.572441 214.286554,123.151154 C215.300133,125.243517 216.165597,127.447999 217.067363,129.520666 C217.398446,130.28125 218.741656,130.235797 218.599348,129.241886" id="Fill-6" fill="#1F191B" mask="url(#mask-2)"></path>
                                <path d="M137.522166,115.386249 C133.852773,112.15131 129.393095,109.610115 124.714547,109.341422 C118.511246,108.986201 115.004905,112.192297 111.047602,115.527426 C114.57157,109.098536 120.140292,103.193368 127.490828,105.726974 C131.896156,107.24653 135.042608,111.207091 137.522166,115.386249 M142.34467,120.101275 C140.40568,112.433665 132.840679,103.178188 124.808558,102.109489 C115.687959,100.896577 108.569513,112.005578 105.528824,119.42423 C105.114585,120.433725 105.63018,121.330885 106.352895,121.7529 C106.842049,122.215902 107.544199,122.401102 108.237535,121.894077 C111.583762,119.445482 114.080947,116.15134 117.358134,114.003316 C116.266718,116.292518 116.513498,119.208668 118.536218,120.872438 C120.839504,122.768467 123.960984,122.123301 125.510708,119.60943 C126.92382,117.318711 127.031053,114.420777 126.058619,111.960037 C131.584742,112.675033 136.326455,116.749447 140.327826,120.576421 C140.393928,120.706972 140.465906,120.846631 140.530539,120.975665 C141.084326,122.07776 142.616422,121.1806 142.34467,120.101275" id="Fill-8" fill="#1F191B" mask="url(#mask-2)"></path>
                            </g>
                        </g>
                    </g>
                </g>
            </g>
        </g>
    </g>
</svg>
