<?xml version="1.0" encoding="UTF-8"?>
<svg width="274px" height="89px" viewBox="0 0 274 89" version="1.1" xmlns="http://www.w3.org/2000/svg" xmlns:xlink="http://www.w3.org/1999/xlink">
    <!-- Generator: Sketch 46.2 (44496) - http://www.bohemiancoding.com/sketch -->
    <title>logo</title>
    <desc>Created with someone</desc>
    <defs></defs>
    <g id="home" stroke="none" stroke-width="1" fill="none" fill-rule="evenodd">
        <g id="Mobile-Portrait" transform="translate(-24.000000, -24.000000)" fill="#AA2159">
            <g id="logo" transform="translate(24.000000, 23.000000)">
                <g id="Group-3" transform="translate(0.000000, 43.242300)">
                    <path d="M23.389,18.6711 L5.378,18.6711 L5.378,5.5381 L23.389,5.5381 L23.389,0.2221 L0,0.2221 L0,46.0001 L5.378,46.0001 L5.378,23.9861 L23.389,23.9861 L23.389,18.6711 Z M50.351,25.1121 C55.229,25.1121 58.958,23.9761 61.546,21.7041 C64.131,19.4321 65.423,16.3991 65.423,12.6051 C65.423,10.6041 65.024,8.7791 64.235,7.1321 C63.443,5.4861 62.359,4.1411 60.983,3.0991 C59.607,2.0571 57.981,1.3171 56.105,0.8791 C54.229,0.4411 50.789,0.2221 45.786,0.2221 L36.406,0.2221 L36.406,46.0001 L41.784,46.0001 L41.784,25.1121 L43.66,25.1121 L59.795,46.0001 L66.549,46.0001 L50.351,25.1121 Z M41.784,5.4751 L49.288,5.4751 C52.915,5.4751 55.581,6.0481 57.293,7.1951 C59.002,8.3421 59.857,10.1761 59.857,12.6981 C59.857,15.2211 58.982,17.0551 57.231,18.2021 C55.479,19.3481 52.767,19.9011 49.101,19.8591 L41.784,19.8591 L41.784,5.4751 Z M105.589,0.2221 L78.948,0.2221 L78.948,46.0001 L105.402,46.0001 L105.402,40.6841 L84.327,40.6841 L84.327,23.9241 L105.402,23.9241 L105.402,18.6711 L84.327,18.6711 L84.327,5.5381 L105.589,5.5381 L105.589,0.2221 Z M119.712,46.0001 L125.09,46.0001 L125.09,0.2221 L119.712,0.2221 L119.712,46.0001 Z M174.057,0.2221 L168.679,0.2221 L168.679,19.0461 L146.728,19.0461 L146.728,0.2221 L141.287,0.2221 L141.287,46.0001 L146.728,46.0001 L146.728,24.2991 L168.679,24.2991 L168.679,46.0001 L174.057,46.0001 L174.057,0.2221 Z M216.592,0.2221 L189.951,0.2221 L189.951,46.0001 L216.404,46.0001 L216.404,40.6841 L195.328,40.6841 L195.328,23.9241 L216.404,23.9241 L216.404,18.6711 L195.328,18.6711 L195.328,5.5381 L216.592,5.5381 L216.592,0.2221 Z M230.189,46.0001 L235.567,46.0001 L235.567,0.2221 L230.189,0.2221 L230.189,46.0001 Z M273.43,0.2221 L247.914,0.2221 L247.914,5.4751 L257.983,5.4751 L257.983,46.0001 L263.424,46.0001 L263.424,5.4751 L273.43,5.4751 L273.43,0.2221 Z" id="Fill-1"></path>
                </g>
                <g id="Group-6" transform="translate(36.000000, 0.242300)">
                    <path d="M26.7157,31.7336 C24.0077,35.0656 20.6767,36.7316 16.7197,36.7316 C13.4227,36.7316 10.6977,35.6376 8.5467,33.4516 C6.3947,31.2646 5.3187,28.6446 5.3187,25.5906 C5.3187,22.5366 6.4117,19.9766 8.5987,17.9116 C10.7847,15.8466 13.4917,14.8146 16.7197,14.8146 C20.8157,14.8146 24.1297,16.4626 26.6637,19.7596 L30.0477,17.6256 C28.7287,15.4386 26.8977,13.7376 24.5547,12.5236 C22.2127,11.3086 19.6527,10.7016 16.8767,10.7016 C12.1907,10.7016 8.3727,12.1846 5.4227,15.1526 C2.4727,18.1196 0.9977,21.6856 0.9977,25.8506 C0.9977,30.0156 2.4647,33.5386 5.3967,36.4196 C8.3297,39.2996 11.9827,40.7396 16.3557,40.7396 C19.1667,40.7396 21.7787,40.1676 24.1907,39.0226 C26.6027,37.8766 28.5547,36.2106 30.0477,34.0246 L26.7157,31.7336 Z M60.8667,25.2256 C60.8667,21.3736 60.4507,18.5186 59.6177,16.6626 C58.7847,14.8056 57.5347,13.3476 55.8697,12.2886 C54.2037,11.2306 52.3467,10.7016 50.2987,10.7016 C46.4457,10.7016 43.1147,12.3666 40.3027,15.6986 L40.3027,0.7576 L35.9827,0.7576 L35.9827,39.8026 L40.3027,39.8026 L40.3027,29.2866 C40.3027,25.5386 40.4657,23.0396 40.7977,21.7906 C41.1277,20.5406 41.7267,19.3606 42.5937,18.2496 C43.4597,17.1396 44.5007,16.2716 45.7177,15.6466 C46.9327,15.0226 48.2077,14.7096 49.5437,14.7096 C50.8777,14.7096 52.0237,14.9616 52.9797,15.4646 C53.9347,15.9676 54.6897,16.6966 55.2447,17.6506 C55.7977,18.6056 56.1557,19.6206 56.3117,20.6966 C56.4677,21.7726 56.5467,23.6296 56.5467,26.2676 L56.5467,39.8026 L60.8667,39.8026 L60.8667,25.2256 Z M96.0057,11.4296 L91.7887,11.4296 L91.7887,15.7516 C88.9777,12.3846 85.4977,10.7016 81.3507,10.7016 C77.2027,10.7016 73.6897,12.1676 70.8087,15.1006 C67.9277,18.0326 66.4867,21.5556 66.4867,25.6686 C66.4867,29.7816 67.9197,33.3216 70.7827,36.2886 C73.6457,39.2556 77.0907,40.7396 81.1167,40.7396 C85.1427,40.7396 88.6997,39.0396 91.7887,35.6376 L91.7887,39.8026 L96.0057,39.8026 L96.0057,11.4296 Z M73.9317,33.4776 C71.8497,31.3086 70.8087,28.7486 70.8087,25.7986 C70.8087,22.8486 71.8327,20.2886 73.8797,18.1196 C75.9277,15.9506 78.4357,14.8656 81.4027,14.8656 C84.3697,14.8656 86.8777,15.9156 88.9257,18.0156 C90.9727,20.1156 91.9967,22.7186 91.9967,25.8246 C91.9967,28.9306 90.9557,31.5256 88.8737,33.6076 C86.7907,35.6906 84.3097,36.7316 81.4287,36.7316 C78.5137,36.7316 76.0147,35.6466 73.9317,33.4776 L73.9317,33.4776 Z M128.1787,25.2256 C128.1787,21.3736 127.7627,18.5186 126.9297,16.6626 C126.0967,14.8056 124.8467,13.3476 123.1807,12.2886 C121.5147,11.2306 119.6587,10.7016 117.6107,10.7016 C113.7577,10.7016 110.4257,12.3666 107.6147,15.6986 L107.6147,11.4296 L103.2937,11.4296 L103.2937,39.8026 L107.6147,39.8026 L107.6147,29.2866 C107.6147,25.5386 107.7797,23.0396 108.1097,21.7906 C108.4397,20.5406 109.0377,19.3606 109.9057,18.2496 C110.7737,17.1396 111.8147,16.2716 113.0287,15.6466 C114.2437,15.0226 115.4847,14.7096 116.7517,14.7096 C118.0187,14.7096 119.0947,14.9006 119.9797,15.2826 C120.8647,15.6646 121.5927,16.2456 122.1657,17.0266 C122.7387,17.8076 123.1727,18.7616 123.4677,19.8896 C123.7627,21.0176 123.9097,23.1436 123.9097,26.2676 L123.9097,39.8026 L128.1787,39.8026 L128.1787,25.2256 Z M159.4667,31.7336 C156.7597,35.0656 153.4277,36.7316 149.4717,36.7316 C146.1737,36.7316 143.4497,35.6376 141.2987,33.4516 C139.1467,31.2646 138.0697,28.6446 138.0697,25.5906 C138.0697,22.5366 139.1637,19.9766 141.3497,17.9116 C143.5367,15.8466 146.2437,14.8146 149.4717,14.8146 C153.5667,14.8146 156.8817,16.4626 159.4147,19.7596 L162.7987,17.6256 C161.4807,15.4386 159.6497,13.7376 157.3067,12.5236 C154.9637,11.3086 152.4037,10.7016 149.6277,10.7016 C144.9427,10.7016 141.1247,12.1846 138.1747,15.1526 C135.2247,18.1196 133.7497,21.6856 133.7497,25.8506 C133.7497,30.0156 135.2157,33.5386 138.1487,36.4196 C141.0807,39.2996 144.7347,40.7396 149.1077,40.7396 C151.9187,40.7396 154.5297,40.1676 156.9427,39.0226 C159.3547,37.8766 161.3067,36.2106 162.7987,34.0246 L159.4667,31.7336 Z M192.3687,14.8916 C189.5907,12.0986 186.1397,10.7016 182.0087,10.7016 C177.8767,10.7016 174.4147,12.1756 171.6237,15.1266 C168.8297,18.0766 167.4327,21.6166 167.4327,25.7466 C167.4327,29.8766 168.8187,33.4076 171.5967,36.3406 C174.3737,39.2736 177.8967,40.7396 182.1657,40.7396 C185.2547,40.7396 187.9097,40.0196 190.1307,38.5796 C192.3497,37.1396 194.2757,34.9096 195.9097,31.8896 L192.2647,30.0156 C189.8707,34.4926 186.3997,36.7316 181.8527,36.7316 C179.1787,36.7316 176.8817,35.7856 174.9547,33.8946 C173.0287,32.0026 171.9787,29.4946 171.8057,26.3716 L196.6907,26.3716 C196.5867,21.5126 195.1457,17.6856 192.3687,14.8916 L192.3687,14.8916 Z M172.3257,22.5706 C173.9207,17.4346 177.1487,14.8656 182.0087,14.8656 C184.4037,14.8656 186.5187,15.5426 188.3607,16.8966 C190.1997,18.2496 191.3807,20.1416 191.9007,22.5706 L172.3257,22.5706 Z M227.4577,25.2256 C227.4577,21.3736 227.0417,18.5186 226.2087,16.6626 C225.3757,14.8056 224.1257,13.3476 222.4597,12.2886 C220.7947,11.2306 218.9347,10.7016 216.8897,10.7016 C213.0367,10.7016 209.7057,12.3666 206.8937,15.6986 L206.8937,11.4296 L202.5727,11.4296 L202.5727,39.8026 L206.8937,39.8026 L206.8937,29.2866 C206.8937,25.5386 207.0567,23.0396 207.3887,21.7906 C207.7157,20.5406 208.3147,19.3606 209.1847,18.2496 C210.0497,17.1396 211.0907,16.2716 212.3087,15.6466 C213.5207,15.0226 214.7617,14.7096 216.0307,14.7096 C217.2957,14.7096 218.3737,14.9006 219.2577,15.2826 C220.1437,15.6646 220.8727,16.2456 221.4447,17.0266 C222.0177,17.8076 222.4487,18.7616 222.7467,19.8896 C223.0397,21.0176 223.1887,23.1436 223.1887,26.2676 L223.1887,39.8026 L227.4577,39.8026 L227.4577,25.2256 Z" id="Fill-4"></path>
                </g>
            </g>
        </g>
    </g>
</svg>
