<?xml version="1.0" encoding="UTF-8" standalone="no"?>
<svg width="132px" height="223px" viewBox="0 0 132 223" version="1.1" xmlns="http://www.w3.org/2000/svg" xmlns:xlink="http://www.w3.org/1999/xlink">
    <!-- Generator: Sketch 46.2 (44496) - http://www.bohemiancoding.com/sketch -->
    <title>Paedagogin</title>
    <desc>Created with Sketch.</desc>
    <defs>
        <polygon id="path-1" points="70.1078094 116.233401 0.36676254 116.233401 0.36676254 0.519096717 70.1078094 0.519096717 70.1078094 116.233401"></polygon>
        <polygon id="path-3" points="16.0880461 42.703728 0.883175071 42.703728 0.883175071 0.244255598 16.0880461 0.244255598"></polygon>
        <polygon id="path-5" points="0.725894504 0.448801502 216.384602 0.448801502 216.384602 247.853944 0.725894504 247.853944"></polygon>
        <polygon id="path-7" points="3.42665867 7.31521443 0.838755027 7.31521443 0.838755027 0.200972241 3.42665867 0.200972241"></polygon>
    </defs>
    <g id="home" stroke="none" stroke-width="1" fill="none" fill-rule="evenodd">
        <g id="Mobile-Portrait-Copy-2" transform="translate(-140.000000, -4559.000000)">
            <g id="pädagogin" transform="translate(29.000000, 4538.000000)">
                <g id="Page-1" transform="translate(20.000000, 21.000000)">
                    <g id="Group-211">
                        <g id="Paedagogin" style="mix-blend-mode: multiply;" transform="translate(84.000000, -86.000000)">
                            <g id="Group-4" transform="translate(0.000000, 198.000000)">
                                <mask id="mask-2" fill="white">
                                    <use xlink:href="#path-1"></use>
                                </mask>
                                <g id="Clip-3"></g>
                                <path d="M68.7753063,0.761079767 C51.2263527,18.302627 38.3322038,39.2725632 28.2326366,61.7957234 C17.5696228,85.5784071 6.89669914,109.582778 0.424142184,134.896094 C-0.0727667164,136.840448 2.80392526,137.611412 3.42399962,135.720714 C3.7878332,134.667346 4.1191058,133.602682 4.41498603,132.526721 C4.4772766,132.31633 4.46170396,132.135591 4.41640172,131.971796 C10.8507349,108.269598 20.8172268,85.6899569 30.814864,63.3009387 C40.8832859,40.7551861 53.7222227,20.568922 69.8979523,1.88081308 C70.5604975,1.11832129 69.5072206,0.0296524585 68.7753063,0.761079767" id="Fill-2" fill="#3C3C3B" mask="url(#mask-2)"></path>
                            </g>
                            <g id="Group-10" transform="translate(37.000000, 272.000000)">
                                <mask id="mask-4" fill="white">
                                    <use xlink:href="#path-3"></use>
                                </mask>
                                <g id="Clip-9"></g>
                                <path d="M15.6021678,54.1135973 C6.36356241,47.3792066 2.33517274,39.4207653 4.46356031,27.6986152 C6.19984029,18.1329914 10.2364849,9.45899477 15.7383736,1.58506795 C16.3010824,0.780772386 15.0036878,-0.258754983 14.3900738,0.518777683 C4.9739881,12.4339024 -6.79061574,40.7589103 7.64031979,52.4528889 C6.54929759,56.8927131 5.64125893,61.4156432 4.98912208,65.9287132 C4.75936079,67.5260358 7.05422211,68.2739884 7.42294084,66.6160972 C8.35299255,62.4199562 9.07804766,58.1308494 9.6269983,53.8459683 C11.1211346,54.7601326 12.8106369,55.5461167 14.7642958,56.1489862 C16.0107852,56.5321183 16.55836,54.8108412 15.6021678,54.1135973" id="Fill-8" fill="#3C3C3B" mask="url(#mask-4)"></path>
                            </g>
                            <path d="M79.031291,125.750921 C82.1764298,123.057674 86.494522,123.650473 87.9376186,119.026353 C88.4023209,117.535804 86.1333979,116.897405 85.671495,118.380828 C85.9444377,117.503029 79.2818383,122.338049 78.6113793,122.940824 C74.8181767,126.35797 70.6582513,129.200843 65.4919374,128.541068 C70.4482954,110.429336 78.4546122,94.1002774 87.2951537,77.7184937 C87.6016892,77.1513442 86.827652,76.7195697 86.4693273,77.2211692 C75.4830369,92.5812289 68.2689536,110.980811 63.0396529,129.175193 C62.8758873,129.745192 63.2370114,130.412091 63.7982934,130.556016 C69.6644602,132.052265 74.541035,129.595567 79.031291,125.750921" id="Fill-18" fill="#3C3C3B"></path>
                            <path d="M93.7586143,138.242719 C91.0601594,141.674295 89.7095395,146.141175 87.1712096,149.585551 C87.0250085,146.54648 86.3399518,141.608878 83.9171904,141.064205 C81.5292387,140.528066 79.7817872,144.438897 78.9129349,147.280294 C77.8616792,144.977881 76.328656,142.069645 74.3361436,142.241721 C71.81313,142.459306 70.4973199,145.846796 69.9361861,148.349728 C68.5229086,146.243568 67.3031735,143.955376 66.1586276,142.082444 C65.7186319,141.362851 64.7356034,141.988584 65.0669926,142.735197 C66.3229298,145.566639 67.9506356,148.924265 70.1060579,151.613495 C70.8022537,156.502745 72.1807214,163.242173 78.1540814,162.993302 C83.4354229,162.772873 85.7036288,157.307665 87.0612106,152.722749 C87.8618358,151.95907 88.6011958,151.122863 89.2625818,150.232616 C91.6073693,147.068398 94.0551938,142.824791 94.9811342,138.969422 C95.1412592,138.302448 94.2431666,137.625518 93.7586143,138.242719" id="Fill-22" fill="#3C3C3B"></path>
                            <path d="M99.6074636,102.657772 C101.918428,99.1486508 104.795258,95.8491137 109.005015,96.9522636 C111.549311,97.6178355 113.083434,99.2506107 114.071253,101.294058 C110.664885,97.2878818 104.165122,99.1684763 99.6074636,102.657772 M122.140069,106.760244 C121.321311,107.233225 120.836484,107.968186 119.878006,108.238663 C119.062043,108.470905 118.466837,108.296723 117.783607,108.091387 C117.698378,107.353594 117.601971,106.610136 117.459457,105.865262 C119.486791,106.202296 122.100948,105.205355 122.141466,103.205807 C122.152644,102.701672 121.61612,102.463765 121.21233,102.664853 C120.297166,103.118008 119.784394,103.963426 118.736496,104.26789 C118.158056,104.434991 117.638299,104.416581 117.115747,104.350024 C117.002574,103.913862 116.897784,103.473452 116.758064,103.047202 C118.388594,102.820625 120.122516,101.550374 120.175609,100.100277 C120.192376,99.6726116 120.044273,99.2123757 119.549665,99.1684763 C118.960048,99.1160802 118.680608,99.8340481 118.387197,100.216398 C117.965243,100.763017 117.396583,101.177937 116.739901,101.384689 C116.548484,101.446998 116.359863,101.47532 116.172638,101.489481 C114.788016,98.291904 112.481242,95.7159993 108.780066,95.0971591 C105.736969,94.5873594 103.254149,96.1493291 101.173722,98.2480046 C99.0891033,100.350928 96.3939091,103.279445 95.9705582,106.400552 C95.5751513,106.983989 95.2482071,107.570259 95.0134779,108.149448 C94.936632,108.340623 95.2062911,108.553039 95.3697632,108.427006 C95.6464084,108.216005 95.9090815,107.99226 96.1703575,107.768514 C96.2541893,107.765682 96.3380212,107.73736 96.3981007,107.656642 C96.4456054,107.5915 96.4945073,107.516447 96.542012,107.448473 C98.7062711,105.529644 100.554764,103.316263 103.216425,101.958214 C104.666716,101.219004 105.96611,100.839486 107.176083,100.7616 C105.298249,102.714417 104.30065,106.452948 105.696451,108.885825 C107.409415,111.872402 111.099414,110.095184 112.296812,107.66797 C112.805392,106.637042 113.460678,104.818756 113.523552,103.225632 C113.895206,103.524432 114.268258,103.84164 114.648296,104.182923 C114.776838,104.299044 114.955679,104.324534 115.117754,104.286299 C115.700386,106.649787 115.916951,109.191705 116.224335,111.345609 C116.37104,112.376537 118.00157,112.108892 117.99179,111.103454 C117.987598,110.643218 117.94149,110.146163 117.910752,109.66327 C118.605159,109.957821 119.426712,110.032875 120.104352,109.933747 C121.336681,109.755317 123.164215,108.752711 122.988168,107.25305 C122.939266,106.833881 122.545257,106.528002 122.140069,106.760244" id="Fill-24" fill="#3C3C3B"></path>
                            <g id="Group-28" transform="translate(18.000000, 0.000000)">
                                <mask id="mask-6" fill="white">
                                    <use xlink:href="#path-5"></use>
                                </mask>
                                <g id="Clip-27"></g>
                                <path d="M39.4044913,95.4143498 C39.8176535,94.948559 40.2520397,94.515331 40.7331189,94.1613866 C43.1088013,92.4129013 44.3058396,94.0877662 44.9779355,96.0231342 C43.4229177,94.9754588 41.2028786,94.7659237 39.4044913,95.4143498 M154.405064,92.8942657 C153.135863,98.5432183 150.088085,103.322884 146.560642,107.78683 C143.211482,112.027084 139.545375,117.046016 133.969101,118.004497 C132.889503,118.188548 132.804607,119.321171 133.322474,120.034722 C127.168905,142.729637 120.906386,165.597277 115.49,188.552696 C113.908098,189.470119 112.283748,190.311091 110.609875,191.061453 C110.464137,191.071364 110.321228,191.079859 110.176904,191.089769 L110.176904,191.086937 C110.290099,191.057206 110.400464,191.010485 110.49951,190.931202 C115.214086,187.11285 117.669005,181.146763 118.174139,175.166518 C118.475521,171.605838 118.462786,163.306549 114.881576,161.260751 C108.214384,157.450893 107.702176,176.603533 108.07289,186.372398 C105.919353,183.28034 102.40606,180.556384 99.6865472,178.865945 C97.1354124,177.28169 90.0748674,174.617197 88.4858911,179.034423 C87.1813174,182.664476 93.7027707,188.650384 96.0897726,190.483816 C98.7795714,192.552267 101.517478,193.404565 104.425178,193.529154 C102.096188,194.372957 99.7431448,195.162961 97.4113255,195.968539 C91.3893457,198.048316 78.5742442,203.731247 71.5717117,200.542916 C71.7245251,196.345136 71.8235709,191.334699 70.3944826,187.656508 C70.3803332,186.812705 70.3633539,185.974565 70.3449597,185.146335 C76.8961267,182.154797 83.0850694,177.560598 87.7034299,173.919218 C100.90481,163.510421 111.013133,149.675442 117.316686,133.997121 C117.978877,132.350572 115.354165,131.648346 114.693389,133.263748 C107.932811,149.798615 96.5722668,164.187163 82.0917823,174.427482 C74.6279797,179.705501 62.8754974,187.900022 53.4449298,184.756996 C44.0907689,181.638038 38.3630963,169.694538 35.3464466,160.983258 C28.9976159,142.648938 29.5989649,121.907796 30.6955425,102.783472 C30.7323309,102.137878 30.7747791,101.482373 30.8129824,100.833947 C31.3350949,101.206296 31.9661576,101.454057 32.5448676,101.517767 C33.0542456,101.574398 33.6159764,101.500778 34.1678025,101.340795 C33.7659599,102.539959 33.5098559,103.800001 33.4136401,105.047301 C33.3839264,105.425313 33.9640513,105.486192 34.0616821,105.135079 C34.064512,105.126584 34.0673419,105.116674 34.0701717,105.108179 C34.3135412,105.287983 34.7705665,105.21861 34.8823467,104.867497 C35.5190691,102.883992 36.3340739,100.436113 37.4815894,98.2657259 C37.7362784,98.0321226 38.0079466,97.8098455 38.3064987,97.6116367 C39.4327901,96.858443 40.5392723,96.5682086 41.5834972,96.6375817 C41.5566133,96.6715603 41.5297295,96.6998759 41.5042606,96.7338546 C40.7798119,97.2222978 40.2152513,98.0377857 39.9365083,98.8872523 C39.3436489,100.690953 39.7638858,102.859924 41.0656295,104.261544 C41.3075841,104.522047 41.6188706,104.748572 41.9527962,104.941117 C42.490473,105.606533 43.1498345,105.916588 43.7497686,105.707053 C43.8502293,105.705637 43.9407853,105.724042 44.0511506,105.697143 C44.8449313,105.506013 45.2892221,104.737245 45.5524007,103.828316 C45.7915254,103.291736 45.9358492,102.702773 45.9797123,102.204419 C46.0292351,101.64094 46.0348949,100.984019 45.9782973,100.318603 C46.3461814,102.170441 46.6404887,104.032188 46.8258457,105.916588 C46.9418707,107.105841 48.8237394,107.107257 48.6921501,105.916588 C48.3030419,102.374313 47.7413112,98.7414272 46.5456878,95.3704607 C45.8750068,93.4747345 44.4798771,91.345405 42.1636221,91.5931661 C39.8997199,91.835264 38.230092,94.5294888 37.1122903,96.2496586 C36.8844852,96.6007715 36.6920535,96.9702894 36.4854724,97.3327285 C36.4840575,97.33556 36.4812276,97.3369758 36.4798126,97.3398074 C35.8770487,97.5804896 35.2176872,97.6852571 34.6007738,97.4516538 C33.647105,97.0892147 33.4447688,96.1774539 32.9962331,95.3931132 C32.8207807,95.0858894 32.2661247,95.0292583 32.1076515,95.3931132 C31.4808336,96.8343748 32.7273947,98.4228772 34.0772464,98.870263 C34.4465455,98.9920198 34.8299939,99.0330774 35.2049527,99.0090092 C35.1257161,99.1392607 35.0691186,99.2850858 34.9969567,99.4195847 C34.4507903,99.72964 33.8918894,100.008548 33.1971544,100.02129 C32.1133113,100.039695 31.5445058,99.4634738 30.938912,98.755585 C31.6775101,86.9395051 32.767013,74.6222399 35.0903427,62.7268764 C44.8138026,61.2303995 54.6363083,57.5083201 63.7753985,52.7668809 C58.2458174,58.1921407 54.9362754,63.8354303 62.0944511,65.9364442 C67.5164969,67.529194 74.4794111,63.257793 79.1458796,60.9076022 C83.5675635,58.6819998 87.7260689,56.0486534 91.6907276,53.1335673 C91.4176444,53.9221555 91.3016195,54.7702062 91.427549,55.7060352 C91.8251468,58.667842 94.3012899,59.7339225 96.9939186,59.5215559 C105.264236,58.8688824 113.749625,54.2279634 120.705464,48.8225245 C117.776541,54.5153663 116.18332,61.386135 123.734848,61.8830729 C128.005134,62.1633969 132.83998,58.795262 136.183481,56.5781542 C138.121947,55.2912124 139.866567,53.8881768 141.384796,52.2940112 C138.689337,63.7547309 137.311187,75.5113482 136.941888,87.2906179 C136.933398,87.589347 137.012635,87.8257818 137.12583,88.0324854 C134.969463,90.8300619 133.347943,93.9829987 132.855544,97.2053085 C132.738104,97.9740757 133.732807,98.2671417 134.00872,97.5281058 C135.867949,92.567221 139.079861,88.6002122 143.009146,85.1485464 C144.721222,83.6449906 149.05235,79.9653846 151.566696,80.8955504 C153.614113,81.6529915 154.83379,85.3453395 155.123852,87.245313 C155.398351,89.040519 154.789927,91.1825905 154.405064,92.8942657 M107.223927,225.299203 C103.338504,229.739082 98.8856918,233.740069 94.0649951,237.13652 C89.3249498,240.477755 83.0794096,244.937455 77.0319609,244.422112 C68.324427,243.680244 68.787112,227.582853 68.8451245,227.299697 C69.8950092,222.142019 70.640682,216.947531 71.0665786,211.716233 C76.7786868,218.353398 87.7883262,218.884315 97.77072,217.532247 C102.131562,216.941868 106.643802,215.710142 110.949461,213.88662 C110.990494,215.819157 111.209809,217.730456 111.724847,219.361432 C110.297174,221.393073 108.865256,223.424714 107.223927,225.299203 M95.0497925,207.03992 C100.993951,206.210274 106.764072,204.685481 112.299312,202.557568 C112.166308,203.169184 112.023399,203.779384 111.890395,204.391 C111.589013,205.792619 111.211224,208.072021 111.037187,210.586442 C108.624716,211.758706 106.008494,212.731346 103.138998,213.480292 C96.9854289,215.087199 90.524818,215.519012 84.2000412,214.887575 C77.4012599,214.209417 73.6842155,211.574655 71.3453215,206.974794 C71.3679605,206.398572 71.4005041,205.822351 71.4132386,205.244714 C78.1525925,209.05174 87.9892475,208.025301 95.0497925,207.03992 M110.059464,177.629971 C110.113232,176.246757 111.218299,161.715215 114.54765,165.421721 C116.885129,168.025336 115.768743,175.128292 115.071178,178.18354 C114.20099,182.011803 112.306387,185.29216 110.157095,188.48757 C110.094838,184.868842 109.916555,181.258609 110.059464,177.629971 M98.6932601,189.17139 C97.3221844,188.268124 96.0459095,187.070376 94.9309377,185.864134 C94.043771,184.905652 93.2429156,183.877798 92.5283715,182.78057 C91.3285033,181.728647 91.5789475,180.988196 93.2811189,180.560631 C98.4569654,177.048087 104.617609,187.898606 108.378517,191.001991 C108.385591,191.062869 108.394081,191.130827 108.401156,191.186042 C104.996813,191.338946 101.718399,191.161974 98.6932601,189.17139 M114.694804,191.925078 C114.110434,194.445162 113.545874,196.965246 112.985558,199.486746 C108.965716,201.155948 104.811456,202.515094 100.501552,203.483486 C91.6567691,205.471238 80.6542044,207.021514 72.0641105,203.095563 C78.1766464,204.953063 87.9185006,201.548118 92.3444294,200.136588 C99.4997753,197.85577 107.699346,195.668394 114.694804,191.925078 M199.081759,31.1352148 C192.619733,14.5267277 183.868336,-0.86560643 164.664785,-3.58531522 C161.646721,-4.01288005 158.603187,-4.10915293 155.593612,-3.86705496 C148.592495,-7.32155232 140.692891,-9.14365811 133.032412,-10.0455084 C132.974399,-10.0766555 132.929121,-10.1177131 132.858374,-10.1389498 C126.518033,-12.047418 119.18582,-10.5594357 112.805861,-9.36735097 C105.325079,-7.96714691 98.0197492,-5.71181318 90.9294905,-2.93688907 C76.4985289,2.70923203 62.9391697,10.42522 49.7038314,18.4824104 C37.9570088,25.6306715 25.9937006,34.0828638 18.9557946,46.374645 C16.8263116,50.0953086 15.1382896,55.1354769 17.9384536,58.9764815 C20.4641195,62.4380578 25.175866,63.3200872 29.4390768,63.2719508 C19.1949193,97.2265452 11.3957762,132.039101 5.1714601,166.969166 C3.72539257,175.087235 2.12368176,183.246361 1.28179313,191.457871 C0.652145329,197.605178 -0.0949423987,205.519374 3.0858402,211.161248 C8.83473686,221.359094 19.550069,210.39956 25.5112065,203.786463 C25.2720818,208.788405 25.313115,213.87671 26.1153854,218.785211 C26.633253,221.967879 27.7227559,225.651732 31.0252233,226.904695 C36.796759,229.093487 42.8272284,223.253405 47.1215679,217.345365 C46.633414,220.37796 46.6928415,223.361004 48.1940916,225.260977 C51.3494053,229.252054 56.9327541,225.423792 59.7399929,223.005644 C64.3413741,219.044298 66.9901397,213.953162 68.5055392,208.400482 C68.1263356,214.492573 67.3028412,220.543606 66.080334,226.526683 C65.9996824,226.918853 64.8960301,240.34184 69.1620708,244.590589 C73.5894146,249.000736 80.4603578,248.323995 85.7493993,246.172013 C95.5676602,242.178104 107.380985,233.214816 114.343899,223.188279 C115.178713,223.716364 116.194639,224.000935 117.4412,223.948552 C121.869959,223.761669 126.044029,218.291104 128.68572,215.268419 C130.902929,212.72993 132.889503,210.018716 134.710529,207.194239 C133.446989,217.727625 132.8513,234.382833 141.745605,231.740991 C147.529876,230.022237 150.838003,220.697926 153.155672,215.788009 C155.224313,211.407593 156.944879,206.891263 158.416415,202.287154 C158.201345,209.868643 158.64422,218.479403 166.99802,217.444469 C170.79996,216.973015 173.506738,214.417537 175.470674,210.958792 C180.865835,218.291104 191.143951,219.682814 198.105451,213.453392 C204.706141,207.543936 207.752504,197.392811 210.173464,189.167143 C213.140591,179.083975 214.671555,168.532184 215.439867,158.065341 C218.510284,116.210707 214.361683,70.4088857 199.081759,31.1352148" id="Fill-26" fill="#3C3C3B" mask="url(#mask-6)"></path>
                            </g>
                            <path d="M49.3637412,243.104398 C47.9260708,243.686741 46.896098,244.633049 46.3339045,245.990967 C45.8446674,247.17286 45.7516837,249.102534 47.0420108,249.858256 C47.542692,250.152075 48.3094496,249.970754 48.5884005,249.483704 C49.0247085,248.721363 48.7943951,247.789614 49.0218474,246.951834 C49.2349946,246.172288 49.7413979,245.309361 50.4695314,244.856722 C51.6654443,244.115557 50.6397631,242.58823 49.3637412,243.104398" id="Fill-31" fill="#3C3C3B"></path>
                            <path d="M55.0785941,249.261914 C53.0009357,251.041711 51.0341679,253.877142 52.5188696,256.546837 C52.868483,257.17544 53.8156735,257.126167 54.1791482,256.546837 C55.3589008,254.655056 55.4251271,252.388503 56.7989383,250.548982 C57.5643914,249.524703 55.9595582,248.506396 55.0785941,249.261914" id="Fill-33" fill="#3C3C3B"></path>
                            <path d="M40.5164836,260.141632 C39.1389833,261.034906 38.1725366,262.034839 37.5481116,263.529554 C36.9989941,264.840577 36.6114741,266.550093 37.6563662,267.710015 C38.0015257,268.093693 38.8032372,268.099619 39.1468278,267.710015 C39.9155922,266.833037 39.9140233,265.676077 40.2607518,264.615407 C40.6231693,263.511777 41.1817002,262.369632 41.8578991,261.406733 C42.3881896,260.651228 41.3213329,259.620186 40.5164836,260.141632" id="Fill-35" fill="#3C3C3B"></path>
                            <path d="M46.9597085,266.569082 C45.9302489,268.469191 43.9315488,270.740268 44.0018044,273.015726 C44.0218774,273.708003 44.8090269,274.280519 45.4327246,273.852593 C47.3109865,272.570274 47.9461545,269.696011 48.8781165,267.711192 C49.4860425,266.414269 47.6579631,265.27654 46.9597085,266.569082" id="Fill-37" fill="#3C3C3B"></path>
                            <path d="M30.4241157,277.232836 C28.3835799,279.026541 26.1227181,282.797919 27.3453115,285.567525 C27.6275593,286.205669 28.5621448,286.07919 28.8789535,285.567525 C29.521211,284.529821 29.6047333,283.165858 30.0007441,282.01461 C30.4442763,280.721074 31.1254149,279.486465 31.8540748,278.33378 C32.4286505,277.42543 31.1714961,276.576007 30.4241157,277.232836" id="Fill-39" fill="#3C3C3B"></path>
                            <path d="M35.0729806,284.668701 C34.3202906,286.610254 32.8423312,288.883191 33.0137087,291.043375 C33.0740336,291.798271 34.0364895,292.368912 34.623286,291.711644 C36.136892,290.017597 36.3521421,287.293648 36.9540199,285.188465 C37.307743,283.953681 35.518562,283.520544 35.0729806,284.668701" id="Fill-41" fill="#3C3C3B"></path>
                            <path d="M20.3920343,296.590298 C19.6930803,298.480297 18.5033996,301.509283 19.2235742,303.52676 C19.3814025,303.971547 19.9052864,304.178006 20.2567529,303.810814 C21.0790517,302.955881 21.3084995,301.808579 21.5180531,300.646036 C21.747501,299.376799 21.9252236,298.106177 21.9981695,296.817541 C22.0565262,295.788019 20.7023858,295.751992 20.3920343,296.590298" id="Fill-43" fill="#3C3C3B"></path>
                            <path d="M29.1767161,304.396924 C27.6743442,306.418994 26.1364133,310.156931 27.5735935,312.504959 C28.0654943,313.30786 29.2433894,313.067978 29.5426784,312.259432 C29.9441999,311.172905 29.7693677,309.935392 29.8849347,308.796655 C30.0182813,307.480122 30.4420272,306.324452 30.9324465,305.102462 C31.3443393,304.070966 29.7619595,303.609545 29.1767161,304.396924" id="Fill-45" fill="#3C3C3B"></path>
                            <path d="M57.9244945,232.711994 C57.6985654,231.711444 56.1084273,231.815312 55.8191804,232.711994 C55.6738375,233.16165 55.5731047,233.636287 55.3845906,234.07148 C55.1716129,234.561894 54.9269762,234.835369 55.0205138,235.403355 C55.0809534,235.766236 55.5184213,235.976601 55.876742,235.997637 C56.6682135,236.04497 57.2121702,235.371801 57.5891984,234.813018 C58.0050807,234.196385 58.0813498,233.4062 57.9244945,232.711994" id="Fill-47" fill="#3C3C3B"></path>
                            <path d="M62.5559567,258.217042 C62.0144201,258.624666 61.4758755,258.871537 61.0181125,259.39255 C60.6022363,259.864763 60.2147834,260.355635 59.9245676,260.906789 C59.3890149,261.930156 58.8025996,263.167383 59.0643921,264.321362 C59.2184757,264.993081 60.2058076,265.234211 60.6860099,264.731857 C61.3980857,263.982632 61.6987731,262.880323 62.229838,262.001921 C62.7294878,261.17519 63.1707952,260.136034 63.7766579,259.388244 C64.4603105,258.544289 63.4370756,257.553934 62.5559567,258.217042" id="Fill-49" fill="#3C3C3B"></path>
                            <path d="M54.7833743,278.11722 C54.2789265,278.416561 53.8124479,278.57887 53.3812264,279.01125 C52.9825499,279.411701 52.6828645,279.922575 52.4509812,280.430789 C52.0007751,281.415286 51.6956655,282.854781 52.4984427,283.720872 C52.8238929,284.070768 53.56158,284.114671 53.878894,283.720872 C54.422667,283.042367 54.3955462,282.158981 54.6816712,281.354088 C54.8959259,280.752746 55.3203672,279.820134 55.7705733,279.371789 C56.4119814,278.734527 55.5875076,277.639606 54.7833743,278.11722" id="Fill-51" fill="#3C3C3B"></path>
                            <path d="M48.234087,297.35695 C47.2853986,298.524823 46.4943293,299.795397 46.1909869,301.28018 C45.9233318,302.59477 45.8192438,304.415535 46.6876357,305.533524 C47.2125369,306.211359 48.2385479,306.165876 48.5344555,305.295841 C48.8749721,304.290825 48.7485795,303.111216 48.8898419,302.056316 C49.0489479,300.872305 49.3612121,299.695629 49.8950353,298.621656 C50.3872231,297.632779 49.0325912,296.372475 48.234087,297.35695" id="Fill-53" fill="#3C3C3B"></path>
                            <path d="M57.3238078,290.475399 C55.7418891,293.129655 54.5031023,296.284847 55.1974714,299.442862 C55.37309,300.247182 56.4065381,300.121595 56.6388951,299.442862 C57.537252,296.818238 57.8398564,294.027107 58.9097792,291.443405 C59.3677386,290.337113 57.9654913,289.398739 57.3238078,290.475399" id="Fill-55" fill="#3C3C3B"></path>
                            <path d="M68.9778327,305.307768 C69.2357131,304.003324 67.166141,303.428586 66.7874811,304.751085 C66.2113305,306.771695 65.3756673,309.690522 66.73362,311.586255 C67.1971519,312.234716 68.1764448,312.08727 68.4539111,311.378627 C69.1785877,309.541572 68.5959085,307.241115 68.9778327,305.307768" id="Fill-60" fill="#3C3C3B"></path>
                            <path d="M68.3738384,290.381134 C67.5707761,291.766945 66.6840309,293.10818 66.0571431,294.573967 C65.8941817,294.958113 66.104123,295.380281 66.3801298,295.666096 C66.6209017,295.91389 66.9057172,296.025332 67.2683431,295.995177 C67.6764808,295.961089 68.1756421,295.812937 68.3532847,295.439279 C69.0477061,293.991848 69.4617163,292.480173 69.9638137,290.980297 C70.2427567,290.147762 68.8318922,289.590553 68.3738384,290.381134" id="Fill-62" fill="#3C3C3B"></path>
                            <path d="M72.703558,271.267792 C70.9831556,273.454656 68.1960467,277.354894 69.2200279,280.325218 C69.416564,280.892552 70.2724927,281.294946 70.7268043,280.721925 C71.6055197,279.607165 71.7721481,278.243574 72.1452818,276.89989 C72.5867758,275.321595 73.202019,273.680736 73.9240753,272.20766 C74.2829672,271.473966 73.2846211,270.529832 72.703558,271.267792" id="Fill-64" fill="#3C3C3B"></path>
                            <path d="M64.6432627,271.445167 C64.4010682,272.094098 64.2776862,272.806678 64.1508768,273.499886 C64.0194977,274.216616 63.8789792,274.905673 64.1760102,275.576743 C64.4079228,276.095611 64.9791362,276.116366 65.3104399,275.75385 C65.7434196,275.282025 65.7914015,274.58605 65.8576623,273.917748 C65.9227806,273.257747 66.033596,272.549319 65.9901838,271.886551 C65.9387746,271.115859 64.9665695,270.577619 64.6432627,271.445167" id="Fill-66" fill="#3C3C3B"></path>
                            <path d="M78.4391275,250.285653 C76.8450599,251.896998 74.2806902,254.740993 75.1900018,257.375271 C75.3993098,257.983297 76.0466399,258.220171 76.5082265,257.755476 C77.2886265,256.969417 77.558925,255.861994 77.9858579,254.84057 C78.4613059,253.707499 78.9617045,252.627233 79.7407184,251.702369 C80.5419107,250.751857 79.3096271,249.406051 78.4391275,250.285653" id="Fill-68" fill="#3C3C3B"></path>
                            <path d="M69.4381013,243.193825 C68.425094,243.988056 67.5513219,244.8722 66.8608289,245.996112 C66.2925218,246.920717 65.5977665,248.554135 66.2882595,249.58214 C66.5567846,249.980754 66.9844357,250.117122 67.410666,249.890841 C68.2276073,249.456262 68.5444385,248.269411 68.9308873,247.4542 C69.3826914,246.498126 69.9623646,245.651445 70.7040053,244.923151 C71.5522036,244.089957 70.4042233,242.435559 69.4381013,243.193825" id="Fill-70" fill="#3C3C3B"></path>
                            <path d="M66.4380091,230.309109 C65.5273287,231.449186 63.6909152,232.830584 64.0446506,234.359384 C64.1424923,234.775499 64.7897528,235.125088 65.2608982,234.956815 C66.99947,234.337208 67.3125634,232.208368 67.9387503,230.856972 C68.3045278,230.065179 66.9332387,229.690806 66.4380091,230.309109" id="Fill-72" fill="#3C3C3B"></path>
                            <path d="M83.5845032,232.132845 C82.0551793,233.116369 80.5822059,235.476826 81.1090167,237.431318 C81.2531689,237.964235 81.9490309,238.215347 82.3212057,237.771715 C82.8650526,237.124403 83.131079,236.387806 83.5189795,235.638654 C83.9095009,234.881132 84.4192755,234.211498 84.859595,233.490247 C85.3746115,232.649021 84.3642356,231.632015 83.5845032,232.132845" id="Fill-74" fill="#3C3C3B"></path>
                            <path d="M88.6677921,247.216982 C87.7531061,248.181314 87.0158771,249.086551 86.4717629,250.331588 C86.0463883,251.303979 85.7788981,252.691382 86.2460273,253.681233 C86.4169601,254.042522 86.9793419,254.111019 87.2337837,253.812855 C87.8274815,253.115795 88.1014958,252.034615 88.398997,251.168327 C88.752606,250.139527 89.2340883,249.047602 89.8656261,248.169227 C90.3875582,247.44262 89.2614898,246.592449 88.6677921,247.216982" id="Fill-76" fill="#3C3C3B"></path>
                            <path d="M84.1032965,267.493127 C82.9752587,269.724037 81.5029979,272.725599 82.1646212,275.27921 C82.3777115,276.098487 83.6011185,276.27531 84.0153781,275.51792 C84.5861026,274.479088 84.7321366,273.188284 85.0167538,272.038938 C85.3296837,270.774657 85.5606558,269.510377 85.9555435,268.265252 C86.2923157,267.196949 84.621866,266.467557 84.1032965,267.493127" id="Fill-78" fill="#3C3C3B"></path>
                            <path d="M78.1555214,283.724973 C77.5525082,285.638951 76.6931808,288.244296 77.1100288,290.288467 C77.2961939,291.198318 78.3484316,291.187842 78.7666287,290.527901 C79.319728,289.658455 79.5112892,288.402921 79.6826151,287.365871 C79.8674312,286.251005 79.9429765,285.133146 79.9982864,284.001818 C80.0589924,282.771724 78.48873,282.668468 78.1555214,283.724973" id="Fill-80" fill="#3C3C3B"></path>
                            <path d="M80.9978019,297.931888 C80.9911632,296.891072 78.9580759,296.605514 78.6792525,297.67969 C78.1830132,299.583851 77.6403034,301.582753 78.317446,303.50426 C78.5099669,304.047353 79.5306597,304.20481 79.8758696,303.668389 C81.0160582,301.894998 81.0094195,299.878749 80.9978019,297.931888" id="Fill-82" fill="#3C3C3B"></path>
                            <path d="M90.9220461,296.144056 C90.9269078,294.619998 88.0730922,294.617298 88.0779539,296.144056 C88.0844362,297.849002 87.6906388,300.010221 88.6143611,301.582875 C88.9433358,302.139042 90.0566642,302.139042 90.3856389,301.582875 C91.3093612,300.010221 90.9155638,297.849002 90.9220461,296.144056" id="Fill-87" fill="#3C3C3B"></path>
                            <g id="Group-91" transform="translate(103.000000, 307.000000)">
                                <mask id="mask-8" fill="white">
                                    <use xlink:href="#path-7"></use>
                                </mask>
                                <g id="Clip-90"></g>
                                <path d="M3.41766488,4.80462514 C3.39014856,3.53337102 3.42316815,2.05574448 3.01455075,0.85052954 C2.71875028,-0.0148588143 1.54793074,-0.0162346305 1.25213027,0.85052954 C0.843512878,2.0488654 0.876532465,3.54162592 0.847640326,4.80462514 C0.824251452,5.87776173 0.771970438,7.05270871 1.82034234,7.65944363 C2.0129566,7.77088474 2.25234861,7.77088474 2.44633868,7.65944363 C3.49471059,7.05270871 3.44105376,5.87913754 3.41766488,4.80462514" id="Fill-89" fill="#3C3C3B" mask="url(#mask-8)"></path>
                            </g>
                            <path d="M104.800009,287.869726 C104.601522,286.710091 102.398478,286.710091 102.199991,287.869726 C101.94573,289.361739 101.898159,290.695688 102.268887,292.177361 C102.542832,293.273474 104.457168,293.274951 104.731113,292.177361 C105.101841,290.70012 105.05427,289.360262 104.800009,287.869726" id="Fill-92" fill="#3C3C3B"></path>
                            <path d="M99.9930068,271.855557 C100.129974,270.872783 98.2124381,270.660252 97.9702407,271.621631 C97.3772746,273.992271 96.2531444,277.295763 97.7297136,279.557999 C98.2007458,280.278319 99.401711,280.055804 99.6856666,279.339763 C100.133314,278.205792 99.8677323,276.93061 99.8543697,275.746716 C99.8376664,274.452992 99.8159522,273.139297 99.9930068,271.855557" id="Fill-94" fill="#3C3C3B"></path>
                            <path d="M96.8825022,252.669103 C96.8594649,251.935432 95.8385496,251.705904 95.6966885,252.488759 C95.3765915,254.252575 94.6709232,256.633931 95.1777434,258.412776 C95.3559792,259.038514 96.1938088,259.255746 96.4908684,258.606782 C97.266861,256.914011 96.9407016,254.503963 96.8825022,252.669103" id="Fill-96" fill="#3C3C3B"></path>
                            <path d="M111.970963,249.808363 C112.053999,248.874918 110.210261,248.682779 109.945902,249.587607 C109.173159,252.236682 108.366523,254.987959 109.756105,257.598878 C110.108584,258.259784 111.425298,258.040391 111.616789,257.402651 C112.364112,254.930726 111.747274,252.322531 111.970963,249.808363" id="Fill-98" fill="#3C3C3B"></path>
                            <path d="M111.584378,268.774352 C111.310576,267.742628 109.689424,267.741137 109.415622,268.774352 C108.8278,270.982419 108.846363,274.178974 109.581141,276.345295 C109.875052,277.217489 111.123401,277.21898 111.418859,276.345295 C112.153637,274.178974 112.1722,270.982419 111.584378,268.774352" id="Fill-100" fill="#3C3C3B"></path>
                            <path d="M123.042256,271.596833 C122.724397,270.696082 120.973674,270.850264 121.000301,271.821345 C121.036913,273.131899 121.086838,274.443804 121.100152,275.757063 C121.113465,276.96077 120.962024,278.199642 121.299854,279.3763 C121.566124,280.308159 123.007308,280.101229 123.380086,279.3763 C124.548344,277.096018 123.85105,273.893345 123.042256,271.596833" id="Fill-102" fill="#3C3C3B"></path>
                            <path d="M119.4483,289.888336 C118.931714,288.351091 116.66591,288.959858 117.04187,290.562797 C117.234155,291.384705 117.333167,292.202233 117.41209,293.0402 C117.483838,293.802253 117.521147,294.689855 117.77657,295.402273 C118.031993,296.12199 118.857096,296.194983 119.289019,295.603735 C119.799866,294.905916 120.013675,293.714661 119.999325,292.862095 C119.982106,291.838725 119.771166,290.851852 119.4483,289.888336" id="Fill-104" fill="#3C3C3B"></path>
                            <path d="M129.365155,297.815374 C129.016947,296.596096 126.851805,296.78101 127.008053,298.124528 C127.174717,299.551835 127.386022,300.96614 127.610721,302.384779 C127.827979,303.755745 127.96637,305.302958 128.766951,306.474563 C129.274383,307.218554 130.659776,307.209886 130.874058,306.207304 C131.417203,303.640174 130.0705,300.285713 129.365155,297.815374" id="Fill-106" fill="#3C3C3B"></path>
                            <path d="M139.188213,283.765968 C138.792162,282.680475 136.83359,282.721382 137.011379,284.064004 C137.150141,285.114433 137.306249,286.163402 137.323594,287.224058 C137.339494,288.210206 137.140023,289.340988 137.501383,290.267236 C137.829498,291.113132 138.831189,291.267993 139.36022,290.514139 C140.542591,288.820887 139.845888,285.568792 139.188213,283.765968" id="Fill-108" fill="#3C3C3B"></path>
                            <path d="M135.685195,267.27268 C135.606634,266.589204 135.125619,266 134.345519,266 C133.681195,266 132.925905,266.585276 133.005844,267.27268 C133.16021,268.631777 133.113349,270.251432 133.791456,271.482213 C134.247663,272.309717 135.602499,272.087129 135.850587,271.226892 C136.208936,269.981708 135.828535,268.533576 135.685195,267.27268" id="Fill-110" fill="#3C3C3B"></path>
                            <path d="M128.380449,248.718746 C128.17387,247.606068 125.854333,247.854689 126.007234,248.987745 C126.210559,250.498488 126.200799,252.158674 126.931145,253.559371 C127.290624,254.248171 128.796859,254.094652 128.928614,253.340639 C129.192124,251.825821 128.661851,250.225413 128.380449,248.718746" id="Fill-112" fill="#3C3C3B"></path>
                            <path d="M139.276299,252.407099 C138.816942,251.481858 137.690121,252.294673 138.080955,253.244222 C138.436259,254.104135 138.648172,254.988355 138.767453,255.934867 C138.87912,256.81301 138.839783,257.703308 139.234423,258.48118 C139.653174,259.306148 140.636604,259.093449 140.885317,258.222902 C141.405583,256.390651 140.03005,253.921821 139.276299,252.407099" id="Fill-145" fill="#3C3C3B"></path>
                            <path d="M139.91578,233.389578 C139.152688,232.492756 137.458366,233.291058 138.171339,234.302338 C138.784076,235.170184 139.141371,236.069904 139.202806,237.101467 C139.261008,238.095361 139.075086,238.753127 139.71854,239.618075 C140.051584,240.064313 140.657854,240.122266 141.104069,239.777446 C143.154069,238.198227 141.222089,234.925332 139.91578,233.389578" id="Fill-147" fill="#3C3C3B"></path>
                            <path d="M130.464066,237.87661 C130.128991,237.043623 129.76333,236.225098 129.404619,235.403681 C129.036177,234.557679 127.837696,235.178081 128.018441,236.011067 C128.204748,236.870084 128.382713,237.730548 128.592655,238.58378 C128.780353,239.350243 128.993076,240.255538 129.599268,240.776154 C130.038619,241.153601 130.788017,241.068278 130.939565,240.40883 C131.143946,239.522336 130.790798,238.687904 130.464066,237.87661" id="Fill-149" fill="#3C3C3B"></path>
                        </g>
                    </g>
                </g>
            </g>
        </g>
    </g>
</svg>