<?xml version="1.0" encoding="UTF-8" standalone="no"?>
<svg width="223px" height="223px" viewBox="0 0 223 223" version="1.1" xmlns="http://www.w3.org/2000/svg" xmlns:xlink="http://www.w3.org/1999/xlink">
    <!-- Generator: Sketch 46.2 (44496) - http://www.bohemiancoding.com/sketch -->
    <title>Partner</title>
    <desc>Created with Sketch.</desc>
    <defs>
        <polygon id="path-1" points="0.383 222.138 222.383 222.138 222.383 0.138 0.383 0.138"></polygon>
        <polygon id="path-3" points="225.352165 0.723550068 225.352165 315.498604 0.180104228 315.498604 0.180104228 0.723550068"></polygon>
        <polygon id="path-5" points="0.383 0.764150461 0.383 247.843794 172.544292 247.843794 172.544292 0.764150461"></polygon>
    </defs>
    <g id="home" stroke="none" stroke-width="1" fill="none" fill-rule="evenodd">
        <g id="Mobile-Portrait-Copy-2" transform="translate(-49.000000, -3790.000000)">
            <g id="gleichb.-partner" transform="translate(29.000000, 3770.000000)">
                <g id="Page-1" transform="translate(20.000000, 20.000000)">
                    <g id="Partner" transform="translate(0.000000, 0.362000)">
                        <g id="Group-18">
                            <mask id="mask-2" fill="white">
                                <use xlink:href="#path-1"></use>
                            </mask>
                            <g id="Mask"></g>
                            <g mask="url(#mask-2)">
                                <g transform="translate(0.000000, -94.000000)">
                                    <g id="Group-28" transform="translate(92.551897, 0.000000)">
                                        <mask id="mask-4" fill="white">
                                            <use xlink:href="#path-3"></use>
                                        </mask>
                                        <g id="Clip-27"></g>
                                        <path d="M250.309645,324.224987 C230.260265,327.811268 209.805057,329.213383 189.553634,331.179828 C168.723947,333.203751 147.866392,335.753685 126.925232,336.156031 C106.133864,336.558377 85.3477214,335.117943 64.709628,332.658581 C44.1394632,330.207927 23.8479797,325.999839 3.33006758,323.314048 C12.6153808,306.147279 19.6607929,288.236779 31.4472709,272.693328 C31.4472709,272.714229 31.4420456,272.733388 31.4420456,272.75429 C31.5308753,274.694608 33.0165951,276.335345 35.0248423,276.335345 C36.8972324,276.335345 38.6912434,274.687641 38.6058973,272.75429 C38.5188093,270.813971 37.0313478,269.173235 35.0248423,269.173235 C34.7182929,269.173235 34.4169687,269.230713 34.1226115,269.312575 C34.5580511,268.786564 34.9795566,268.253586 35.4254467,267.734542 C35.848694,267.243366 36.2928423,266.780059 36.7195731,266.294108 C36.8519467,266.496152 36.9808368,266.698196 37.1271445,266.896757 C44.5278753,276.990246 58.4915511,271.764971 67.2804632,264.268443 C68.0538038,267.637004 72.5092214,269.716663 75.5834247,270.235707 C82.3727984,271.383526 88.3017434,267.283427 92.4088093,262.270647 C97.0976225,256.545487 100.029002,249.69341 101.516463,242.456405 C105.797705,245.932954 111.411392,248.118861 116.403271,249.982542 C122.006507,252.076136 128.160139,253.182152 134.106502,252.617823 C135.459848,256.719663 137.837348,260.389548 141.55426,263.303509 C160.668315,278.28263 191.206562,272.207377 210.345002,259.722454 C208.913276,271.578603 221.056815,280.773345 232.839809,279.479218 C233.607925,279.393872 234.356881,279.259757 235.104095,279.118674 C242.76609,292.655619 246.272249,309.331213 250.309645,324.224987 M144.884502,207.257213 C142.705562,210.484691 140.502238,214.40713 138.577595,218.695339 C119.771831,224.843746 97.1045896,207.638658 96.3608588,207.58118 C95.2252324,206.837449 94.1035401,206.083268 93.0044907,205.304702 C79.8367984,195.965394 71.4624247,179.984762 65.1328753,165.481141 C63.6976665,162.194443 62.3721885,158.822399 61.1407654,155.394619 C61.3880951,155.488674 61.6789687,155.47474 61.8966885,155.269213 C67.1010621,150.399257 74.5157269,148.573894 81.7039632,148.723685 C81.4270236,148.791614 81.143117,148.861284 80.8957874,148.922246 C76.7869797,149.944658 72.4848368,151.938971 69.4419852,154.903443 C69.0675071,155.269213 69.4524357,155.913663 69.9505786,155.776064 C74.2265951,154.600377 77.8825456,151.895427 82.2752599,150.982746 C84.6858533,150.481119 88.0352544,150.902625 90.4406225,149.873246 C90.4859082,149.885438 90.531194,149.892405 90.5764797,149.904597 C92.3356555,150.347004 93.0898368,147.601993 91.3254357,147.187454 C81.0037764,144.75596 67.7524797,145.226235 60.7871885,154.398334 C58.0578533,146.635317 55.877172,138.569235 54.4175786,130.379487 C54.5116335,128.475746 54.5813038,126.563295 54.6352984,124.650845 C56.0948918,116.480257 59.4042324,109.830224 64.5824797,103.174965 C67.9162049,98.8919819 71.2394797,94.3146412 74.1917599,89.4986797 C78.2221885,83.9320203 81.6778368,77.8132236 83.665183,71.492383 C88.1432434,82.904383 96.5507104,91.5417621 111.000337,94.4609489 C122.889579,96.8610918 134.569809,97.6657841 145.955683,101.769366 C140.418634,102.342405 134.829331,104.787834 130.140518,107.275064 C124.403166,110.319658 115.582903,114.397114 113.355194,120.930449 C112.999875,121.973762 114.327095,122.471905 115.029024,121.905834 C120.303068,117.654202 126.117057,113.811883 132.061677,110.563504 C138.756996,106.905812 144.968106,106.033191 152.170276,104.352394 C165.771666,110.697619 178.392447,120.616932 181.929958,135.916537 C185.457018,151.172597 180.905804,166.318927 172.05593,178.880487 C164.360842,189.796086 152.27304,196.306779 144.884502,207.257213 M100.18576,212.546932 C111.50893,218.866031 124.572117,224.108724 137.33398,221.630202 C133.801694,230.41563 131.634947,240.357586 133.185112,248.951421 C128.827232,249.566262 124.44671,249.46524 119.402579,247.859339 C113.076513,245.847608 106.93159,243.51191 102.051183,239.413553 C103.381886,230.436531 102.599837,221.03452 100.18576,212.546932 M42.3855126,114.123658 C41.4379962,119.174757 31.6458313,52.8956302 93.2866555,34.3493885 C101.502529,33.2694984 109.690535,32.393394 118.242568,33.0448115 C132.418738,34.1264434 146.194304,38.5452841 157.947688,46.6479434 C167.58832,53.2944929 175.15626,62.6076742 180.625381,72.8962401 C183.253694,77.8445753 185.218397,83.0593995 186.650123,88.4605918 C186.880035,90.7004929 186.883518,92.7122236 186.606579,94.366894 C186.606579,94.366894 160.922612,37.0734984 91.7765511,50.9030588 C65.4341995,56.1718775 48.3127159,82.5124874 42.3855126,114.123658 M296.325155,182.991037 C294.590364,158.717894 291.631117,141.342114 280.840925,119.531817 C259.03237,75.4461742 224.359188,31.8429984 202.766612,21.0110038 C175.346112,7.25459725 147.439661,-4.2845511 116.82826,2.9524544 C115.734436,3.04999286 114.637128,3.15624011 113.520661,3.32170714 C93.8248588,6.22870165 74.9198148,14.6083005 59.0959412,26.6107566 C33.1420016,46.29785 7.12710055,84.0974874 24.3844412,115.940312 C21.5018313,119.719927 19.1521995,123.840927 17.520172,128.129136 C16.3967379,130.369037 15.4300621,132.662932 14.6602049,134.92896 C13.4740676,137.600817 12.6275731,140.422465 12.2583203,143.317268 C10.755183,155.08807 16.8495951,166.007152 26.5285456,172.247872 C20.474194,186.377015 19.6921445,202.378548 26.1209742,216.627872 C30.3569302,226.022916 38.0555016,233.401004 47.7710291,234.486119 C39.3008588,241.782345 31.057117,253.887564 35.4237049,263.942735 C34.8280236,264.609828 34.2288588,265.276921 33.6418863,265.950982 C19.2323203,282.468075 9.37919396,303.026048 0.325534615,322.855965 C0.027693956,323.510866 0.219287363,324.130932 0.611182967,324.540246 C0.693045604,324.935625 0.943858791,325.289202 1.40019945,325.400674 C21.705617,330.308949 42.7512819,333.163691 63.4694962,335.743235 C84.9175071,338.415092 106.548403,340.010542 128.17059,339.569877 C149.515837,339.13618 170.796639,336.516575 192.033897,334.492652 C212.506524,332.540141 233.163776,331.268658 253.427392,327.626641 C255.151732,327.316608 247.069974,296.743526 237.699315,278.503834 C250.54304,274.868784 260.093101,263.024828 265.68937,250.804652 C266.042947,251.025855 266.366914,251.266218 266.755326,251.459553 C273.649205,254.918685 281.54982,250.893482 285.996529,245.474872 C299.368007,229.178982 297.722046,202.540531 296.325155,182.991037" id="Fill-26" fill="#3C3C3B" mask="url(#mask-4)"></path>
                                        <path d="M106.850249,165.907872 C107.701969,165.733696 107.717645,164.335064 106.850249,164.171339 C104.249804,163.680163 101.567497,163.683647 98.9357,163.411932 C96.5756176,163.168086 94.4855077,162.426097 92.2682495,161.940147 C98.7284308,152.088762 101.121607,140.533938 91.493167,131.772894 C82.1120571,123.238279 66.4013978,121.19868 54.8552824,125.690674 C54.4215846,125.857883 54.5835681,126.479691 55.0486176,126.390861 C66.4815187,124.178828 78.496167,124.23979 87.9068868,132.138663 C98.0909473,140.683729 95.1438923,150.801603 90.4568209,161.593537 C90.275678,162.011559 90.4028264,162.387779 90.650156,162.622916 C90.6257714,162.960817 90.8138813,163.269108 91.0873374,163.462443 C93.2070571,164.967323 96.133211,165.228586 98.6430846,165.575196 C101.365453,165.951416 104.129623,166.468718 106.850249,165.907872" id="Fill-2" fill="#3C3C3B" mask="url(#mask-4)"></path>
                                        <path d="M135.921936,170.893829 C135.04409,170.554186 134.237656,171.407648 134.194112,172.210598 C134.174953,172.557208 134.232431,172.886401 134.319519,173.210368 C132.628271,174.802335 130.839486,176.072076 128.974063,177.082296 C128.824271,176.916829 128.627453,176.772263 128.360964,176.667758 C126.788156,176.054659 122.19514,173.337516 120.012716,174.631642 C119.920403,174.574164 119.829832,174.527137 119.735777,174.467917 C119.188865,174.130016 118.387656,174.339027 118.077623,174.901615 C117.908673,175.209906 117.743205,175.519939 117.572513,175.826488 C116.813107,176.547576 116.278387,177.540379 115.661804,178.449576 C115.23159,178.665554 114.757832,178.855406 114.277107,179.031324 C112.49703,177.895697 110.380793,176.73917 108.729607,177.052686 C107.026167,177.378395 105.646695,179.365741 104.608607,180.91939 C103.821332,180.908939 103.034057,180.896747 102.250266,180.888038 C102.238074,180.839269 102.236332,180.790499 102.222398,180.743472 C101.926299,179.722802 100.447546,179.72106 100.149705,180.743472 C99.8814747,181.668346 99.9563703,182.657664 100.806348,183.230703 C101.015359,183.371785 101.358486,183.371785 101.567497,183.230703 C101.827019,183.054785 101.994227,182.83184 102.123118,182.589736 C103.446854,183.054785 104.779299,183.375269 106.113486,183.59473 C107.27698,188.837423 113.273854,190.978043 118.366755,190.143741 C123.102596,189.368659 128.277359,184.64501 127.213145,179.555593 C127.40648,179.466763 127.601557,179.384901 127.793151,179.294329 C128.380123,179.381417 128.853881,179.08706 129.104695,178.655104 C131.342854,177.554313 133.514826,176.376884 135.587519,175.201197 C136.146623,175.499038 136.850293,175.539098 137.405914,175.21339 C138.182738,174.760532 138.677398,173.485565 138.067782,172.691324 C137.447716,171.881406 136.890354,171.266565 135.921936,170.893829" id="Fill-4" fill="#3C3C3B" mask="url(#mask-4)"></path>
                                        <path d="M148.435424,134.498223 C142.356688,133.242415 135.468034,134.212575 129.467677,136.678904 C136.298853,132.172976 144.258688,129.781542 152.674864,131.129663 C153.852292,131.317773 154.34521,129.508086 153.169523,129.337393 C141.54677,127.64963 129.64882,130.746476 122.216737,140.28086 C121.622798,141.043751 122.42749,142.027844 123.192122,141.611564 C123.36804,141.660333 123.568342,141.656849 123.782578,141.561053 C132.00716,137.901619 139.360864,136.490795 148.273441,135.696553 C148.910924,135.639075 149.158254,134.646273 148.435424,134.498223" id="Fill-6" fill="#3C3C3B" mask="url(#mask-4)"></path>
                                        <path d="M24.2003374,293.05901 C21.8332879,293.05901 19.5637769,295.140412 19.6735077,297.58584 C19.7832385,300.038236 21.6625956,302.11267 24.2003374,302.11267 C26.5673868,302.11267 28.835156,300.029527 28.727167,297.58584 C28.6174363,295.133445 26.7380791,293.05901 24.2003374,293.05901" id="Fill-8" fill="#3C3C3B" mask="url(#mask-4)"></path>
                                        <path d="M51.366889,287.628557 C45.3822077,287.628557 45.3717571,296.931287 51.366889,296.931287 C57.3515703,296.931287 57.3620209,287.628557 51.366889,287.628557" id="Fill-10" fill="#3C3C3B" mask="url(#mask-4)"></path>
                                        <path d="M77.9788648,282.359564 C77.8743593,280.015157 76.0768648,278.031295 73.6505956,278.031295 C71.3880516,278.031295 69.2178209,280.022124 69.3240681,282.359564 C69.4285736,284.70397 71.2260681,286.687833 73.6505956,286.687833 C75.9148813,286.687833 78.0833703,284.697003 77.9788648,282.359564" id="Fill-12" fill="#3C3C3B" mask="url(#mask-4)"></path>
                                        <path d="M98.906961,299.484008 C97.5292302,299.484008 96.0835709,300.083173 95.1081863,301.058558 C94.1763456,301.988657 93.4761588,303.51792 93.5353786,304.855591 C93.6660104,307.76781 95.895461,310.228915 98.906961,310.228915 C100.284692,310.228915 101.732093,309.62975 102.705736,308.654365 C103.637576,307.722525 104.339505,306.195003 104.278543,304.855591 C104.149653,301.945113 101.920203,299.484008 98.906961,299.484008" id="Fill-14" fill="#3C3C3B" mask="url(#mask-4)"></path>
                                        <path d="M131.291298,285.224756 C131.1746,282.627795 129.185512,280.431437 126.497979,280.431437 C123.989847,280.431437 121.587963,282.636503 121.70466,285.224756 C121.821358,287.821718 123.810446,290.018075 126.497979,290.018075 C129.006111,290.018075 131.407996,287.813009 131.291298,285.224756" id="Fill-16" fill="#3C3C3B" mask="url(#mask-4)"></path>
                                        <path d="M106.760026,253.026265 C104.405169,253.026265 102.149592,255.097215 102.259323,257.52871 C102.367312,259.967171 104.236219,262.029413 106.760026,262.029413 C109.114884,262.029413 111.37046,259.958463 111.262471,257.52871 C111.152741,255.088507 109.283834,253.026265 106.760026,253.026265" id="Fill-24" fill="#3C3C3B" mask="url(#mask-4)"></path>
                                    </g>
                                    <g id="Group-51" transform="translate(0.000000, 68.000000)">
                                        <mask id="mask-6" fill="white">
                                            <use xlink:href="#path-5"></use>
                                        </mask>
                                        <g id="Clip-50"></g>
                                        <path d="M12.0459,175.8271 C12.0879,175.5991 12.1279,175.3501 12.1699,175.1131 C12.6069,176.0011 13.2009,176.7671 14.2079,177.1971 C14.6979,177.4051 15.1699,177.4651 15.6199,177.4271 C14.8869,178.5571 14.0909,179.6411 13.2139,180.6561 C13.2329,180.7431 13.2379,180.8311 13.2539,180.9191 C13.2499,180.9211 13.2459,180.9241 13.2419,180.9261 C12.4699,180.4861 11.6979,180.0481 10.9259,179.6101 C11.4859,178.3731 11.8299,176.9961 12.0459,175.8271 M36.2469,206.5881 C42.0899,209.2901 48.7019,211.4011 55.0719,212.3371 C60.5599,213.1431 66.1459,212.7731 71.2389,210.5611 C67.6969,214.5371 57.2629,214.4521 53.5589,214.4401 C46.7579,214.4181 41.1649,213.6501 35.2359,210.1631 C29.7789,206.9541 24.9379,204.5171 20.6809,199.6261 C16.7369,195.0951 12.4619,189.2201 13.5989,182.9891 C17.9579,192.9321 26.4339,202.0491 36.2469,206.5881 M73.8729,210.3631 C74.2119,211.3671 74.5589,212.3591 74.5749,213.4761 C74.6069,215.7651 73.7919,217.8381 72.3419,219.5771 C70.8589,221.3541 68.9769,222.5021 66.9159,223.1691 C68.9999,220.7331 68.4759,217.1791 66.2639,215.1471 C69.4419,214.2421 72.7729,212.7271 73.8729,210.3631 M62.7869,220.7121 C62.8109,221.9791 62.3459,223.1471 61.5279,223.9071 C61.4339,223.9061 61.3399,223.8971 61.2449,223.8931 C61.0429,221.9161 60.7589,219.9621 60.3749,218.0511 C60.2709,217.5361 59.9439,217.2681 59.5629,217.1891 C59.3939,216.9071 59.2079,216.6411 59.0019,216.4011 C59.6629,216.3411 60.3169,216.2761 60.9559,216.2041 C61.8699,217.6271 62.7519,218.9181 62.7869,220.7121 M65.2849,222.3821 C64.9609,222.6891 64.5999,222.9411 64.2179,223.1531 C64.3499,222.8511 64.4569,222.5291 64.5319,222.1831 C64.9879,220.0791 64.2939,217.5421 62.7649,215.9421 C63.4539,215.8221 64.2169,215.6671 65.0099,215.4761 C66.6189,217.4671 67.3959,220.3851 65.2849,222.3821 M57.7389,236.6001 C57.4599,243.1381 56.0259,249.3121 54.7999,255.6991 C54.7689,255.8651 54.7739,256.0161 54.8019,256.1531 C54.4759,256.3471 54.0909,255.8931 53.3259,254.7161 C51.9619,252.6181 51.1519,249.9341 50.2429,247.6261 C49.9369,246.8521 48.8059,246.2631 48.1509,247.0741 C46.4699,249.1501 44.7379,251.1781 42.9089,253.1261 C41.7099,254.4041 40.1769,256.4461 38.4919,257.6151 C38.9409,252.0271 39.6189,246.4631 40.5999,240.9411 C41.5799,235.4231 42.4559,229.6181 45.1009,224.6121 C45.1289,224.5581 45.1479,224.5051 45.1659,224.4521 C49.4279,224.0271 53.5049,222.7191 57.1079,220.2431 C57.3069,225.7041 57.9739,231.1001 57.7389,236.6001 M17.2419,214.8431 C11.6689,211.6831 6.6329,207.6211 2.3849,202.8241 C-0.0921,200.0281 -2.8001,196.5751 -4.8561,192.8711 C-4.7871,192.6101 -4.9471,192.2931 -5.2041,192.2241 C-6.5761,189.6331 -7.6131,186.9341 -8.0061,184.2571 C-4.5961,185.6581 -1.1311,186.8501 2.4439,187.7981 C3.4089,188.0541 4.2529,186.7731 3.4569,186.0591 C-0.1651,182.8101 -3.1951,179.1491 -5.1311,174.8601 C-3.6841,176.4921 -1.8231,176.6501 -0.0701,175.6961 C0.5379,176.0691 1.1499,176.4361 1.7629,176.8001 C1.9869,179.6501 2.9839,182.2291 5.3239,183.0061 C6.5349,183.4081 7.5499,183.1741 8.4029,182.5431 C8.6409,182.4391 8.8739,182.3091 9.0979,182.1341 C9.4149,181.8861 9.6899,181.5811 9.9469,181.2541 C10.8589,181.7011 11.7759,182.1351 12.7009,182.5501 C11.1099,188.1351 14.6959,194.0471 17.9899,198.4061 C23.3019,205.4351 30.0779,210.1621 37.9999,213.9181 C43.2619,216.4131 49.7819,216.9061 55.8519,216.6171 C46.7619,219.1691 37.6119,220.9521 29.6319,214.6511 C29.4219,214.4851 29.0309,214.7041 29.2209,214.9681 C34.7909,222.7091 44.9739,221.6161 53.3879,219.6671 C42.3679,225.2431 27.2399,220.5111 17.2419,214.8431 M127.5629,77.6671 C124.4079,73.8041 117.3829,71.8271 112.8049,70.2231 C106.3969,67.9781 99.7209,66.5691 93.0029,65.6431 C68.5709,62.2761 40.9669,63.2081 18.5059,74.4901 C18.4259,72.6411 17.9279,70.6661 17.5679,69.2431 C17.3259,68.2851 15.9979,68.3751 15.7149,69.2431 C15.0089,71.4011 14.6519,73.5851 14.6409,75.8071 C13.2099,73.5991 12.3879,70.9541 10.6389,68.9341 C10.0829,68.2911 9.0409,68.9771 9.2539,69.7401 C9.7489,71.5181 10.5609,73.1461 11.6309,74.6491 C12.1069,75.3171 12.6199,76.0591 13.2009,76.7251 C13.2969,76.8881 13.3959,77.0501 13.4989,77.2091 C8.2209,77.1111 2.2549,86.0111 0.3659,89.5671 C-4.4961,98.7191 -5.9561,109.5891 -7.3961,119.7191 C-8.7961,129.5721 -9.5201,139.5601 -8.9761,149.5071 C-9.0191,150.7861 -9.3171,162.3561 -8.3211,168.6151 C-8.6801,168.8371 -8.9171,169.2981 -8.8331,169.7411 C-7.7321,175.5191 -4.8161,180.4221 -0.9351,184.6371 C-3.5581,183.8071 -6.1351,182.8631 -8.6821,181.7611 C-9.3461,181.4731 -10.2781,181.7901 -10.2361,182.6531 C-10.0811,185.8441 -9.0521,189.0391 -7.5781,192.0851 C-10.2171,193.2801 -12.5871,195.4561 -14.8521,197.2561 C-15.2761,197.5921 -15.7001,197.9331 -16.1251,198.2721 C-22.0161,202.6721 -27.0911,208.2561 -31.7991,213.8421 C-35.4921,218.2241 -39.3431,222.5471 -41.7981,227.7771 C-43.3991,231.1861 -45.5971,234.7961 -42.2481,237.5981 C-37.7551,241.3571 -30.9831,243.1211 -25.4831,244.6441 C-21.6991,245.6921 -17.8721,246.5671 -14.0271,247.3571 C-11.1721,248.0921 -8.3151,248.8211 -5.4591,249.5481 C1.8179,251.3991 9.0909,252.9751 16.5229,254.0711 C22.9859,255.0241 29.6259,256.2741 36.1829,255.9241 C36.0489,257.1651 35.9239,258.4071 35.8119,259.6501 C35.7349,260.5211 36.6729,261.0061 37.4029,260.8621 C39.8519,260.3751 41.5059,258.2291 43.1919,256.4971 C45.1029,254.5331 46.9159,252.4831 48.6639,250.3751 C49.4339,252.2721 50.2379,254.1601 51.1579,255.9831 C51.8189,257.2911 52.5389,259.2791 54.3269,259.4121 C56.6149,259.5821 57.7319,256.6431 58.3579,254.4051 C65.1929,253.9651 72.1959,252.4771 78.8049,250.7401 C84.8309,249.1551 92.2839,247.0961 97.3449,243.3221 C99.6089,241.6351 99.3779,239.1681 98.4009,236.7991 C97.5309,232.9771 94.5839,228.3461 93.5929,226.6861 C88.7289,218.5301 82.7379,209.5131 73.6389,205.6041 C73.1099,205.3761 72.6349,205.9421 73.0209,206.4051 C73.0389,206.4261 73.0569,206.4461 73.0749,206.4671 C72.8929,206.6041 72.7739,206.8211 72.7669,207.0441 C72.5829,207.1841 72.4459,207.3911 72.4329,207.6731 C72.4159,208.0771 72.3459,208.4561 72.2379,208.8131 C72.0429,208.7061 71.8059,208.6711 71.5529,208.7961 C65.9389,211.5761 59.5659,211.7601 53.4959,210.6361 C47.5799,209.5421 41.2399,207.6511 35.8499,204.9571 C26.0329,200.0501 18.9159,191.3941 14.1069,181.7361 C14.0999,181.6921 14.0709,181.6511 14.0549,181.6081 C18.2899,176.6971 21.4909,171.0991 22.5759,164.4431 C22.5909,164.3531 22.5559,164.2701 22.4999,164.2071 C22.6109,163.5631 22.7039,162.9411 22.7769,162.3621 C23.3979,157.4461 23.2579,152.0641 22.7819,147.1471 C22.7569,146.8791 22.6149,146.7061 22.4399,146.6091 C22.3119,146.4481 22.1359,146.3221 21.9179,146.2941 C17.7489,145.7521 14.9159,141.6141 13.3299,138.1221 C12.6499,136.6241 12.1359,135.0231 11.8319,133.4031 C11.6079,132.1971 10.2579,129.3811 13.6949,125.0851 C16.2729,124.2251 17.7279,124.1261 18.9919,126.9141 C19.4039,127.7681 23.0249,141.7961 23.0799,142.7101 C23.1729,144.2591 26.6989,142.9591 26.5829,141.4101 C25.7019,129.5941 25.7009,119.2181 28.5639,107.7451 C32.1729,108.5771 35.8579,109.1561 39.4579,109.6431 C51.7079,111.3021 64.0849,111.2111 76.4189,111.4191 C82.8149,111.5281 89.2169,111.7101 95.5939,112.2551 C101.3319,112.7461 107.1589,113.8981 112.9249,113.1751 C114.9409,112.9221 119.7929,112.2091 118.9989,108.9631 C118.8109,108.1971 118.2529,107.5811 117.4899,107.0731 C119.7869,106.6221 121.6619,105.6211 122.1819,103.6451 C123.0759,100.2481 119.3549,98.3041 115.4729,97.1691 C119.4839,96.3341 123.2259,94.5241 122.5469,90.3951 C122.1909,88.2231 120.3139,87.2381 118.3909,86.6521 C117.7839,86.4671 117.1679,86.3051 116.5449,86.1541 C124.1169,85.0821 131.7089,82.7431 127.5629,77.6671" id="Fill-49" fill="#3C3C3B" mask="url(#mask-6)"></path>
                                        <path d="M103.3754,112.3457 C103.4284,122.3007 103.1854,132.2637 103.0054,142.2177 C102.8254,152.1747 103.5284,162.8167 101.0694,172.5377 C98.8344,181.3747 93.5954,189.6787 85.7804,194.5627 C78.0834,199.3737 66.2294,201.7727 58.4824,195.8367 C58.0954,195.5407 57.6384,196.1707 57.9704,196.5017 C63.7424,202.2427 74.0464,201.2487 81.0354,198.5597 C89.5254,195.2937 96.1784,188.5187 100.0134,180.3447 C104.5814,170.6097 104.4514,160.2147 104.6794,149.6847 C104.9494,137.2387 104.9584,124.7907 105.1744,112.3457 C105.1944,111.1887 103.3694,111.1857 103.3754,112.3457" id="Fill-29" fill="#3C3C3B" mask="url(#mask-6)"></path>
                                        <path d="M73.3279,208.3731 C73.6259,205.6411 74.0499,202.9331 74.2369,200.1361 C74.2749,199.5691 73.3589,199.2881 73.1229,199.8351 C71.8409,202.8141 71.3569,206.3031 71.1609,209.7211 C71.8409,209.2071 72.5529,208.7541 73.3279,208.3731" id="Fill-31" fill="#3C3C3B" mask="url(#mask-6)"></path>
                                        <path d="M87.7582,171.2948 C85.4762,174.5908 81.3752,176.1978 77.4552,175.7928 C73.8192,175.4168 71.5082,173.4788 69.0642,170.9458 C68.8342,170.7088 68.4772,171.0098 68.6212,171.2878 C72.9272,179.6528 83.5062,178.1698 89.0132,172.2628 C89.7912,171.4278 88.4262,170.3308 87.7582,171.2948" id="Fill-33" fill="#3C3C3B" mask="url(#mask-6)"></path>
                                        <path d="M89.1938,156.7626 C85.2448,155.5186 83.5608,148.8446 82.8728,145.2656 C82.1318,141.4126 82.5558,137.8326 82.8938,133.9636 C82.9118,133.7556 82.6138,133.7436 82.5508,133.9166 C80.8218,138.6766 81.1948,144.2736 82.6028,149.0766 C83.4918,152.1106 84.7608,155.9936 87.5918,157.7266 C85.6968,159.4466 83.8218,161.1886 81.9408,162.9246 C81.1648,163.6406 82.3258,164.7986 83.0988,164.0816 C85.2508,162.0886 87.4158,160.1066 89.5438,158.0866 C89.9908,157.6616 89.7448,156.9366 89.1938,156.7626" id="Fill-35" fill="#3C3C3B" mask="url(#mask-6)"></path>
                                        <path d="M53.0241,142.2082 C50.7061,142.7682 48.5811,143.7652 46.9971,145.3702 C48.2331,141.7632 50.4901,139.5802 54.5931,138.9352 C58.1241,138.3802 61.8411,139.2382 63.8621,142.2252 C57.5151,141.4102 53.0741,142.1472 53.0241,142.2082 M50.9961,144.0002 C51.0731,143.9692 51.1521,143.9452 51.2301,143.9152 C51.2601,144.0912 51.3321,144.2672 51.4041,144.4272 C51.4381,144.6782 51.5111,144.9312 51.6051,145.1722 C51.2941,144.8182 51.0691,144.4132 50.9961,144.0002 M65.4501,142.4782 C61.4961,135.1262 46.0011,136.7482 46.2751,146.1682 C46.1811,146.3732 46.3761,146.6832 46.6011,146.5092 C47.7011,145.6612 48.8811,144.9592 50.1111,144.3872 C50.4101,146.2122 52.6681,147.7572 54.4471,147.4512 C56.2211,147.1462 58.0291,144.4022 57.2271,142.6442 C59.7071,142.5292 62.2191,142.8862 64.6171,143.7402 C65.0851,143.9072 65.4031,143.5022 65.4131,143.1042 C65.5311,142.9332 65.5761,142.7122 65.4501,142.4782" id="Fill-37" fill="#3C3C3B" mask="url(#mask-6)"></path>
                                        <path d="M92.6428,140.1983 C91.0138,140.2913 88.8848,140.8103 87.3698,141.8723 C88.4548,140.2833 89.8518,139.0073 91.8868,138.5253 C94.7478,137.8473 97.6618,139.3443 98.5188,142.0243 C96.8678,140.7283 94.8228,140.0743 92.6428,140.1983 M89.4748,141.8243 C89.6358,141.7593 89.8008,141.7013 89.9658,141.6443 C89.9488,141.6913 89.9258,141.7343 89.9248,141.7923 C89.9188,142.1993 89.9228,142.6893 89.9758,143.1753 C89.7728,142.7473 89.6168,142.2903 89.4998,141.8733 C89.4948,141.8543 89.4818,141.8423 89.4748,141.8243 M99.9308,143.4153 C99.9418,143.3603 99.9558,143.3083 99.9488,143.2433 C99.5928,139.8763 96.9098,137.3693 93.4938,137.3043 C89.7578,137.2323 86.4868,139.9923 85.5208,143.5253 C85.4098,143.9293 85.9958,144.2093 86.2138,143.8503 C86.2648,143.8413 86.3168,143.8213 86.3628,143.7783 C87.0318,143.1563 87.8038,142.6273 88.6328,142.2063 C88.9058,144.0733 90.1568,146.0503 92.2868,145.8823 C94.4958,145.7093 95.4298,143.4223 95.5968,141.5203 C95.5978,141.5013 95.5908,141.4893 95.5908,141.4703 C96.9338,141.9063 98.1518,142.7303 99.0738,144.0263 C99.5088,144.6373 100.3638,144.0063 99.9308,143.4153" id="Fill-39" fill="#3C3C3B" mask="url(#mask-6)"></path>
                                        <path d="M100.7193,124.3573 C99.8243,123.6653 98.8843,123.7883 98.0383,124.2443 C98.3023,123.2133 98.2093,122.2143 97.1083,121.8273 C95.9033,121.4043 94.4313,122.3263 93.2383,123.3893 C93.4153,121.4483 92.5073,119.6433 90.0353,120.5143 C86.2623,121.8423 85.0113,126.0823 84.5553,129.6523 C84.5013,130.0733 85.1043,130.2143 85.3393,129.9423 C87.6683,129.8713 89.9543,129.1523 92.3243,129.1773 C95.0473,129.2053 97.6543,129.7513 100.2033,130.6803 C100.8163,130.9043 101.1463,130.1233 100.8203,129.7013 C101.5573,128.1653 102.2913,125.5733 100.7193,124.3573" id="Fill-41" fill="#3C3C3B" mask="url(#mask-6)"></path>
                                        <path d="M65.1899,124.4755 C64.7489,124.1465 64.3079,124.0635 63.9199,124.1625 C63.7779,121.4045 62.2639,118.7065 59.2219,118.3995 C56.4229,118.1175 54.9319,120.1565 54.5009,122.5095 C53.1359,120.3395 50.7179,118.7225 48.1159,119.9175 C46.2399,120.7795 45.5919,122.8705 45.8699,124.8265 C43.5859,123.0055 40.2779,121.7155 38.6369,124.3725 C36.6659,127.5645 40.5919,132.1355 43.7819,132.8005 C43.8799,132.9385 44.0609,133.0195 44.2259,132.9105 C44.2449,132.8985 44.2659,132.8895 44.2839,132.8775 C44.2929,132.8785 44.3029,132.8805 44.3109,132.8815 C44.6009,132.9015 44.7839,132.7485 44.8689,132.5445 C47.5109,131.0915 51.0949,130.6645 53.9639,130.2055 C57.9209,129.5725 61.9089,129.4405 65.8799,130.0275 C66.2389,130.0805 66.5669,129.8865 66.5799,129.4935 C66.6299,127.9665 66.5639,125.5015 65.1899,124.4755" id="Fill-43" fill="#3C3C3B" mask="url(#mask-6)"></path>
                                        <path d="M81.3614,166.6295 C81.3444,166.5275 81.3014,166.4555 81.2494,166.3975 C81.2224,166.0825 81.0694,165.7765 80.7314,165.5595 C77.9604,163.7755 74.9854,161.7105 71.5574,161.6075 C67.8054,161.4945 64.0554,163.7865 60.6954,165.1715 C59.7544,165.5595 59.5764,166.9445 60.6954,167.2685 C65.8284,168.7565 69.7124,172.7865 75.2804,171.9125 C78.2514,171.4465 81.9684,170.2465 81.3614,166.6295" id="Fill-45" fill="#3C3C3B" mask="url(#mask-6)"></path>
                                        <path d="M98.0022,162.2301 C95.2052,162.1111 87.5982,161.2021 84.6332,163.7381 C84.5342,163.7321 84.4322,163.7421 84.3282,163.7961 C80.3852,165.8111 82.6212,170.3901 86.3892,170.7741 C90.6792,171.2121 95.8942,168.1551 98.0372,164.3111 C98.1172,164.3001 98.1982,164.2841 98.2792,164.2731 C99.4842,164.1101 99.1182,162.2771 98.0022,162.2301" id="Fill-47" fill="#3C3C3B" mask="url(#mask-6)"></path>
                                    </g>
                                </g>
                            </g>
                        </g>
                    </g>
                </g>
            </g>
        </g>
    </g>
</svg>