<?xml version="1.0" encoding="UTF-8" standalone="no"?>
<svg width="176px" height="223px" viewBox="0 0 176 223" version="1.1" xmlns="http://www.w3.org/2000/svg" xmlns:xlink="http://www.w3.org/1999/xlink">
    <!-- Generator: Sketch 46.2 (44496) - http://www.bohemiancoding.com/sketch -->
    <title>Hausfrau</title>
    <desc>Created with Sketch.</desc>
    <defs>
        <polygon id="path-1" points="6.9722728e-15 0 264 0 264 292 0 292"></polygon>
    </defs>
    <g id="home" stroke="none" stroke-width="1" fill="none" fill-rule="evenodd">
        <g id="Mobile-Portrait-Copy-2" transform="translate(-49.000000, -3102.000000)">
            <g id="unfreiw.-hausfrau" transform="translate(29.000000, 3082.000000)">
                <g id="Page-1" transform="translate(20.000000, 20.000000)">
                    <g id="Group-15" transform="translate(0.000000, 0.430000)">
                        <g id="Group-14">
                            <g id="Hausfrau" transform="translate(-88.000000, -61.000000)">
                                <mask id="mask-2" fill="white">
                                    <use xlink:href="#path-1"></use>
                                </mask>
                                <g id="Clip-13"></g>
                                <path d="M214.573352,235.423632 C184.060086,245.277106 152.213615,244.659049 120.435177,244.811267 C88.3074113,244.963484 54.7090633,246.126113 23.364997,238.15699 C23.3113548,238.143868 23.2642543,238.14518 23.2132288,238.13337 C24.7623115,234.459149 26.480171,230.921399 28.3236317,227.475504 C29.2721832,228.569897 30.4025949,229.513385 31.7672007,230.250853 C39.6669992,234.51295 45.9091222,229.312615 50.4425441,222.040282 C52.460015,226.038621 55.4639795,229.46352 59.6519978,231.713981 C66.2198992,235.242545 74.2727742,235.117884 80.0883761,230.837417 C93.9319945,239.32618 109.804859,244.561945 126.207604,243.315334 C137.379578,242.466326 152.973764,237.927351 161.149624,228.415055 C161.428302,228.719491 161.672963,229.047546 161.960799,229.34542 C165.055039,232.539368 170.505612,237.622916 175.338646,234.628425 C176.670543,233.803038 177.432001,232.623351 177.850672,231.290133 C180.149437,236.045625 183.532822,240.732881 188.152595,239.651611 C193.408225,238.422059 195.387753,232.028914 195.729232,226.430976 C199.352045,231.741537 204.627299,236.599383 211.293327,233.845029 C211.735548,233.661318 212.116277,233.434304 212.506164,233.212538 C213.200896,233.938197 213.891703,234.674353 214.573352,235.423632 M217.680676,238.97188 C220.184852,241.928315 222.588285,244.976607 224.843875,248.141686 C224.782383,248.150871 224.726124,248.146935 224.664632,248.160057 C190.888349,254.715917 156.866096,257.39285 122.478815,257.217012 C105.830101,257.131717 89.1892371,256.516285 72.5640732,255.658092 C64.2521455,255.230308 55.9428344,254.742161 47.6348317,254.229083 C38.8270405,253.684511 29.2891917,254.071616 21.0557648,250.482689 C20.2393563,250.127077 19.464815,250.141512 18.7870913,250.375087 C19.4909819,248.070826 20.241973,245.778374 21.0701566,243.508231 C21.1067903,243.407189 21.1512741,243.312709 21.1892162,243.211668 C21.4456522,243.382257 21.7347968,243.526602 22.0854338,243.615833 C53.9698473,251.721427 87.997333,250.485314 120.649746,250.431513 C151.983346,250.380336 187.027417,253.04021 216.391954,240.138445 C217.002952,239.869439 217.419007,239.450841 217.680676,238.97188 M227.753639,252.401158 C229.707001,255.375965 231.521678,258.436066 233.22907,261.557842 C196.923753,267.794832 161.272609,271.916521 124.35106,272.257698 C87.6650129,272.597564 51.0391503,270.52819 14.3740373,269.822215 C15.1106366,264.974867 16.0958218,260.166886 17.3492181,255.419268 C17.5742537,255.612165 17.8293814,255.790627 18.1525431,255.92841 C32.0668122,261.871463 49.6261357,260.388652 64.4771811,261.223225 C82.486576,262.234948 100.512979,263.041964 118.552466,263.219114 C154.63144,263.573414 191.055817,261.532909 226.293524,253.314464 C226.980406,253.154373 227.451411,252.821069 227.753639,252.401158 M238.769919,272.992543 C238.648243,273.010914 238.5318,272.992543 238.406199,273.034534 C220.148218,279.121931 202.371709,283.908916 183.005559,284.533533 C165.240825,285.108287 147.401515,284.656882 129.628931,284.673941 C111.199557,284.692312 92.7688741,284.710683 74.3394999,284.727742 C54.7548555,284.747426 33.4902936,287.029379 14.2379692,283.008732 C13.7944396,282.916876 13.3875437,282.922125 13.0133565,282.991673 C13.1559663,280.436777 13.346985,277.884505 13.6295879,275.342732 C13.9030324,275.438524 14.1934854,275.509384 14.5218805,275.523818 C51.8176167,277.053869 89.3043716,278.270299 126.6302,277.811021 C162.700015,277.366178 200.517782,275.693095 235.389151,265.60867 C236.603297,268.02972 237.7167,270.499321 238.769919,272.992543 M240.445912,277.126041 C241.355213,279.519534 242.20433,281.934022 242.955321,284.380003 C242.971021,284.433805 243.007655,284.462673 243.02728,284.511226 C235.964824,290.197083 226.583977,291.110389 217.904403,292.342565 C208.221328,293.716462 198.496386,294.762302 188.749201,295.544387 C169.224741,297.108555 149.62963,297.61376 130.04891,297.737109 C110.415857,297.86177 90.7801869,297.645254 71.1458252,297.525842 C61.3031316,297.465479 51.460438,297.420864 41.6177444,297.374936 C32.175405,297.329008 21.7217134,298.420777 12.8288796,294.658637 C12.7752374,292.740169 12.7778541,290.824325 12.8014043,288.907169 C12.8197212,288.911105 12.834113,288.918979 12.8511215,288.922915 C31.4270305,292.745418 51.4395045,290.761338 70.3150249,290.723284 L131.98003,290.602559 C168.240864,290.530387 206.750746,293.582615 240.347786,277.203462 C240.389653,277.182467 240.406661,277.148349 240.445912,277.126041 M13.2122252,184.977889 C11.7887438,174.114004 12.4638508,162.992924 13.483053,152.127728 C14.1516183,144.998426 14.9693351,137.856003 15.896953,130.718829 C15.1891374,148.181877 15.4023979,165.685603 15.9244283,183.146027 C16.0618048,187.729618 16.2829154,193.362986 18.3697287,197.710377 C17.8058311,197.6592 17.2720256,197.47024 16.7827039,197.102818 C13.9540579,194.973082 13.5981876,187.923827 13.2122252,184.977889 M115.743445,80.5132219 C116.629196,78.6866091 116.833298,76.5844298 116.62658,74.4284493 C117.957168,76.2511254 119.344016,78.0318104 120.881324,79.6983321 C123.584368,82.625899 127.679494,87.0205299 132.049373,87.0546477 C137.359953,87.0953265 138.906419,83.4840921 138.817451,79.3243489 C142.565865,85.0587583 147.531041,90.3916277 154.020442,90.5543432 C160.453583,90.7170587 160.961222,85.0653194 159.829502,79.5356166 C164.718794,85.6033303 170.663922,91.1828975 178.307285,92.2904127 C181.877764,92.8074281 185.75832,91.8468817 187.241986,88.204154 C187.822892,86.7790811 187.924943,85.1506138 187.80065,83.4696576 C191.121234,88.7972782 195.438779,93.8663911 200.525632,97.1758145 C201.04897,107.374402 198.718805,117.982404 196.426581,127.879181 C194.275659,137.16315 191.426079,146.304087 187.232827,154.879457 C183.595623,162.31713 179.017717,169.300775 173.397059,175.385547 C170.276652,178.764518 166.838316,181.852176 163.102986,184.533045 C161.409985,185.748163 155.916236,189.787182 151.958487,190.693927 C150.057459,191.264743 148.059613,191.548183 145.970183,191.672844 C146.013359,191.802754 146.052609,191.933976 146.145502,192.058637 C146.688466,192.793482 147.351798,193.289502 148.089705,193.617557 C147.876445,205.646694 151.925778,217.423885 159.592691,226.633058 C150.142502,236.437979 134.832226,240.65546 121.729132,240.689578 C107.714121,240.72632 94.3074901,235.945896 82.3976084,228.790351 C82.8084293,228.352069 83.2022417,227.891479 83.5738122,227.399395 C90.2607731,218.562894 89.6667837,205.220222 89.8237853,194.743443 C90.0213457,181.57661 89.1669952,168.416337 87.3274594,155.38335 C90.7029944,161.410385 94.628035,167.123799 99.3014501,172.33988 C107.691879,181.703895 124.090698,196.287928 137.871516,192.20167 C138.804368,191.924791 138.52569,190.510216 137.582372,190.539085 C122.065378,191.019358 107.884206,178.855062 98.6577434,167.332442 C89.1408282,155.448961 83.1067324,141.20873 78.8493716,126.686371 C78.8140463,126.566959 78.7460122,126.49085 78.6936784,126.393746 C79.0220734,125.448946 78.5209766,124.15772 77.2387966,124.232516 C69.4868413,124.681296 63.4043367,108.467483 61.4077993,102.739635 C60.8268933,101.073113 59.5538718,98.3791219 59.7174152,96.5551336 C60.4684063,88.2382717 67.1435921,93.043628 69.4410492,95.2337262 C71.3983361,97.0983934 72.7511668,99.3527905 74.1275477,101.609812 C74.0163383,101.872256 73.9718545,102.171443 74.0582054,102.500811 C74.7934963,105.324712 77.308139,108.229971 80.4677967,106.436164 C85.0156105,103.855024 81.5864333,96.3346803 80.8341339,92.7982425 C78.9854397,84.1126463 77.9073619,75.0937458 78.8794636,66.2218141 C79.6605467,59.0951374 81.9998709,52.8476493 85.0260773,46.5017446 C86.8917799,59.8221083 93.6480832,73.2212053 104.771648,81.1142195 C108.203442,83.5497032 113.41328,85.3159537 115.743445,80.5132219 M259.020512,158.633723 C256.149999,146.590152 252.735214,134.655494 249.268095,122.773326 C242.452916,99.4197138 235.283175,75.5044712 224.452679,53.6533535 C215.466953,35.5236969 202.285358,20.3360416 184.719493,10.1584491 C176.524008,5.41083061 167.590616,1.81665506 158.37462,-0.359008717 C156.855629,-0.717245273 155.323555,-1.0138074 153.784939,-1.28281288 C141.240509,-6.35717464 125.341478,-2.60553247 113.060026,1.15923193 C112.870316,1.21696969 112.730323,1.31538632 112.594254,1.41511518 C96.5748552,-6.36504798 77.4939243,-5.57771488 61.6812438,2.59480259 C50.3758184,8.43943857 42.7991816,17.6722313 37.2308573,28.3340335 C32.1348462,34.8584004 27.932436,42.1189237 24.6275518,49.5474114 C15.4390316,70.2030951 11.1398038,93.0501891 7.21345479,115.201806 C3.12094574,138.291661 -1.97768206,162.622878 0.785546552,186.140517 C1.81652389,194.904847 3.7672691,206.382851 13.2501673,209.870736 C17.1595078,211.307619 20.9890391,210.841781 24.5503593,209.278924 C23.9995453,214.795505 24.3187819,220.262221 26.355878,224.465267 C23.4382645,229.977911 20.9105383,235.642773 18.7910163,241.215779 C12.1904063,258.573849 9.10532438,277.052557 9.66268015,295.616559 C9.66268015,295.630993 9.67053023,295.640179 9.67183858,295.654613 C9.57240421,296.245113 9.79613153,296.861857 10.5131056,297.199098 C19.0212854,301.205312 28.3484903,300.679111 37.5278521,300.722414 C48.0731279,300.772278 58.6184038,300.827392 69.1636797,300.862822 C90.1979725,300.931057 111.237499,301.117393 132.270483,300.891691 C153.2459,300.668613 174.234401,299.960013 195.123467,297.964124 C205.376982,296.985206 215.65143,295.792397 225.795043,293.977594 C232.921609,292.703426 239.882014,290.825637 244.932233,285.332676 C245.035593,285.219825 245.106243,285.10435 245.14811,284.988874 C245.56024,284.681814 245.798359,284.17136 245.572015,283.546743 C243.180357,276.935769 240.28106,270.353664 236.931692,263.930339 C237.133177,262.821511 236.609839,261.570964 235.522602,261.326891 C229.751484,250.733324 222.720428,240.656772 214.53541,231.724479 C217.019961,229.277185 217.821977,225.732874 217.819361,222.063902 C220.375871,225.933644 223.969899,228.812658 228.962551,227.43745 C235.854923,225.539977 236.973559,219.148145 236.032858,213.006947 C239.539227,215.925328 244.173392,217.408139 248.882132,216.454153 C258.701276,214.466137 263.284415,204.0261 263.869246,194.967833 C264.649021,182.901954 261.802058,170.303312 259.020512,158.633723" id="Fill-12" fill="#3C3C3B" mask="url(#mask-2)"></path>
                                <path d="M161.633917,128.509494 C158.212227,132.083129 154.377111,135.121659 150.26338,137.762223 C148.646904,138.800164 147.052256,136.163633 148.684139,135.166027 C152.659204,132.732514 156.376199,129.972291 159.749099,126.679653 C162.040925,124.443779 162.749657,124.227317 160.442424,121.561208 C159.171328,120.094377 157.739739,118.815774 156.530271,117.270964 C152.650217,112.313856 149.602153,106.191083 148.89984,99.7684891 C148.802261,98.8744081 150.060518,98.7251705 150.33528,99.5076594 C152.084001,104.503757 153.751834,109.388262 156.784491,113.737663 C158.326498,115.946648 160.034133,117.998329 161.969024,119.836237 C162.803582,120.629481 164.634475,121.699689 164.928497,122.954092 C165.458762,125.214167 162.907581,127.178456 161.633917,128.509494" id="Fill-2" fill="#3C3C3B" mask="url(#mask-2)"></path>
                                <path d="M132.312387,145.347149 C131.0821,143.772715 133.803683,142.007324 134.972325,143.670091 C142.528489,154.424821 156.089187,149.819734 164.924167,143.654503 C165.597021,143.184251 166.34726,144.139044 165.825241,144.723611 C156.89976,154.724899 141.037192,156.516272 132.312387,145.347149" id="Fill-4" fill="#3C3C3B" mask="url(#mask-2)"></path>
                                <path d="M187.093233,104.098948 C186.07643,103.659718 185.00652,103.35023 183.918476,103.200216 C178.47178,102.448796 173.781534,104.927402 170.153425,108.775054 C172.320446,103.700262 177.316381,100.25535 183.060994,101.889284 C184.660678,102.344732 185.974102,103.119128 187.093233,104.098948 M194.990619,115.283762 C193.953091,107.981738 189.295227,100.283731 181.799381,99.1525457 C173.784124,97.9429747 167.678125,104.089487 166.042173,111.814524 C165.746847,113.209247 167.064158,113.972831 168.073189,113.747134 C168.599077,114.06338 169.319258,114.024187 169.795925,113.272766 C171.304938,110.891466 173.180519,108.754782 175.399351,107.247887 C175.287956,107.512776 175.225782,107.811452 175.3035,108.172296 C175.61696,109.630539 175.909696,111.138786 177.272341,111.926696 C177.605231,112.119957 177.973093,112.234833 178.347432,112.315921 C179.67381,113.074099 181.27997,112.718661 182.425007,111.415838 C183.954745,109.67784 185.209881,107.63576 184.807046,105.258514 C187.691657,105.861272 189.679928,107.550617 191.143606,109.850829 C192.047719,111.717217 192.819712,113.683615 193.624087,115.532434 C193.919414,116.210875 195.117557,116.170331 194.990619,115.283762" id="Fill-6" fill="#3C3C3B" mask="url(#mask-2)"></path>
                                <path d="M122.669772,102.924534 C119.396674,100.038969 115.418641,97.7722223 111.245376,97.5325484 C105.712032,97.2156913 102.584375,100.075529 99.054461,103.050464 C102.197841,97.315894 107.16514,92.0484846 113.721819,94.3084605 C117.651371,95.6639044 120.458007,99.1967248 122.669772,102.924534 M126.971446,107.130337 C125.241866,100.290829 118.493886,92.0349437 111.329234,91.0816644 C103.193659,89.9997467 96.844006,99.908976 94.131711,106.526413 C93.7622099,107.426883 94.2221208,108.22715 94.8667822,108.603587 C95.3031079,109.016584 95.9294254,109.181783 96.547881,108.729517 C99.5327159,106.54537 101.760205,103.606995 104.683456,101.690958 C103.709912,103.732926 103.930041,106.334132 105.734306,107.818215 C107.788837,109.509473 110.573198,108.933985 111.955551,106.691612 C113.216048,104.64829 113.311699,102.063333 112.444289,99.8683533 C117.37359,100.50613 121.603198,104.140507 125.172421,107.554167 C125.231384,107.670619 125.295588,107.795195 125.353241,107.910293 C125.847219,108.893362 127.213849,108.093095 126.971446,107.130337" id="Fill-8" fill="#3C3C3B" mask="url(#mask-2)"></path>
                            </g>
                        </g>
                    </g>
                </g>
            </g>
        </g>
    </g>
</svg>